M48
INCH,TZ
T1C0.012
T2C0.031
T3C0.039
T4C0.055
T5C0.108
T6C0.102
%
G90
G05
T1
X44065Y-43031
X44469Y-45630
X44591Y-53102
X45108Y-57362
X45846Y-51368
X46132Y-49715
X46969Y-44281
X47195Y-52697
X47205Y-48091
X47805Y-43337
X51299Y-44626
X51870Y-44102
X52736Y-44976
X53406Y-46142
X54724Y-57311
X54728Y-51303
X54744Y-47549
X57500Y-45197
X58750Y-45207
X63327Y-57299
X63413Y-51358
X63469Y-46508
T2
X43110Y-44488
X43110Y-45276
X43110Y-46062
X43110Y-46850
X43110Y-49213
X43110Y-50001
X43110Y-50787
X43110Y-51575
X43110Y-53937
X43110Y-54725
X43110Y-55511
X43110Y-56299
T3
X42665Y-40248
X42665Y-41248
X43665Y-40248
X43665Y-41248
X44665Y-40248
X44665Y-41248
X45665Y-40248
X45665Y-41248
X46665Y-40248
X46665Y-41248
X47665Y-40248
X47665Y-41248
X48665Y-40248
X48665Y-41248
X49665Y-40248
X49665Y-41248
X50665Y-40248
X50665Y-41248
X51665Y-40248
X51665Y-41248
X52665Y-40248
X52665Y-41248
X53665Y-40248
X53665Y-41248
X54665Y-40248
X54665Y-41248
X55665Y-40248
X55665Y-41248
X56665Y-40248
X56665Y-41248
X57665Y-40248
X57665Y-41248
X58665Y-40248
X58665Y-41248
X59665Y-40248
X59665Y-41248
X60665Y-40248
X60665Y-41248
X61665Y-40248
X61665Y-41248
T4
X49626Y-54724
X52736Y-54724
X57500Y-54724
X60610Y-54724
T5
X40748Y-40748
X40748Y-60039
X63583Y-40748
X63583Y-60039
T6
X51181Y-58760
X59055Y-58760
T0
M30
