G04 #@! TF.FileFunction,Copper,L2,Bot,Signal*
%FSLAX46Y46*%
G04 Gerber Fmt 4.6, Leading zero omitted, Abs format (unit mm)*
G04 Created by KiCad (PCBNEW 4.0.6) date Fri May 19 18:09:53 2017*
%MOMM*%
%LPD*%
G01*
G04 APERTURE LIST*
%ADD10C,0.100000*%
%ADD11C,5.000000*%
%ADD12R,1.270000X1.270000*%
%ADD13C,1.270000*%
%ADD14R,1.700000X1.700000*%
%ADD15O,1.700000X1.700000*%
%ADD16C,2.400000*%
%ADD17C,0.500000*%
%ADD18C,0.600000*%
%ADD19C,0.300000*%
%ADD20C,0.250000*%
%ADD21C,0.254000*%
G04 APERTURE END LIST*
D10*
D11*
X103500000Y-152500000D03*
X161500000Y-152500000D03*
X161500000Y-103500000D03*
X103500000Y-103500000D03*
D12*
X109500000Y-142999740D03*
D13*
X109500000Y-140998220D03*
X109500000Y-139001780D03*
X109500000Y-137000260D03*
D12*
X109500000Y-130999740D03*
D13*
X109500000Y-128998220D03*
X109500000Y-127001780D03*
X109500000Y-125000260D03*
D12*
X109500000Y-118999740D03*
D13*
X109500000Y-116998220D03*
X109500000Y-115001780D03*
X109500000Y-113000260D03*
D14*
X108370000Y-104770000D03*
D15*
X108370000Y-102230000D03*
X110910000Y-104770000D03*
X110910000Y-102230000D03*
X113450000Y-104770000D03*
X113450000Y-102230000D03*
X115990000Y-104770000D03*
X115990000Y-102230000D03*
X118530000Y-104770000D03*
X118530000Y-102230000D03*
X121070000Y-104770000D03*
X121070000Y-102230000D03*
X123610000Y-104770000D03*
X123610000Y-102230000D03*
X126150000Y-104770000D03*
X126150000Y-102230000D03*
X128690000Y-104770000D03*
X128690000Y-102230000D03*
X131230000Y-104770000D03*
X131230000Y-102230000D03*
X133770000Y-104770000D03*
X133770000Y-102230000D03*
X136310000Y-104770000D03*
X136310000Y-102230000D03*
X138850000Y-104770000D03*
X138850000Y-102230000D03*
X141390000Y-104770000D03*
X141390000Y-102230000D03*
X143930000Y-104770000D03*
X143930000Y-102230000D03*
X146470000Y-104770000D03*
X146470000Y-102230000D03*
X149010000Y-104770000D03*
X149010000Y-102230000D03*
X151550000Y-104770000D03*
X151550000Y-102230000D03*
X154090000Y-104770000D03*
X154090000Y-102230000D03*
X156630000Y-104770000D03*
X156630000Y-102230000D03*
D16*
X153950000Y-139000000D03*
X146050000Y-139000000D03*
X133950000Y-139000000D03*
X126050000Y-139000000D03*
D17*
X112950000Y-115900000D03*
X116450000Y-130475000D03*
X119875000Y-133850000D03*
X111925000Y-109300000D03*
D18*
X139010000Y-130310000D03*
D17*
X139050000Y-120775000D03*
D18*
X133950000Y-114240000D03*
X131750000Y-112020000D03*
X161210000Y-118130000D03*
X161070000Y-130450000D03*
X160850000Y-145540000D03*
X139000000Y-145570000D03*
X114575000Y-145700000D03*
D17*
X119900000Y-122150000D03*
X121425000Y-110075000D03*
D18*
X113260000Y-134880000D03*
D17*
X119300000Y-112475000D03*
X117175000Y-126275000D03*
D18*
X135650000Y-117200000D03*
X130300000Y-113350000D03*
D17*
X149225000Y-114825000D03*
X146050000Y-114800000D03*
D19*
X111925000Y-109300000D02*
X111925000Y-114875000D01*
X111925000Y-114875000D02*
X112950000Y-115900000D01*
X116500000Y-130475000D02*
X116450000Y-130475000D01*
X119875000Y-133850000D02*
X116500000Y-130475000D01*
X111925000Y-109300000D02*
X111025000Y-110200000D01*
X111025000Y-110200000D02*
X109625000Y-110200000D01*
X139010000Y-130310000D02*
X139010000Y-120815000D01*
X139000000Y-130320000D02*
X139010000Y-130310000D01*
X139000000Y-145570000D02*
X139000000Y-130320000D01*
X139010000Y-120815000D02*
X139050000Y-120775000D01*
X133950000Y-114240000D02*
X133950000Y-114220000D01*
X138850000Y-109340000D02*
X133950000Y-114240000D01*
X138850000Y-104770000D02*
X138850000Y-109340000D01*
X133950000Y-114220000D02*
X131750000Y-112020000D01*
X161210000Y-130310000D02*
X161210000Y-118130000D01*
X161070000Y-130450000D02*
X161210000Y-130310000D01*
X139030000Y-145540000D02*
X160850000Y-145540000D01*
X139000000Y-145570000D02*
X139030000Y-145540000D01*
X147800000Y-100875000D02*
X158025000Y-100875000D01*
X158075000Y-103325000D02*
X156630000Y-104770000D01*
X158075000Y-100925000D02*
X158075000Y-103325000D01*
X158025000Y-100875000D02*
X158075000Y-100925000D01*
X142425000Y-100875000D02*
X147800000Y-100875000D01*
X147800000Y-100875000D02*
X147850000Y-100875000D01*
X147850000Y-100875000D02*
X149010000Y-102035000D01*
X149010000Y-102035000D02*
X149010000Y-102230000D01*
X132650000Y-100875000D02*
X124965000Y-100875000D01*
X124965000Y-100875000D02*
X123610000Y-102230000D01*
X138475000Y-100875000D02*
X132650000Y-100875000D01*
X132650000Y-100875000D02*
X132585000Y-100875000D01*
X132585000Y-100875000D02*
X131230000Y-102230000D01*
X143930000Y-102230000D02*
X143780000Y-102230000D01*
X143780000Y-102230000D02*
X142425000Y-100875000D01*
X142425000Y-100875000D02*
X138475000Y-100875000D01*
X138475000Y-100875000D02*
X138225000Y-100875000D01*
X138225000Y-100875000D02*
X137625000Y-101475000D01*
X137625000Y-101475000D02*
X137625000Y-103545000D01*
X137625000Y-103545000D02*
X138850000Y-104770000D01*
X113450000Y-102230000D02*
X113450000Y-102075000D01*
X113450000Y-102075000D02*
X112250000Y-100875000D01*
X107800000Y-123825000D02*
X108975260Y-125000260D01*
X107800000Y-112025000D02*
X107800000Y-123825000D01*
X109625000Y-110200000D02*
X107800000Y-112025000D01*
X109625000Y-100900000D02*
X109625000Y-110200000D01*
X109650000Y-100875000D02*
X109625000Y-100900000D01*
X112250000Y-100875000D02*
X109650000Y-100875000D01*
X108975260Y-125000260D02*
X109500000Y-125000260D01*
X109500000Y-137000260D02*
X109500000Y-137050000D01*
X109500000Y-137050000D02*
X107125000Y-139425000D01*
X114500000Y-145775000D02*
X114575000Y-145700000D01*
X109350000Y-145775000D02*
X114500000Y-145775000D01*
X107125000Y-143550000D02*
X109350000Y-145775000D01*
X107125000Y-139425000D02*
X107125000Y-143550000D01*
X109500000Y-137000260D02*
X109300260Y-137000260D01*
X109300260Y-137000260D02*
X107650000Y-135350000D01*
X107650000Y-135350000D02*
X107650000Y-126850260D01*
X107650000Y-126850260D02*
X109500000Y-125000260D01*
D20*
X121425000Y-110075000D02*
X121425000Y-112350000D01*
X119950000Y-122100000D02*
X119900000Y-122150000D01*
X119950000Y-113825000D02*
X119950000Y-122100000D01*
X121425000Y-112350000D02*
X119950000Y-113825000D01*
X110910000Y-104770000D02*
X110910000Y-105135000D01*
X110910000Y-105135000D02*
X113875000Y-108100000D01*
X121425000Y-108825000D02*
X121425000Y-110075000D01*
X120700000Y-108100000D02*
X121425000Y-108825000D01*
X113875000Y-108100000D02*
X120700000Y-108100000D01*
X110910000Y-104770000D02*
X111045000Y-104770000D01*
X113260000Y-134880000D02*
X113260000Y-132758220D01*
X113260000Y-132758220D02*
X109500000Y-128998220D01*
X111270000Y-139228220D02*
X109500000Y-140998220D01*
X111270000Y-136870000D02*
X111270000Y-139228220D01*
X113260000Y-134880000D02*
X111270000Y-136870000D01*
X117475000Y-114300000D02*
X119300000Y-112475000D01*
X117475000Y-125975000D02*
X117475000Y-114300000D01*
X117175000Y-126275000D02*
X117475000Y-125975000D01*
X134150000Y-117200000D02*
X135650000Y-117200000D01*
X130300000Y-113350000D02*
X134150000Y-117200000D01*
X146075000Y-114825000D02*
X149225000Y-114825000D01*
X146050000Y-114800000D02*
X146075000Y-114825000D01*
D21*
G36*
X159726485Y-100840727D02*
X158843826Y-101721847D01*
X158365546Y-102873674D01*
X158364457Y-104120854D01*
X158840727Y-105273515D01*
X159721847Y-106156174D01*
X160873674Y-106634454D01*
X162120854Y-106635543D01*
X163273515Y-106159273D01*
X164156174Y-105278153D01*
X164290000Y-104955864D01*
X164290000Y-151042868D01*
X164159273Y-150726485D01*
X163278153Y-149843826D01*
X162126326Y-149365546D01*
X160879146Y-149364457D01*
X159726485Y-149840727D01*
X158843826Y-150721847D01*
X158365546Y-151873674D01*
X158364457Y-153120854D01*
X158840727Y-154273515D01*
X159721847Y-155156174D01*
X160044136Y-155290000D01*
X104957132Y-155290000D01*
X105273515Y-155159273D01*
X106156174Y-154278153D01*
X106634454Y-153126326D01*
X106635543Y-151879146D01*
X106159273Y-150726485D01*
X105278153Y-149843826D01*
X104770926Y-149633207D01*
X128064665Y-149633207D01*
X128358630Y-150344658D01*
X128902479Y-150889457D01*
X129613416Y-151184663D01*
X130383207Y-151185335D01*
X131094658Y-150891370D01*
X131639457Y-150347521D01*
X131934663Y-149636584D01*
X131934665Y-149633207D01*
X148064665Y-149633207D01*
X148358630Y-150344658D01*
X148902479Y-150889457D01*
X149613416Y-151184663D01*
X150383207Y-151185335D01*
X151094658Y-150891370D01*
X151639457Y-150347521D01*
X151934663Y-149636584D01*
X151935335Y-148866793D01*
X151641370Y-148155342D01*
X151097521Y-147610543D01*
X150386584Y-147315337D01*
X149616793Y-147314665D01*
X148905342Y-147608630D01*
X148360543Y-148152479D01*
X148065337Y-148863416D01*
X148064665Y-149633207D01*
X131934665Y-149633207D01*
X131935335Y-148866793D01*
X131641370Y-148155342D01*
X131097521Y-147610543D01*
X130386584Y-147315337D01*
X129616793Y-147314665D01*
X128905342Y-147608630D01*
X128360543Y-148152479D01*
X128065337Y-148863416D01*
X128064665Y-149633207D01*
X104770926Y-149633207D01*
X104126326Y-149365546D01*
X102879146Y-149364457D01*
X101726485Y-149840727D01*
X100843826Y-150721847D01*
X100710000Y-151044136D01*
X100710000Y-136822924D01*
X108217319Y-136822924D01*
X108247094Y-137327283D01*
X108382821Y-137654957D01*
X108611867Y-137708788D01*
X109320395Y-137000260D01*
X108611867Y-136291732D01*
X108382821Y-136345563D01*
X108217319Y-136822924D01*
X100710000Y-136822924D01*
X100710000Y-136112127D01*
X108791472Y-136112127D01*
X109500000Y-136820655D01*
X110208528Y-136112127D01*
X110154697Y-135883081D01*
X109677336Y-135717579D01*
X109172977Y-135747354D01*
X108845303Y-135883081D01*
X108791472Y-136112127D01*
X100710000Y-136112127D01*
X100710000Y-130364740D01*
X108217560Y-130364740D01*
X108217560Y-131634740D01*
X108261838Y-131870057D01*
X108400910Y-132086181D01*
X108613110Y-132231171D01*
X108865000Y-132282180D01*
X110135000Y-132282180D01*
X110370317Y-132237902D01*
X110586441Y-132098830D01*
X110731431Y-131886630D01*
X110782440Y-131634740D01*
X110782440Y-131355462D01*
X112500000Y-133073022D01*
X112500000Y-134317537D01*
X112467808Y-134349673D01*
X112325162Y-134693201D01*
X112325121Y-134740077D01*
X110732599Y-136332599D01*
X110658033Y-136444194D01*
X110617179Y-136345563D01*
X110388133Y-136291732D01*
X109679605Y-137000260D01*
X110388133Y-137708788D01*
X110510000Y-137680146D01*
X110510000Y-138215923D01*
X110220337Y-137925754D01*
X110201578Y-137917965D01*
X110208528Y-137888393D01*
X109500000Y-137179865D01*
X108791472Y-137888393D01*
X108798327Y-137917562D01*
X108781542Y-137924498D01*
X108423974Y-138281443D01*
X108230221Y-138748053D01*
X108229780Y-139253290D01*
X108422718Y-139720238D01*
X108702167Y-140000175D01*
X108423974Y-140277883D01*
X108230221Y-140744493D01*
X108229780Y-141249730D01*
X108422718Y-141716678D01*
X108530957Y-141825106D01*
X108413559Y-141900650D01*
X108268569Y-142112850D01*
X108217560Y-142364740D01*
X108217560Y-143634740D01*
X108261838Y-143870057D01*
X108400910Y-144086181D01*
X108613110Y-144231171D01*
X108865000Y-144282180D01*
X110135000Y-144282180D01*
X110370317Y-144237902D01*
X110586441Y-144098830D01*
X110731431Y-143886630D01*
X110782440Y-143634740D01*
X110782440Y-142364740D01*
X110738162Y-142129423D01*
X110599090Y-141913299D01*
X110469585Y-141824812D01*
X110576026Y-141718557D01*
X110769779Y-141251947D01*
X110770171Y-140802851D01*
X111807401Y-139765621D01*
X111972148Y-139519059D01*
X112003110Y-139363403D01*
X124214682Y-139363403D01*
X124493455Y-140038086D01*
X125009199Y-140554730D01*
X125683395Y-140834681D01*
X126413403Y-140835318D01*
X127088086Y-140556545D01*
X127604730Y-140040801D01*
X127884681Y-139366605D01*
X127884683Y-139363403D01*
X132114682Y-139363403D01*
X132393455Y-140038086D01*
X132909199Y-140554730D01*
X133583395Y-140834681D01*
X134313403Y-140835318D01*
X134988086Y-140556545D01*
X135504730Y-140040801D01*
X135784681Y-139366605D01*
X135784683Y-139363403D01*
X144214682Y-139363403D01*
X144493455Y-140038086D01*
X145009199Y-140554730D01*
X145683395Y-140834681D01*
X146413403Y-140835318D01*
X147088086Y-140556545D01*
X147604730Y-140040801D01*
X147884681Y-139366605D01*
X147884683Y-139363403D01*
X152114682Y-139363403D01*
X152393455Y-140038086D01*
X152909199Y-140554730D01*
X153583395Y-140834681D01*
X154313403Y-140835318D01*
X154988086Y-140556545D01*
X155504730Y-140040801D01*
X155784681Y-139366605D01*
X155785318Y-138636597D01*
X155506545Y-137961914D01*
X154990801Y-137445270D01*
X154316605Y-137165319D01*
X153586597Y-137164682D01*
X152911914Y-137443455D01*
X152395270Y-137959199D01*
X152115319Y-138633395D01*
X152114682Y-139363403D01*
X147884683Y-139363403D01*
X147885318Y-138636597D01*
X147606545Y-137961914D01*
X147090801Y-137445270D01*
X146416605Y-137165319D01*
X145686597Y-137164682D01*
X145011914Y-137443455D01*
X144495270Y-137959199D01*
X144215319Y-138633395D01*
X144214682Y-139363403D01*
X135784683Y-139363403D01*
X135785318Y-138636597D01*
X135506545Y-137961914D01*
X134990801Y-137445270D01*
X134316605Y-137165319D01*
X133586597Y-137164682D01*
X132911914Y-137443455D01*
X132395270Y-137959199D01*
X132115319Y-138633395D01*
X132114682Y-139363403D01*
X127884683Y-139363403D01*
X127885318Y-138636597D01*
X127606545Y-137961914D01*
X127090801Y-137445270D01*
X126416605Y-137165319D01*
X125686597Y-137164682D01*
X125011914Y-137443455D01*
X124495270Y-137959199D01*
X124215319Y-138633395D01*
X124214682Y-139363403D01*
X112003110Y-139363403D01*
X112030000Y-139228220D01*
X112030000Y-137184802D01*
X113399680Y-135815122D01*
X113445167Y-135815162D01*
X113788943Y-135673117D01*
X114052192Y-135410327D01*
X114194838Y-135066799D01*
X114195162Y-134694833D01*
X114053117Y-134351057D01*
X114020000Y-134317882D01*
X114020000Y-132758220D01*
X113962148Y-132467381D01*
X113797401Y-132220819D01*
X110769830Y-129193248D01*
X110770220Y-128746710D01*
X110577282Y-128279762D01*
X110297833Y-127999825D01*
X110576026Y-127722117D01*
X110769779Y-127255507D01*
X110770220Y-126750270D01*
X110577282Y-126283322D01*
X110220337Y-125925754D01*
X110201578Y-125917965D01*
X110208528Y-125888393D01*
X109500000Y-125179865D01*
X108791472Y-125888393D01*
X108798327Y-125917562D01*
X108781542Y-125924498D01*
X108423974Y-126281443D01*
X108230221Y-126748053D01*
X108229780Y-127253290D01*
X108422718Y-127720238D01*
X108702167Y-128000175D01*
X108423974Y-128277883D01*
X108230221Y-128744493D01*
X108229780Y-129249730D01*
X108422718Y-129716678D01*
X108530957Y-129825106D01*
X108413559Y-129900650D01*
X108268569Y-130112850D01*
X108217560Y-130364740D01*
X100710000Y-130364740D01*
X100710000Y-124822924D01*
X108217319Y-124822924D01*
X108247094Y-125327283D01*
X108382821Y-125654957D01*
X108611867Y-125708788D01*
X109320395Y-125000260D01*
X109679605Y-125000260D01*
X110388133Y-125708788D01*
X110617179Y-125654957D01*
X110782681Y-125177596D01*
X110752906Y-124673237D01*
X110617179Y-124345563D01*
X110388133Y-124291732D01*
X109679605Y-125000260D01*
X109320395Y-125000260D01*
X108611867Y-124291732D01*
X108382821Y-124345563D01*
X108217319Y-124822924D01*
X100710000Y-124822924D01*
X100710000Y-124112127D01*
X108791472Y-124112127D01*
X109500000Y-124820655D01*
X110208528Y-124112127D01*
X110154697Y-123883081D01*
X109677336Y-123717579D01*
X109172977Y-123747354D01*
X108845303Y-123883081D01*
X108791472Y-124112127D01*
X100710000Y-124112127D01*
X100710000Y-118364740D01*
X108217560Y-118364740D01*
X108217560Y-119634740D01*
X108261838Y-119870057D01*
X108400910Y-120086181D01*
X108613110Y-120231171D01*
X108865000Y-120282180D01*
X110135000Y-120282180D01*
X110370317Y-120237902D01*
X110586441Y-120098830D01*
X110731431Y-119886630D01*
X110782440Y-119634740D01*
X110782440Y-118364740D01*
X110738162Y-118129423D01*
X110599090Y-117913299D01*
X110469585Y-117824812D01*
X110576026Y-117718557D01*
X110769779Y-117251947D01*
X110770220Y-116746710D01*
X110577282Y-116279762D01*
X110297833Y-115999825D01*
X110576026Y-115722117D01*
X110769779Y-115255507D01*
X110770220Y-114750270D01*
X110577282Y-114283322D01*
X110295293Y-114000841D01*
X110576026Y-113720597D01*
X110769779Y-113253987D01*
X110770220Y-112748750D01*
X110577282Y-112281802D01*
X110220337Y-111924234D01*
X109753727Y-111730481D01*
X109248490Y-111730040D01*
X108781542Y-111922978D01*
X108423974Y-112279923D01*
X108230221Y-112746533D01*
X108229780Y-113251770D01*
X108422718Y-113718718D01*
X108704707Y-114001199D01*
X108423974Y-114281443D01*
X108230221Y-114748053D01*
X108229780Y-115253290D01*
X108422718Y-115720238D01*
X108702167Y-116000175D01*
X108423974Y-116277883D01*
X108230221Y-116744493D01*
X108229780Y-117249730D01*
X108422718Y-117716678D01*
X108530957Y-117825106D01*
X108413559Y-117900650D01*
X108268569Y-118112850D01*
X108217560Y-118364740D01*
X100710000Y-118364740D01*
X100710000Y-104957132D01*
X100840727Y-105273515D01*
X101721847Y-106156174D01*
X102873674Y-106634454D01*
X104120854Y-106635543D01*
X105273515Y-106159273D01*
X106156174Y-105278153D01*
X106634454Y-104126326D01*
X106634634Y-103920000D01*
X106872560Y-103920000D01*
X106872560Y-105620000D01*
X106916838Y-105855317D01*
X107055910Y-106071441D01*
X107268110Y-106216431D01*
X107520000Y-106267440D01*
X109220000Y-106267440D01*
X109455317Y-106223162D01*
X109671441Y-106084090D01*
X109816431Y-105871890D01*
X109830086Y-105804459D01*
X109859946Y-105849147D01*
X110341715Y-106171054D01*
X110910000Y-106284093D01*
X110971965Y-106271767D01*
X113337599Y-108637401D01*
X113584160Y-108802148D01*
X113875000Y-108860000D01*
X120385198Y-108860000D01*
X120665000Y-109139802D01*
X120665000Y-109597527D01*
X120540154Y-109898190D01*
X120539847Y-110250265D01*
X120665000Y-110553159D01*
X120665000Y-112035198D01*
X120184965Y-112515233D01*
X120185153Y-112299735D01*
X120050704Y-111974343D01*
X119801967Y-111725171D01*
X119476810Y-111590154D01*
X119124735Y-111589847D01*
X118799343Y-111724296D01*
X118550171Y-111973033D01*
X118424489Y-112275709D01*
X116937599Y-113762599D01*
X116772852Y-114009161D01*
X116715000Y-114300000D01*
X116715000Y-125507497D01*
X116674343Y-125524296D01*
X116425171Y-125773033D01*
X116290154Y-126098190D01*
X116289847Y-126450265D01*
X116424296Y-126775657D01*
X116673033Y-127024829D01*
X116998190Y-127159846D01*
X117350265Y-127160153D01*
X117675657Y-127025704D01*
X117924829Y-126776967D01*
X118059846Y-126451810D01*
X118059855Y-126441381D01*
X118177148Y-126265839D01*
X118235000Y-125975000D01*
X118235000Y-114614802D01*
X119231020Y-113618782D01*
X119190000Y-113825000D01*
X119190000Y-121608274D01*
X119150171Y-121648033D01*
X119015154Y-121973190D01*
X119014847Y-122325265D01*
X119149296Y-122650657D01*
X119398033Y-122899829D01*
X119723190Y-123034846D01*
X120075265Y-123035153D01*
X120400657Y-122900704D01*
X120649829Y-122651967D01*
X120784846Y-122326810D01*
X120785153Y-121974735D01*
X120710000Y-121792851D01*
X120710000Y-114139802D01*
X121314635Y-113535167D01*
X129364838Y-113535167D01*
X129506883Y-113878943D01*
X129769673Y-114142192D01*
X130113201Y-114284838D01*
X130160077Y-114284879D01*
X133612599Y-117737401D01*
X133859160Y-117902148D01*
X134150000Y-117960000D01*
X135087537Y-117960000D01*
X135119673Y-117992192D01*
X135463201Y-118134838D01*
X135835167Y-118135162D01*
X136178943Y-117993117D01*
X136442192Y-117730327D01*
X136584838Y-117386799D01*
X136585162Y-117014833D01*
X136443117Y-116671057D01*
X136180327Y-116407808D01*
X135836799Y-116265162D01*
X135464833Y-116264838D01*
X135121057Y-116406883D01*
X135087882Y-116440000D01*
X134464802Y-116440000D01*
X133000067Y-114975265D01*
X145164847Y-114975265D01*
X145299296Y-115300657D01*
X145548033Y-115549829D01*
X145873190Y-115684846D01*
X146225265Y-115685153D01*
X146467654Y-115585000D01*
X148747527Y-115585000D01*
X149048190Y-115709846D01*
X149400265Y-115710153D01*
X149725657Y-115575704D01*
X149974829Y-115326967D01*
X150109846Y-115001810D01*
X150110153Y-114649735D01*
X149975704Y-114324343D01*
X149726967Y-114075171D01*
X149401810Y-113940154D01*
X149049735Y-113939847D01*
X148746841Y-114065000D01*
X146566770Y-114065000D01*
X146551967Y-114050171D01*
X146226810Y-113915154D01*
X145874735Y-113914847D01*
X145549343Y-114049296D01*
X145300171Y-114298033D01*
X145165154Y-114623190D01*
X145164847Y-114975265D01*
X133000067Y-114975265D01*
X131235122Y-113210320D01*
X131235162Y-113164833D01*
X131093117Y-112821057D01*
X130830327Y-112557808D01*
X130486799Y-112415162D01*
X130114833Y-112414838D01*
X129771057Y-112556883D01*
X129507808Y-112819673D01*
X129365162Y-113163201D01*
X129364838Y-113535167D01*
X121314635Y-113535167D01*
X121962401Y-112887401D01*
X122127148Y-112640839D01*
X122185000Y-112350000D01*
X122185000Y-110552473D01*
X122309846Y-110251810D01*
X122310153Y-109899735D01*
X122185000Y-109596841D01*
X122185000Y-108825000D01*
X122127148Y-108534161D01*
X121962401Y-108287599D01*
X121237401Y-107562599D01*
X120990839Y-107397852D01*
X120700000Y-107340000D01*
X114189802Y-107340000D01*
X113055405Y-106205603D01*
X113450000Y-106284093D01*
X114018285Y-106171054D01*
X114500054Y-105849147D01*
X114720000Y-105519974D01*
X114939946Y-105849147D01*
X115421715Y-106171054D01*
X115990000Y-106284093D01*
X116558285Y-106171054D01*
X117040054Y-105849147D01*
X117267702Y-105508447D01*
X117334817Y-105651358D01*
X117763076Y-106041645D01*
X118173110Y-106211476D01*
X118403000Y-106090155D01*
X118403000Y-104897000D01*
X118383000Y-104897000D01*
X118383000Y-104643000D01*
X118403000Y-104643000D01*
X118403000Y-104623000D01*
X118657000Y-104623000D01*
X118657000Y-104643000D01*
X118677000Y-104643000D01*
X118677000Y-104897000D01*
X118657000Y-104897000D01*
X118657000Y-106090155D01*
X118886890Y-106211476D01*
X119296924Y-106041645D01*
X119725183Y-105651358D01*
X119792298Y-105508447D01*
X120019946Y-105849147D01*
X120501715Y-106171054D01*
X121070000Y-106284093D01*
X121638285Y-106171054D01*
X122120054Y-105849147D01*
X122340000Y-105519974D01*
X122559946Y-105849147D01*
X123041715Y-106171054D01*
X123610000Y-106284093D01*
X124178285Y-106171054D01*
X124660054Y-105849147D01*
X124880000Y-105519974D01*
X125099946Y-105849147D01*
X125581715Y-106171054D01*
X126150000Y-106284093D01*
X126718285Y-106171054D01*
X127200054Y-105849147D01*
X127420000Y-105519974D01*
X127639946Y-105849147D01*
X128121715Y-106171054D01*
X128690000Y-106284093D01*
X129258285Y-106171054D01*
X129740054Y-105849147D01*
X129960000Y-105519974D01*
X130179946Y-105849147D01*
X130661715Y-106171054D01*
X131230000Y-106284093D01*
X131798285Y-106171054D01*
X132280054Y-105849147D01*
X132500000Y-105519974D01*
X132719946Y-105849147D01*
X133201715Y-106171054D01*
X133770000Y-106284093D01*
X134338285Y-106171054D01*
X134820054Y-105849147D01*
X135040000Y-105519974D01*
X135259946Y-105849147D01*
X135741715Y-106171054D01*
X136310000Y-106284093D01*
X136878285Y-106171054D01*
X137360054Y-105849147D01*
X137587702Y-105508447D01*
X137654817Y-105651358D01*
X138083076Y-106041645D01*
X138493110Y-106211476D01*
X138723000Y-106090155D01*
X138723000Y-104897000D01*
X138703000Y-104897000D01*
X138703000Y-104643000D01*
X138723000Y-104643000D01*
X138723000Y-104623000D01*
X138977000Y-104623000D01*
X138977000Y-104643000D01*
X138997000Y-104643000D01*
X138997000Y-104897000D01*
X138977000Y-104897000D01*
X138977000Y-106090155D01*
X139206890Y-106211476D01*
X139616924Y-106041645D01*
X140045183Y-105651358D01*
X140112298Y-105508447D01*
X140339946Y-105849147D01*
X140821715Y-106171054D01*
X141390000Y-106284093D01*
X141958285Y-106171054D01*
X142440054Y-105849147D01*
X142660000Y-105519974D01*
X142879946Y-105849147D01*
X143361715Y-106171054D01*
X143930000Y-106284093D01*
X144498285Y-106171054D01*
X144980054Y-105849147D01*
X145200000Y-105519974D01*
X145419946Y-105849147D01*
X145901715Y-106171054D01*
X146470000Y-106284093D01*
X147038285Y-106171054D01*
X147520054Y-105849147D01*
X147740000Y-105519974D01*
X147959946Y-105849147D01*
X148441715Y-106171054D01*
X149010000Y-106284093D01*
X149578285Y-106171054D01*
X150060054Y-105849147D01*
X150280000Y-105519974D01*
X150499946Y-105849147D01*
X150981715Y-106171054D01*
X151550000Y-106284093D01*
X152118285Y-106171054D01*
X152600054Y-105849147D01*
X152820000Y-105519974D01*
X153039946Y-105849147D01*
X153521715Y-106171054D01*
X154090000Y-106284093D01*
X154658285Y-106171054D01*
X155140054Y-105849147D01*
X155367702Y-105508447D01*
X155434817Y-105651358D01*
X155863076Y-106041645D01*
X156273110Y-106211476D01*
X156503000Y-106090155D01*
X156503000Y-104897000D01*
X156757000Y-104897000D01*
X156757000Y-106090155D01*
X156986890Y-106211476D01*
X157396924Y-106041645D01*
X157825183Y-105651358D01*
X158071486Y-105126892D01*
X157950819Y-104897000D01*
X156757000Y-104897000D01*
X156503000Y-104897000D01*
X156483000Y-104897000D01*
X156483000Y-104643000D01*
X156503000Y-104643000D01*
X156503000Y-104623000D01*
X156757000Y-104623000D01*
X156757000Y-104643000D01*
X157950819Y-104643000D01*
X158071486Y-104413108D01*
X157825183Y-103888642D01*
X157396924Y-103498355D01*
X157396899Y-103498345D01*
X157680054Y-103309147D01*
X158001961Y-102827378D01*
X158115000Y-102259093D01*
X158115000Y-102200907D01*
X158001961Y-101632622D01*
X157680054Y-101150853D01*
X157198285Y-100828946D01*
X156630000Y-100715907D01*
X156061715Y-100828946D01*
X155579946Y-101150853D01*
X155360000Y-101480026D01*
X155140054Y-101150853D01*
X154658285Y-100828946D01*
X154090000Y-100715907D01*
X153521715Y-100828946D01*
X153039946Y-101150853D01*
X152820000Y-101480026D01*
X152600054Y-101150853D01*
X152118285Y-100828946D01*
X151550000Y-100715907D01*
X150981715Y-100828946D01*
X150499946Y-101150853D01*
X150272298Y-101491553D01*
X150205183Y-101348642D01*
X149776924Y-100958355D01*
X149366890Y-100788524D01*
X149137000Y-100909845D01*
X149137000Y-102103000D01*
X149157000Y-102103000D01*
X149157000Y-102357000D01*
X149137000Y-102357000D01*
X149137000Y-102377000D01*
X148883000Y-102377000D01*
X148883000Y-102357000D01*
X148863000Y-102357000D01*
X148863000Y-102103000D01*
X148883000Y-102103000D01*
X148883000Y-100909845D01*
X148653110Y-100788524D01*
X148243076Y-100958355D01*
X147814817Y-101348642D01*
X147747702Y-101491553D01*
X147520054Y-101150853D01*
X147038285Y-100828946D01*
X146470000Y-100715907D01*
X145901715Y-100828946D01*
X145419946Y-101150853D01*
X145192298Y-101491553D01*
X145125183Y-101348642D01*
X144696924Y-100958355D01*
X144286890Y-100788524D01*
X144057000Y-100909845D01*
X144057000Y-102103000D01*
X144077000Y-102103000D01*
X144077000Y-102357000D01*
X144057000Y-102357000D01*
X144057000Y-102377000D01*
X143803000Y-102377000D01*
X143803000Y-102357000D01*
X143783000Y-102357000D01*
X143783000Y-102103000D01*
X143803000Y-102103000D01*
X143803000Y-100909845D01*
X143573110Y-100788524D01*
X143163076Y-100958355D01*
X142734817Y-101348642D01*
X142667702Y-101491553D01*
X142440054Y-101150853D01*
X141958285Y-100828946D01*
X141390000Y-100715907D01*
X140821715Y-100828946D01*
X140339946Y-101150853D01*
X140120000Y-101480026D01*
X139900054Y-101150853D01*
X139418285Y-100828946D01*
X138850000Y-100715907D01*
X138281715Y-100828946D01*
X137799946Y-101150853D01*
X137580000Y-101480026D01*
X137360054Y-101150853D01*
X136878285Y-100828946D01*
X136310000Y-100715907D01*
X135741715Y-100828946D01*
X135259946Y-101150853D01*
X135040000Y-101480026D01*
X134820054Y-101150853D01*
X134338285Y-100828946D01*
X133770000Y-100715907D01*
X133201715Y-100828946D01*
X132719946Y-101150853D01*
X132492298Y-101491553D01*
X132425183Y-101348642D01*
X131996924Y-100958355D01*
X131586890Y-100788524D01*
X131357000Y-100909845D01*
X131357000Y-102103000D01*
X131377000Y-102103000D01*
X131377000Y-102357000D01*
X131357000Y-102357000D01*
X131357000Y-102377000D01*
X131103000Y-102377000D01*
X131103000Y-102357000D01*
X131083000Y-102357000D01*
X131083000Y-102103000D01*
X131103000Y-102103000D01*
X131103000Y-100909845D01*
X130873110Y-100788524D01*
X130463076Y-100958355D01*
X130034817Y-101348642D01*
X129967702Y-101491553D01*
X129740054Y-101150853D01*
X129258285Y-100828946D01*
X128690000Y-100715907D01*
X128121715Y-100828946D01*
X127639946Y-101150853D01*
X127420000Y-101480026D01*
X127200054Y-101150853D01*
X126718285Y-100828946D01*
X126150000Y-100715907D01*
X125581715Y-100828946D01*
X125099946Y-101150853D01*
X124872298Y-101491553D01*
X124805183Y-101348642D01*
X124376924Y-100958355D01*
X123966890Y-100788524D01*
X123737000Y-100909845D01*
X123737000Y-102103000D01*
X123757000Y-102103000D01*
X123757000Y-102357000D01*
X123737000Y-102357000D01*
X123737000Y-102377000D01*
X123483000Y-102377000D01*
X123483000Y-102357000D01*
X123463000Y-102357000D01*
X123463000Y-102103000D01*
X123483000Y-102103000D01*
X123483000Y-100909845D01*
X123253110Y-100788524D01*
X122843076Y-100958355D01*
X122414817Y-101348642D01*
X122347702Y-101491553D01*
X122120054Y-101150853D01*
X121638285Y-100828946D01*
X121070000Y-100715907D01*
X120501715Y-100828946D01*
X120019946Y-101150853D01*
X119800000Y-101480026D01*
X119580054Y-101150853D01*
X119098285Y-100828946D01*
X118530000Y-100715907D01*
X117961715Y-100828946D01*
X117479946Y-101150853D01*
X117260000Y-101480026D01*
X117040054Y-101150853D01*
X116558285Y-100828946D01*
X115990000Y-100715907D01*
X115421715Y-100828946D01*
X114939946Y-101150853D01*
X114712298Y-101491553D01*
X114645183Y-101348642D01*
X114216924Y-100958355D01*
X113806890Y-100788524D01*
X113577000Y-100909845D01*
X113577000Y-102103000D01*
X113597000Y-102103000D01*
X113597000Y-102357000D01*
X113577000Y-102357000D01*
X113577000Y-102377000D01*
X113323000Y-102377000D01*
X113323000Y-102357000D01*
X113303000Y-102357000D01*
X113303000Y-102103000D01*
X113323000Y-102103000D01*
X113323000Y-100909845D01*
X113093110Y-100788524D01*
X112683076Y-100958355D01*
X112254817Y-101348642D01*
X112187702Y-101491553D01*
X111960054Y-101150853D01*
X111478285Y-100828946D01*
X110910000Y-100715907D01*
X110341715Y-100828946D01*
X109859946Y-101150853D01*
X109640000Y-101480026D01*
X109420054Y-101150853D01*
X108938285Y-100828946D01*
X108370000Y-100715907D01*
X107801715Y-100828946D01*
X107319946Y-101150853D01*
X106998039Y-101632622D01*
X106885000Y-102200907D01*
X106885000Y-102259093D01*
X106998039Y-102827378D01*
X107319946Y-103309147D01*
X107321179Y-103309971D01*
X107284683Y-103316838D01*
X107068559Y-103455910D01*
X106923569Y-103668110D01*
X106872560Y-103920000D01*
X106634634Y-103920000D01*
X106635543Y-102879146D01*
X106159273Y-101726485D01*
X105278153Y-100843826D01*
X104955864Y-100710000D01*
X160042868Y-100710000D01*
X159726485Y-100840727D01*
X159726485Y-100840727D01*
G37*
X159726485Y-100840727D02*
X158843826Y-101721847D01*
X158365546Y-102873674D01*
X158364457Y-104120854D01*
X158840727Y-105273515D01*
X159721847Y-106156174D01*
X160873674Y-106634454D01*
X162120854Y-106635543D01*
X163273515Y-106159273D01*
X164156174Y-105278153D01*
X164290000Y-104955864D01*
X164290000Y-151042868D01*
X164159273Y-150726485D01*
X163278153Y-149843826D01*
X162126326Y-149365546D01*
X160879146Y-149364457D01*
X159726485Y-149840727D01*
X158843826Y-150721847D01*
X158365546Y-151873674D01*
X158364457Y-153120854D01*
X158840727Y-154273515D01*
X159721847Y-155156174D01*
X160044136Y-155290000D01*
X104957132Y-155290000D01*
X105273515Y-155159273D01*
X106156174Y-154278153D01*
X106634454Y-153126326D01*
X106635543Y-151879146D01*
X106159273Y-150726485D01*
X105278153Y-149843826D01*
X104770926Y-149633207D01*
X128064665Y-149633207D01*
X128358630Y-150344658D01*
X128902479Y-150889457D01*
X129613416Y-151184663D01*
X130383207Y-151185335D01*
X131094658Y-150891370D01*
X131639457Y-150347521D01*
X131934663Y-149636584D01*
X131934665Y-149633207D01*
X148064665Y-149633207D01*
X148358630Y-150344658D01*
X148902479Y-150889457D01*
X149613416Y-151184663D01*
X150383207Y-151185335D01*
X151094658Y-150891370D01*
X151639457Y-150347521D01*
X151934663Y-149636584D01*
X151935335Y-148866793D01*
X151641370Y-148155342D01*
X151097521Y-147610543D01*
X150386584Y-147315337D01*
X149616793Y-147314665D01*
X148905342Y-147608630D01*
X148360543Y-148152479D01*
X148065337Y-148863416D01*
X148064665Y-149633207D01*
X131934665Y-149633207D01*
X131935335Y-148866793D01*
X131641370Y-148155342D01*
X131097521Y-147610543D01*
X130386584Y-147315337D01*
X129616793Y-147314665D01*
X128905342Y-147608630D01*
X128360543Y-148152479D01*
X128065337Y-148863416D01*
X128064665Y-149633207D01*
X104770926Y-149633207D01*
X104126326Y-149365546D01*
X102879146Y-149364457D01*
X101726485Y-149840727D01*
X100843826Y-150721847D01*
X100710000Y-151044136D01*
X100710000Y-136822924D01*
X108217319Y-136822924D01*
X108247094Y-137327283D01*
X108382821Y-137654957D01*
X108611867Y-137708788D01*
X109320395Y-137000260D01*
X108611867Y-136291732D01*
X108382821Y-136345563D01*
X108217319Y-136822924D01*
X100710000Y-136822924D01*
X100710000Y-136112127D01*
X108791472Y-136112127D01*
X109500000Y-136820655D01*
X110208528Y-136112127D01*
X110154697Y-135883081D01*
X109677336Y-135717579D01*
X109172977Y-135747354D01*
X108845303Y-135883081D01*
X108791472Y-136112127D01*
X100710000Y-136112127D01*
X100710000Y-130364740D01*
X108217560Y-130364740D01*
X108217560Y-131634740D01*
X108261838Y-131870057D01*
X108400910Y-132086181D01*
X108613110Y-132231171D01*
X108865000Y-132282180D01*
X110135000Y-132282180D01*
X110370317Y-132237902D01*
X110586441Y-132098830D01*
X110731431Y-131886630D01*
X110782440Y-131634740D01*
X110782440Y-131355462D01*
X112500000Y-133073022D01*
X112500000Y-134317537D01*
X112467808Y-134349673D01*
X112325162Y-134693201D01*
X112325121Y-134740077D01*
X110732599Y-136332599D01*
X110658033Y-136444194D01*
X110617179Y-136345563D01*
X110388133Y-136291732D01*
X109679605Y-137000260D01*
X110388133Y-137708788D01*
X110510000Y-137680146D01*
X110510000Y-138215923D01*
X110220337Y-137925754D01*
X110201578Y-137917965D01*
X110208528Y-137888393D01*
X109500000Y-137179865D01*
X108791472Y-137888393D01*
X108798327Y-137917562D01*
X108781542Y-137924498D01*
X108423974Y-138281443D01*
X108230221Y-138748053D01*
X108229780Y-139253290D01*
X108422718Y-139720238D01*
X108702167Y-140000175D01*
X108423974Y-140277883D01*
X108230221Y-140744493D01*
X108229780Y-141249730D01*
X108422718Y-141716678D01*
X108530957Y-141825106D01*
X108413559Y-141900650D01*
X108268569Y-142112850D01*
X108217560Y-142364740D01*
X108217560Y-143634740D01*
X108261838Y-143870057D01*
X108400910Y-144086181D01*
X108613110Y-144231171D01*
X108865000Y-144282180D01*
X110135000Y-144282180D01*
X110370317Y-144237902D01*
X110586441Y-144098830D01*
X110731431Y-143886630D01*
X110782440Y-143634740D01*
X110782440Y-142364740D01*
X110738162Y-142129423D01*
X110599090Y-141913299D01*
X110469585Y-141824812D01*
X110576026Y-141718557D01*
X110769779Y-141251947D01*
X110770171Y-140802851D01*
X111807401Y-139765621D01*
X111972148Y-139519059D01*
X112003110Y-139363403D01*
X124214682Y-139363403D01*
X124493455Y-140038086D01*
X125009199Y-140554730D01*
X125683395Y-140834681D01*
X126413403Y-140835318D01*
X127088086Y-140556545D01*
X127604730Y-140040801D01*
X127884681Y-139366605D01*
X127884683Y-139363403D01*
X132114682Y-139363403D01*
X132393455Y-140038086D01*
X132909199Y-140554730D01*
X133583395Y-140834681D01*
X134313403Y-140835318D01*
X134988086Y-140556545D01*
X135504730Y-140040801D01*
X135784681Y-139366605D01*
X135784683Y-139363403D01*
X144214682Y-139363403D01*
X144493455Y-140038086D01*
X145009199Y-140554730D01*
X145683395Y-140834681D01*
X146413403Y-140835318D01*
X147088086Y-140556545D01*
X147604730Y-140040801D01*
X147884681Y-139366605D01*
X147884683Y-139363403D01*
X152114682Y-139363403D01*
X152393455Y-140038086D01*
X152909199Y-140554730D01*
X153583395Y-140834681D01*
X154313403Y-140835318D01*
X154988086Y-140556545D01*
X155504730Y-140040801D01*
X155784681Y-139366605D01*
X155785318Y-138636597D01*
X155506545Y-137961914D01*
X154990801Y-137445270D01*
X154316605Y-137165319D01*
X153586597Y-137164682D01*
X152911914Y-137443455D01*
X152395270Y-137959199D01*
X152115319Y-138633395D01*
X152114682Y-139363403D01*
X147884683Y-139363403D01*
X147885318Y-138636597D01*
X147606545Y-137961914D01*
X147090801Y-137445270D01*
X146416605Y-137165319D01*
X145686597Y-137164682D01*
X145011914Y-137443455D01*
X144495270Y-137959199D01*
X144215319Y-138633395D01*
X144214682Y-139363403D01*
X135784683Y-139363403D01*
X135785318Y-138636597D01*
X135506545Y-137961914D01*
X134990801Y-137445270D01*
X134316605Y-137165319D01*
X133586597Y-137164682D01*
X132911914Y-137443455D01*
X132395270Y-137959199D01*
X132115319Y-138633395D01*
X132114682Y-139363403D01*
X127884683Y-139363403D01*
X127885318Y-138636597D01*
X127606545Y-137961914D01*
X127090801Y-137445270D01*
X126416605Y-137165319D01*
X125686597Y-137164682D01*
X125011914Y-137443455D01*
X124495270Y-137959199D01*
X124215319Y-138633395D01*
X124214682Y-139363403D01*
X112003110Y-139363403D01*
X112030000Y-139228220D01*
X112030000Y-137184802D01*
X113399680Y-135815122D01*
X113445167Y-135815162D01*
X113788943Y-135673117D01*
X114052192Y-135410327D01*
X114194838Y-135066799D01*
X114195162Y-134694833D01*
X114053117Y-134351057D01*
X114020000Y-134317882D01*
X114020000Y-132758220D01*
X113962148Y-132467381D01*
X113797401Y-132220819D01*
X110769830Y-129193248D01*
X110770220Y-128746710D01*
X110577282Y-128279762D01*
X110297833Y-127999825D01*
X110576026Y-127722117D01*
X110769779Y-127255507D01*
X110770220Y-126750270D01*
X110577282Y-126283322D01*
X110220337Y-125925754D01*
X110201578Y-125917965D01*
X110208528Y-125888393D01*
X109500000Y-125179865D01*
X108791472Y-125888393D01*
X108798327Y-125917562D01*
X108781542Y-125924498D01*
X108423974Y-126281443D01*
X108230221Y-126748053D01*
X108229780Y-127253290D01*
X108422718Y-127720238D01*
X108702167Y-128000175D01*
X108423974Y-128277883D01*
X108230221Y-128744493D01*
X108229780Y-129249730D01*
X108422718Y-129716678D01*
X108530957Y-129825106D01*
X108413559Y-129900650D01*
X108268569Y-130112850D01*
X108217560Y-130364740D01*
X100710000Y-130364740D01*
X100710000Y-124822924D01*
X108217319Y-124822924D01*
X108247094Y-125327283D01*
X108382821Y-125654957D01*
X108611867Y-125708788D01*
X109320395Y-125000260D01*
X109679605Y-125000260D01*
X110388133Y-125708788D01*
X110617179Y-125654957D01*
X110782681Y-125177596D01*
X110752906Y-124673237D01*
X110617179Y-124345563D01*
X110388133Y-124291732D01*
X109679605Y-125000260D01*
X109320395Y-125000260D01*
X108611867Y-124291732D01*
X108382821Y-124345563D01*
X108217319Y-124822924D01*
X100710000Y-124822924D01*
X100710000Y-124112127D01*
X108791472Y-124112127D01*
X109500000Y-124820655D01*
X110208528Y-124112127D01*
X110154697Y-123883081D01*
X109677336Y-123717579D01*
X109172977Y-123747354D01*
X108845303Y-123883081D01*
X108791472Y-124112127D01*
X100710000Y-124112127D01*
X100710000Y-118364740D01*
X108217560Y-118364740D01*
X108217560Y-119634740D01*
X108261838Y-119870057D01*
X108400910Y-120086181D01*
X108613110Y-120231171D01*
X108865000Y-120282180D01*
X110135000Y-120282180D01*
X110370317Y-120237902D01*
X110586441Y-120098830D01*
X110731431Y-119886630D01*
X110782440Y-119634740D01*
X110782440Y-118364740D01*
X110738162Y-118129423D01*
X110599090Y-117913299D01*
X110469585Y-117824812D01*
X110576026Y-117718557D01*
X110769779Y-117251947D01*
X110770220Y-116746710D01*
X110577282Y-116279762D01*
X110297833Y-115999825D01*
X110576026Y-115722117D01*
X110769779Y-115255507D01*
X110770220Y-114750270D01*
X110577282Y-114283322D01*
X110295293Y-114000841D01*
X110576026Y-113720597D01*
X110769779Y-113253987D01*
X110770220Y-112748750D01*
X110577282Y-112281802D01*
X110220337Y-111924234D01*
X109753727Y-111730481D01*
X109248490Y-111730040D01*
X108781542Y-111922978D01*
X108423974Y-112279923D01*
X108230221Y-112746533D01*
X108229780Y-113251770D01*
X108422718Y-113718718D01*
X108704707Y-114001199D01*
X108423974Y-114281443D01*
X108230221Y-114748053D01*
X108229780Y-115253290D01*
X108422718Y-115720238D01*
X108702167Y-116000175D01*
X108423974Y-116277883D01*
X108230221Y-116744493D01*
X108229780Y-117249730D01*
X108422718Y-117716678D01*
X108530957Y-117825106D01*
X108413559Y-117900650D01*
X108268569Y-118112850D01*
X108217560Y-118364740D01*
X100710000Y-118364740D01*
X100710000Y-104957132D01*
X100840727Y-105273515D01*
X101721847Y-106156174D01*
X102873674Y-106634454D01*
X104120854Y-106635543D01*
X105273515Y-106159273D01*
X106156174Y-105278153D01*
X106634454Y-104126326D01*
X106634634Y-103920000D01*
X106872560Y-103920000D01*
X106872560Y-105620000D01*
X106916838Y-105855317D01*
X107055910Y-106071441D01*
X107268110Y-106216431D01*
X107520000Y-106267440D01*
X109220000Y-106267440D01*
X109455317Y-106223162D01*
X109671441Y-106084090D01*
X109816431Y-105871890D01*
X109830086Y-105804459D01*
X109859946Y-105849147D01*
X110341715Y-106171054D01*
X110910000Y-106284093D01*
X110971965Y-106271767D01*
X113337599Y-108637401D01*
X113584160Y-108802148D01*
X113875000Y-108860000D01*
X120385198Y-108860000D01*
X120665000Y-109139802D01*
X120665000Y-109597527D01*
X120540154Y-109898190D01*
X120539847Y-110250265D01*
X120665000Y-110553159D01*
X120665000Y-112035198D01*
X120184965Y-112515233D01*
X120185153Y-112299735D01*
X120050704Y-111974343D01*
X119801967Y-111725171D01*
X119476810Y-111590154D01*
X119124735Y-111589847D01*
X118799343Y-111724296D01*
X118550171Y-111973033D01*
X118424489Y-112275709D01*
X116937599Y-113762599D01*
X116772852Y-114009161D01*
X116715000Y-114300000D01*
X116715000Y-125507497D01*
X116674343Y-125524296D01*
X116425171Y-125773033D01*
X116290154Y-126098190D01*
X116289847Y-126450265D01*
X116424296Y-126775657D01*
X116673033Y-127024829D01*
X116998190Y-127159846D01*
X117350265Y-127160153D01*
X117675657Y-127025704D01*
X117924829Y-126776967D01*
X118059846Y-126451810D01*
X118059855Y-126441381D01*
X118177148Y-126265839D01*
X118235000Y-125975000D01*
X118235000Y-114614802D01*
X119231020Y-113618782D01*
X119190000Y-113825000D01*
X119190000Y-121608274D01*
X119150171Y-121648033D01*
X119015154Y-121973190D01*
X119014847Y-122325265D01*
X119149296Y-122650657D01*
X119398033Y-122899829D01*
X119723190Y-123034846D01*
X120075265Y-123035153D01*
X120400657Y-122900704D01*
X120649829Y-122651967D01*
X120784846Y-122326810D01*
X120785153Y-121974735D01*
X120710000Y-121792851D01*
X120710000Y-114139802D01*
X121314635Y-113535167D01*
X129364838Y-113535167D01*
X129506883Y-113878943D01*
X129769673Y-114142192D01*
X130113201Y-114284838D01*
X130160077Y-114284879D01*
X133612599Y-117737401D01*
X133859160Y-117902148D01*
X134150000Y-117960000D01*
X135087537Y-117960000D01*
X135119673Y-117992192D01*
X135463201Y-118134838D01*
X135835167Y-118135162D01*
X136178943Y-117993117D01*
X136442192Y-117730327D01*
X136584838Y-117386799D01*
X136585162Y-117014833D01*
X136443117Y-116671057D01*
X136180327Y-116407808D01*
X135836799Y-116265162D01*
X135464833Y-116264838D01*
X135121057Y-116406883D01*
X135087882Y-116440000D01*
X134464802Y-116440000D01*
X133000067Y-114975265D01*
X145164847Y-114975265D01*
X145299296Y-115300657D01*
X145548033Y-115549829D01*
X145873190Y-115684846D01*
X146225265Y-115685153D01*
X146467654Y-115585000D01*
X148747527Y-115585000D01*
X149048190Y-115709846D01*
X149400265Y-115710153D01*
X149725657Y-115575704D01*
X149974829Y-115326967D01*
X150109846Y-115001810D01*
X150110153Y-114649735D01*
X149975704Y-114324343D01*
X149726967Y-114075171D01*
X149401810Y-113940154D01*
X149049735Y-113939847D01*
X148746841Y-114065000D01*
X146566770Y-114065000D01*
X146551967Y-114050171D01*
X146226810Y-113915154D01*
X145874735Y-113914847D01*
X145549343Y-114049296D01*
X145300171Y-114298033D01*
X145165154Y-114623190D01*
X145164847Y-114975265D01*
X133000067Y-114975265D01*
X131235122Y-113210320D01*
X131235162Y-113164833D01*
X131093117Y-112821057D01*
X130830327Y-112557808D01*
X130486799Y-112415162D01*
X130114833Y-112414838D01*
X129771057Y-112556883D01*
X129507808Y-112819673D01*
X129365162Y-113163201D01*
X129364838Y-113535167D01*
X121314635Y-113535167D01*
X121962401Y-112887401D01*
X122127148Y-112640839D01*
X122185000Y-112350000D01*
X122185000Y-110552473D01*
X122309846Y-110251810D01*
X122310153Y-109899735D01*
X122185000Y-109596841D01*
X122185000Y-108825000D01*
X122127148Y-108534161D01*
X121962401Y-108287599D01*
X121237401Y-107562599D01*
X120990839Y-107397852D01*
X120700000Y-107340000D01*
X114189802Y-107340000D01*
X113055405Y-106205603D01*
X113450000Y-106284093D01*
X114018285Y-106171054D01*
X114500054Y-105849147D01*
X114720000Y-105519974D01*
X114939946Y-105849147D01*
X115421715Y-106171054D01*
X115990000Y-106284093D01*
X116558285Y-106171054D01*
X117040054Y-105849147D01*
X117267702Y-105508447D01*
X117334817Y-105651358D01*
X117763076Y-106041645D01*
X118173110Y-106211476D01*
X118403000Y-106090155D01*
X118403000Y-104897000D01*
X118383000Y-104897000D01*
X118383000Y-104643000D01*
X118403000Y-104643000D01*
X118403000Y-104623000D01*
X118657000Y-104623000D01*
X118657000Y-104643000D01*
X118677000Y-104643000D01*
X118677000Y-104897000D01*
X118657000Y-104897000D01*
X118657000Y-106090155D01*
X118886890Y-106211476D01*
X119296924Y-106041645D01*
X119725183Y-105651358D01*
X119792298Y-105508447D01*
X120019946Y-105849147D01*
X120501715Y-106171054D01*
X121070000Y-106284093D01*
X121638285Y-106171054D01*
X122120054Y-105849147D01*
X122340000Y-105519974D01*
X122559946Y-105849147D01*
X123041715Y-106171054D01*
X123610000Y-106284093D01*
X124178285Y-106171054D01*
X124660054Y-105849147D01*
X124880000Y-105519974D01*
X125099946Y-105849147D01*
X125581715Y-106171054D01*
X126150000Y-106284093D01*
X126718285Y-106171054D01*
X127200054Y-105849147D01*
X127420000Y-105519974D01*
X127639946Y-105849147D01*
X128121715Y-106171054D01*
X128690000Y-106284093D01*
X129258285Y-106171054D01*
X129740054Y-105849147D01*
X129960000Y-105519974D01*
X130179946Y-105849147D01*
X130661715Y-106171054D01*
X131230000Y-106284093D01*
X131798285Y-106171054D01*
X132280054Y-105849147D01*
X132500000Y-105519974D01*
X132719946Y-105849147D01*
X133201715Y-106171054D01*
X133770000Y-106284093D01*
X134338285Y-106171054D01*
X134820054Y-105849147D01*
X135040000Y-105519974D01*
X135259946Y-105849147D01*
X135741715Y-106171054D01*
X136310000Y-106284093D01*
X136878285Y-106171054D01*
X137360054Y-105849147D01*
X137587702Y-105508447D01*
X137654817Y-105651358D01*
X138083076Y-106041645D01*
X138493110Y-106211476D01*
X138723000Y-106090155D01*
X138723000Y-104897000D01*
X138703000Y-104897000D01*
X138703000Y-104643000D01*
X138723000Y-104643000D01*
X138723000Y-104623000D01*
X138977000Y-104623000D01*
X138977000Y-104643000D01*
X138997000Y-104643000D01*
X138997000Y-104897000D01*
X138977000Y-104897000D01*
X138977000Y-106090155D01*
X139206890Y-106211476D01*
X139616924Y-106041645D01*
X140045183Y-105651358D01*
X140112298Y-105508447D01*
X140339946Y-105849147D01*
X140821715Y-106171054D01*
X141390000Y-106284093D01*
X141958285Y-106171054D01*
X142440054Y-105849147D01*
X142660000Y-105519974D01*
X142879946Y-105849147D01*
X143361715Y-106171054D01*
X143930000Y-106284093D01*
X144498285Y-106171054D01*
X144980054Y-105849147D01*
X145200000Y-105519974D01*
X145419946Y-105849147D01*
X145901715Y-106171054D01*
X146470000Y-106284093D01*
X147038285Y-106171054D01*
X147520054Y-105849147D01*
X147740000Y-105519974D01*
X147959946Y-105849147D01*
X148441715Y-106171054D01*
X149010000Y-106284093D01*
X149578285Y-106171054D01*
X150060054Y-105849147D01*
X150280000Y-105519974D01*
X150499946Y-105849147D01*
X150981715Y-106171054D01*
X151550000Y-106284093D01*
X152118285Y-106171054D01*
X152600054Y-105849147D01*
X152820000Y-105519974D01*
X153039946Y-105849147D01*
X153521715Y-106171054D01*
X154090000Y-106284093D01*
X154658285Y-106171054D01*
X155140054Y-105849147D01*
X155367702Y-105508447D01*
X155434817Y-105651358D01*
X155863076Y-106041645D01*
X156273110Y-106211476D01*
X156503000Y-106090155D01*
X156503000Y-104897000D01*
X156757000Y-104897000D01*
X156757000Y-106090155D01*
X156986890Y-106211476D01*
X157396924Y-106041645D01*
X157825183Y-105651358D01*
X158071486Y-105126892D01*
X157950819Y-104897000D01*
X156757000Y-104897000D01*
X156503000Y-104897000D01*
X156483000Y-104897000D01*
X156483000Y-104643000D01*
X156503000Y-104643000D01*
X156503000Y-104623000D01*
X156757000Y-104623000D01*
X156757000Y-104643000D01*
X157950819Y-104643000D01*
X158071486Y-104413108D01*
X157825183Y-103888642D01*
X157396924Y-103498355D01*
X157396899Y-103498345D01*
X157680054Y-103309147D01*
X158001961Y-102827378D01*
X158115000Y-102259093D01*
X158115000Y-102200907D01*
X158001961Y-101632622D01*
X157680054Y-101150853D01*
X157198285Y-100828946D01*
X156630000Y-100715907D01*
X156061715Y-100828946D01*
X155579946Y-101150853D01*
X155360000Y-101480026D01*
X155140054Y-101150853D01*
X154658285Y-100828946D01*
X154090000Y-100715907D01*
X153521715Y-100828946D01*
X153039946Y-101150853D01*
X152820000Y-101480026D01*
X152600054Y-101150853D01*
X152118285Y-100828946D01*
X151550000Y-100715907D01*
X150981715Y-100828946D01*
X150499946Y-101150853D01*
X150272298Y-101491553D01*
X150205183Y-101348642D01*
X149776924Y-100958355D01*
X149366890Y-100788524D01*
X149137000Y-100909845D01*
X149137000Y-102103000D01*
X149157000Y-102103000D01*
X149157000Y-102357000D01*
X149137000Y-102357000D01*
X149137000Y-102377000D01*
X148883000Y-102377000D01*
X148883000Y-102357000D01*
X148863000Y-102357000D01*
X148863000Y-102103000D01*
X148883000Y-102103000D01*
X148883000Y-100909845D01*
X148653110Y-100788524D01*
X148243076Y-100958355D01*
X147814817Y-101348642D01*
X147747702Y-101491553D01*
X147520054Y-101150853D01*
X147038285Y-100828946D01*
X146470000Y-100715907D01*
X145901715Y-100828946D01*
X145419946Y-101150853D01*
X145192298Y-101491553D01*
X145125183Y-101348642D01*
X144696924Y-100958355D01*
X144286890Y-100788524D01*
X144057000Y-100909845D01*
X144057000Y-102103000D01*
X144077000Y-102103000D01*
X144077000Y-102357000D01*
X144057000Y-102357000D01*
X144057000Y-102377000D01*
X143803000Y-102377000D01*
X143803000Y-102357000D01*
X143783000Y-102357000D01*
X143783000Y-102103000D01*
X143803000Y-102103000D01*
X143803000Y-100909845D01*
X143573110Y-100788524D01*
X143163076Y-100958355D01*
X142734817Y-101348642D01*
X142667702Y-101491553D01*
X142440054Y-101150853D01*
X141958285Y-100828946D01*
X141390000Y-100715907D01*
X140821715Y-100828946D01*
X140339946Y-101150853D01*
X140120000Y-101480026D01*
X139900054Y-101150853D01*
X139418285Y-100828946D01*
X138850000Y-100715907D01*
X138281715Y-100828946D01*
X137799946Y-101150853D01*
X137580000Y-101480026D01*
X137360054Y-101150853D01*
X136878285Y-100828946D01*
X136310000Y-100715907D01*
X135741715Y-100828946D01*
X135259946Y-101150853D01*
X135040000Y-101480026D01*
X134820054Y-101150853D01*
X134338285Y-100828946D01*
X133770000Y-100715907D01*
X133201715Y-100828946D01*
X132719946Y-101150853D01*
X132492298Y-101491553D01*
X132425183Y-101348642D01*
X131996924Y-100958355D01*
X131586890Y-100788524D01*
X131357000Y-100909845D01*
X131357000Y-102103000D01*
X131377000Y-102103000D01*
X131377000Y-102357000D01*
X131357000Y-102357000D01*
X131357000Y-102377000D01*
X131103000Y-102377000D01*
X131103000Y-102357000D01*
X131083000Y-102357000D01*
X131083000Y-102103000D01*
X131103000Y-102103000D01*
X131103000Y-100909845D01*
X130873110Y-100788524D01*
X130463076Y-100958355D01*
X130034817Y-101348642D01*
X129967702Y-101491553D01*
X129740054Y-101150853D01*
X129258285Y-100828946D01*
X128690000Y-100715907D01*
X128121715Y-100828946D01*
X127639946Y-101150853D01*
X127420000Y-101480026D01*
X127200054Y-101150853D01*
X126718285Y-100828946D01*
X126150000Y-100715907D01*
X125581715Y-100828946D01*
X125099946Y-101150853D01*
X124872298Y-101491553D01*
X124805183Y-101348642D01*
X124376924Y-100958355D01*
X123966890Y-100788524D01*
X123737000Y-100909845D01*
X123737000Y-102103000D01*
X123757000Y-102103000D01*
X123757000Y-102357000D01*
X123737000Y-102357000D01*
X123737000Y-102377000D01*
X123483000Y-102377000D01*
X123483000Y-102357000D01*
X123463000Y-102357000D01*
X123463000Y-102103000D01*
X123483000Y-102103000D01*
X123483000Y-100909845D01*
X123253110Y-100788524D01*
X122843076Y-100958355D01*
X122414817Y-101348642D01*
X122347702Y-101491553D01*
X122120054Y-101150853D01*
X121638285Y-100828946D01*
X121070000Y-100715907D01*
X120501715Y-100828946D01*
X120019946Y-101150853D01*
X119800000Y-101480026D01*
X119580054Y-101150853D01*
X119098285Y-100828946D01*
X118530000Y-100715907D01*
X117961715Y-100828946D01*
X117479946Y-101150853D01*
X117260000Y-101480026D01*
X117040054Y-101150853D01*
X116558285Y-100828946D01*
X115990000Y-100715907D01*
X115421715Y-100828946D01*
X114939946Y-101150853D01*
X114712298Y-101491553D01*
X114645183Y-101348642D01*
X114216924Y-100958355D01*
X113806890Y-100788524D01*
X113577000Y-100909845D01*
X113577000Y-102103000D01*
X113597000Y-102103000D01*
X113597000Y-102357000D01*
X113577000Y-102357000D01*
X113577000Y-102377000D01*
X113323000Y-102377000D01*
X113323000Y-102357000D01*
X113303000Y-102357000D01*
X113303000Y-102103000D01*
X113323000Y-102103000D01*
X113323000Y-100909845D01*
X113093110Y-100788524D01*
X112683076Y-100958355D01*
X112254817Y-101348642D01*
X112187702Y-101491553D01*
X111960054Y-101150853D01*
X111478285Y-100828946D01*
X110910000Y-100715907D01*
X110341715Y-100828946D01*
X109859946Y-101150853D01*
X109640000Y-101480026D01*
X109420054Y-101150853D01*
X108938285Y-100828946D01*
X108370000Y-100715907D01*
X107801715Y-100828946D01*
X107319946Y-101150853D01*
X106998039Y-101632622D01*
X106885000Y-102200907D01*
X106885000Y-102259093D01*
X106998039Y-102827378D01*
X107319946Y-103309147D01*
X107321179Y-103309971D01*
X107284683Y-103316838D01*
X107068559Y-103455910D01*
X106923569Y-103668110D01*
X106872560Y-103920000D01*
X106634634Y-103920000D01*
X106635543Y-102879146D01*
X106159273Y-101726485D01*
X105278153Y-100843826D01*
X104955864Y-100710000D01*
X160042868Y-100710000D01*
X159726485Y-100840727D01*
G36*
X137799946Y-103309147D02*
X138083101Y-103498345D01*
X138083076Y-103498355D01*
X137654817Y-103888642D01*
X137587702Y-104031553D01*
X137360054Y-103690853D01*
X137074422Y-103500000D01*
X137360054Y-103309147D01*
X137580000Y-102979974D01*
X137799946Y-103309147D01*
X137799946Y-103309147D01*
G37*
X137799946Y-103309147D02*
X138083101Y-103498345D01*
X138083076Y-103498355D01*
X137654817Y-103888642D01*
X137587702Y-104031553D01*
X137360054Y-103690853D01*
X137074422Y-103500000D01*
X137360054Y-103309147D01*
X137580000Y-102979974D01*
X137799946Y-103309147D01*
M02*
