G04 #@! TF.FileFunction,Copper,L1,Top,Signal*
%FSLAX46Y46*%
G04 Gerber Fmt 4.6, Leading zero omitted, Abs format (unit mm)*
G04 Created by KiCad (PCBNEW 4.0.6) date Fri May 19 18:09:53 2017*
%MOMM*%
%LPD*%
G01*
G04 APERTURE LIST*
%ADD10C,0.100000*%
%ADD11R,0.889000X0.889000*%
%ADD12C,5.000000*%
%ADD13R,1.270000X1.270000*%
%ADD14C,1.270000*%
%ADD15R,1.700000X1.700000*%
%ADD16O,1.700000X1.700000*%
%ADD17R,0.500000X0.600000*%
%ADD18R,0.600000X0.500000*%
%ADD19C,2.400000*%
%ADD20R,0.797560X2.199640*%
%ADD21R,0.250000X1.100000*%
%ADD22C,0.500000*%
%ADD23C,0.600000*%
%ADD24C,0.300000*%
%ADD25C,0.350000*%
%ADD26C,0.250000*%
%ADD27C,0.254000*%
G04 APERTURE END LIST*
D10*
D11*
X131200000Y-132362000D03*
X131200000Y-130838000D03*
D12*
X103500000Y-152500000D03*
X161500000Y-152500000D03*
X161500000Y-103500000D03*
X103500000Y-103500000D03*
D13*
X109500000Y-142999740D03*
D14*
X109500000Y-140998220D03*
X109500000Y-139001780D03*
X109500000Y-137000260D03*
D13*
X109500000Y-130999740D03*
D14*
X109500000Y-128998220D03*
X109500000Y-127001780D03*
X109500000Y-125000260D03*
D13*
X109500000Y-118999740D03*
D14*
X109500000Y-116998220D03*
X109500000Y-115001780D03*
X109500000Y-113000260D03*
D15*
X108370000Y-104770000D03*
D16*
X108370000Y-102230000D03*
X110910000Y-104770000D03*
X110910000Y-102230000D03*
X113450000Y-104770000D03*
X113450000Y-102230000D03*
X115990000Y-104770000D03*
X115990000Y-102230000D03*
X118530000Y-104770000D03*
X118530000Y-102230000D03*
X121070000Y-104770000D03*
X121070000Y-102230000D03*
X123610000Y-104770000D03*
X123610000Y-102230000D03*
X126150000Y-104770000D03*
X126150000Y-102230000D03*
X128690000Y-104770000D03*
X128690000Y-102230000D03*
X131230000Y-104770000D03*
X131230000Y-102230000D03*
X133770000Y-104770000D03*
X133770000Y-102230000D03*
X136310000Y-104770000D03*
X136310000Y-102230000D03*
X138850000Y-104770000D03*
X138850000Y-102230000D03*
X141390000Y-104770000D03*
X141390000Y-102230000D03*
X143930000Y-104770000D03*
X143930000Y-102230000D03*
X146470000Y-104770000D03*
X146470000Y-102230000D03*
X149010000Y-104770000D03*
X149010000Y-102230000D03*
X151550000Y-104770000D03*
X151550000Y-102230000D03*
X154090000Y-104770000D03*
X154090000Y-102230000D03*
X156630000Y-104770000D03*
X156630000Y-102230000D03*
D17*
X134000000Y-123920000D03*
X134000000Y-125020000D03*
D18*
X117925000Y-121025000D03*
X116825000Y-121025000D03*
X117925000Y-118950000D03*
X116825000Y-118950000D03*
X116825000Y-116825000D03*
X117925000Y-116825000D03*
X130550000Y-128400000D03*
X129450000Y-128400000D03*
X122950000Y-112000000D03*
X124050000Y-112000000D03*
X118000000Y-110700000D03*
X116900000Y-110700000D03*
X118050000Y-112650000D03*
X116950000Y-112650000D03*
X116950000Y-114850000D03*
X118050000Y-114850000D03*
D17*
X153640000Y-123950000D03*
X153640000Y-125050000D03*
D18*
X150350000Y-128200000D03*
X149250000Y-128200000D03*
D19*
X153950000Y-139000000D03*
X146050000Y-139000000D03*
D11*
X114818000Y-134880000D03*
X116342000Y-134880000D03*
X114838000Y-136960000D03*
X116362000Y-136960000D03*
X113338000Y-118125000D03*
X114862000Y-118125000D03*
X114887000Y-120525000D03*
X113363000Y-120525000D03*
X120300000Y-110312000D03*
X120300000Y-108788000D03*
X122550000Y-110262000D03*
X122550000Y-108738000D03*
X114887000Y-111575000D03*
X113363000Y-111575000D03*
X114887000Y-113775000D03*
X113363000Y-113775000D03*
D19*
X133950000Y-139000000D03*
X126050000Y-139000000D03*
D20*
X147897540Y-125667660D03*
X149167540Y-125667660D03*
X150432460Y-125667660D03*
X151702460Y-125667660D03*
X151702460Y-119932340D03*
X150432460Y-119932340D03*
X149167540Y-119932340D03*
X147897540Y-119932340D03*
X128097540Y-125667660D03*
X129367540Y-125667660D03*
X130632460Y-125667660D03*
X131902460Y-125667660D03*
X131902460Y-119932340D03*
X130632460Y-119932340D03*
X129367540Y-119932340D03*
X128097540Y-119932340D03*
D21*
X120875000Y-118025000D03*
X121375000Y-118025000D03*
X121875000Y-118025000D03*
X122375000Y-118025000D03*
X122875000Y-118025000D03*
X122875000Y-113725000D03*
X122375000Y-113725000D03*
X121875000Y-113725000D03*
X121375000Y-113725000D03*
X120875000Y-113725000D03*
D11*
X151000000Y-131962000D03*
X151000000Y-130438000D03*
X148750000Y-132012000D03*
X148750000Y-130488000D03*
X128800000Y-132362000D03*
X128800000Y-130838000D03*
D22*
X112950000Y-115900000D03*
X116450000Y-130475000D03*
X119875000Y-133850000D03*
X111925000Y-109300000D03*
D23*
X139010000Y-130310000D03*
D22*
X139050000Y-120775000D03*
D23*
X133950000Y-114240000D03*
X131750000Y-112020000D03*
X161210000Y-118130000D03*
X161070000Y-130450000D03*
X160850000Y-145540000D03*
X139000000Y-145570000D03*
X114575000Y-145700000D03*
D22*
X119900000Y-122150000D03*
X121425000Y-110075000D03*
D23*
X113260000Y-134880000D03*
D22*
X119300000Y-112475000D03*
X117175000Y-126275000D03*
D23*
X135650000Y-117200000D03*
X130300000Y-113350000D03*
D22*
X149225000Y-114825000D03*
X146050000Y-114800000D03*
D24*
X116342000Y-134880000D02*
X116342000Y-134158000D01*
X125660000Y-124840000D02*
X125660000Y-121300000D01*
X116342000Y-134158000D02*
X125660000Y-124840000D01*
X122950000Y-112000000D02*
X122950000Y-112080000D01*
X122950000Y-112080000D02*
X125660000Y-114790000D01*
X125660000Y-114790000D02*
X125660000Y-121300000D01*
X128280000Y-123920000D02*
X133660000Y-123920000D01*
X125660000Y-121300000D02*
X128280000Y-123920000D01*
X109500000Y-139001780D02*
X109500000Y-139150000D01*
X122950000Y-112000000D02*
X122950000Y-112050000D01*
X122950000Y-112000000D02*
X122575000Y-112000000D01*
X121875000Y-112700000D02*
X121875000Y-113725000D01*
X122575000Y-112000000D02*
X121875000Y-112700000D01*
X122550000Y-108738000D02*
X126612000Y-108738000D01*
X128690000Y-106660000D02*
X128690000Y-104770000D01*
X126612000Y-108738000D02*
X128690000Y-106660000D01*
X122950000Y-112000000D02*
X122950000Y-111750000D01*
X122950000Y-111750000D02*
X123950000Y-110750000D01*
X123950000Y-110750000D02*
X123950000Y-110138000D01*
X123950000Y-110138000D02*
X122550000Y-108738000D01*
X120300000Y-108788000D02*
X122500000Y-108788000D01*
X122500000Y-108788000D02*
X122550000Y-108738000D01*
X116362000Y-136960000D02*
X116640000Y-136960000D01*
X116362000Y-136960000D02*
X116362000Y-134900000D01*
X116362000Y-134900000D02*
X116342000Y-134880000D01*
X116342000Y-134880000D02*
X116342000Y-134864000D01*
D25*
X134000000Y-123920000D02*
X133660000Y-123920000D01*
X133650120Y-123920000D02*
X131902460Y-125667660D01*
X133660000Y-123920000D02*
X133650120Y-123920000D01*
X153640000Y-123950000D02*
X153420120Y-123950000D01*
X153420120Y-123950000D02*
X151702460Y-125667660D01*
X134000000Y-123920000D02*
X153610000Y-123920000D01*
X153610000Y-123920000D02*
X153640000Y-123950000D01*
X109500000Y-127001780D02*
X110051780Y-127001780D01*
X116362000Y-134900000D02*
X116342000Y-134880000D01*
X106649110Y-124150890D02*
X106649110Y-136150890D01*
X106649110Y-136150890D02*
X109500000Y-139001780D01*
X108370000Y-104770000D02*
X108370000Y-108905000D01*
X106625000Y-124126780D02*
X106649110Y-124150890D01*
X106649110Y-124150890D02*
X109500000Y-127001780D01*
X106625000Y-110650000D02*
X106625000Y-124126780D01*
X108370000Y-108905000D02*
X106625000Y-110650000D01*
D24*
X112950000Y-115900000D02*
X111910000Y-115900000D01*
X111800000Y-116010000D02*
X107950000Y-116010000D01*
X111910000Y-115900000D02*
X111800000Y-116010000D01*
X107950000Y-116010000D02*
X108040000Y-116010000D01*
X108040000Y-116010000D02*
X107950000Y-116010000D01*
X117925000Y-121025000D02*
X117925000Y-121500000D01*
X117925000Y-121500000D02*
X117375000Y-122050000D01*
X117375000Y-122050000D02*
X109700000Y-122050000D01*
X109700000Y-122050000D02*
X107950000Y-120300000D01*
X107950000Y-120300000D02*
X107950000Y-116010000D01*
X110975000Y-109300000D02*
X111925000Y-109300000D01*
X107950000Y-116010000D02*
X107950000Y-112325000D01*
X107950000Y-112325000D02*
X110975000Y-109300000D01*
X112950000Y-115900000D02*
X112975000Y-115875000D01*
X112975000Y-115875000D02*
X117925000Y-115875000D01*
X119850000Y-140425000D02*
X119850000Y-133875000D01*
X116450000Y-130475000D02*
X116450000Y-130500000D01*
X119850000Y-133875000D02*
X119875000Y-133850000D01*
X118000000Y-110700000D02*
X118000000Y-110600000D01*
X118000000Y-110600000D02*
X116700000Y-109300000D01*
X116700000Y-109300000D02*
X111925000Y-109300000D01*
X117925000Y-116825000D02*
X117925000Y-115875000D01*
X117925000Y-115875000D02*
X117925000Y-114975000D01*
X117925000Y-114975000D02*
X118050000Y-114850000D01*
X124050000Y-112000000D02*
X125800000Y-112000000D01*
X129975000Y-103485000D02*
X131230000Y-102230000D01*
X129975000Y-107825000D02*
X129975000Y-103485000D01*
X125800000Y-112000000D02*
X129975000Y-107825000D01*
X120875000Y-118025000D02*
X120875000Y-120150000D01*
X120875000Y-120150000D02*
X120900000Y-120125000D01*
X120900000Y-120125000D02*
X120900000Y-120100000D01*
X120900000Y-120100000D02*
X120900000Y-120125000D01*
X121375000Y-118025000D02*
X121375000Y-119325000D01*
X121375000Y-119325000D02*
X121537500Y-119487500D01*
X117925000Y-121025000D02*
X120000000Y-121025000D01*
X121875000Y-119150000D02*
X121875000Y-118025000D01*
X120000000Y-121025000D02*
X120900000Y-120125000D01*
X120900000Y-120125000D02*
X121537500Y-119487500D01*
X121537500Y-119487500D02*
X121875000Y-119150000D01*
X132910000Y-145700000D02*
X138870000Y-145700000D01*
X157560000Y-114480000D02*
X156630000Y-114480000D01*
X161210000Y-118130000D02*
X157560000Y-114480000D01*
X161070000Y-145320000D02*
X161070000Y-130450000D01*
X160850000Y-145540000D02*
X161070000Y-145320000D01*
X138870000Y-145700000D02*
X139000000Y-145570000D01*
X114575000Y-145700000D02*
X132910000Y-145700000D01*
X132910000Y-145700000D02*
X133030000Y-145700000D01*
X136070000Y-127090000D02*
X134000000Y-125020000D01*
X136070000Y-142660000D02*
X136070000Y-127090000D01*
X133030000Y-145700000D02*
X136070000Y-142660000D01*
X156630000Y-104770000D02*
X156630000Y-114480000D01*
X156630000Y-114480000D02*
X156630000Y-123670000D01*
X155250000Y-125050000D02*
X153640000Y-125050000D01*
X156630000Y-123670000D02*
X155250000Y-125050000D01*
X134000000Y-125020000D02*
X147249880Y-125020000D01*
X147249880Y-125020000D02*
X147897540Y-125667660D01*
X126000000Y-127765200D02*
X128097540Y-125667660D01*
X126000000Y-134275000D02*
X126000000Y-127765200D01*
X114575000Y-145700000D02*
X119850000Y-140425000D01*
X119850000Y-140425000D02*
X126000000Y-134275000D01*
X118530000Y-104770000D02*
X118530000Y-104745000D01*
X118530000Y-104745000D02*
X119775000Y-103500000D01*
X119775000Y-103500000D02*
X122340000Y-103500000D01*
X122340000Y-103500000D02*
X123610000Y-102230000D01*
X113450000Y-102230000D02*
X113580000Y-102230000D01*
X113580000Y-102230000D02*
X114800000Y-103450000D01*
X117210000Y-103450000D02*
X118530000Y-104770000D01*
X114800000Y-103450000D02*
X117210000Y-103450000D01*
X113450000Y-102230000D02*
X113450000Y-102425000D01*
D26*
X114887000Y-120525000D02*
X115525000Y-120525000D01*
X116025000Y-121025000D02*
X116825000Y-121025000D01*
X115525000Y-120525000D02*
X116025000Y-121025000D01*
X114887000Y-120525000D02*
X114887000Y-118150000D01*
X114887000Y-118150000D02*
X114862000Y-118125000D01*
X116825000Y-121025000D02*
X116825000Y-120575000D01*
X116825000Y-120575000D02*
X117925000Y-119475000D01*
X117925000Y-119475000D02*
X117925000Y-118950000D01*
X117925000Y-118950000D02*
X118675000Y-118950000D01*
X122375000Y-117000000D02*
X122375000Y-118025000D01*
X122125000Y-116750000D02*
X122375000Y-117000000D01*
X120875000Y-116750000D02*
X122125000Y-116750000D01*
X118675000Y-118950000D02*
X120875000Y-116750000D01*
X116825000Y-118950000D02*
X116400000Y-118950000D01*
X115975000Y-117675000D02*
X115300000Y-117000000D01*
X115975000Y-118525000D02*
X115975000Y-117675000D01*
X116400000Y-118950000D02*
X115975000Y-118525000D01*
X113338000Y-118125000D02*
X113338000Y-118012000D01*
X113338000Y-118012000D02*
X114350000Y-117000000D01*
X114350000Y-117000000D02*
X115300000Y-117000000D01*
X115300000Y-117000000D02*
X116650000Y-117000000D01*
X116650000Y-117000000D02*
X116825000Y-116825000D01*
X116825000Y-118950000D02*
X116825000Y-118875000D01*
X116825000Y-118875000D02*
X117875000Y-117825000D01*
X117875000Y-117825000D02*
X118650000Y-117825000D01*
X118650000Y-117825000D02*
X120250000Y-116225000D01*
X120250000Y-116225000D02*
X122525000Y-116225000D01*
X122525000Y-116225000D02*
X122875000Y-116575000D01*
X122875000Y-116575000D02*
X122875000Y-118025000D01*
X109500000Y-116998220D02*
X110598220Y-116998220D01*
X111725000Y-118125000D02*
X113338000Y-118125000D01*
X110598220Y-116998220D02*
X111725000Y-118125000D01*
X130550000Y-128400000D02*
X130550000Y-125750120D01*
X130550000Y-125750120D02*
X130632460Y-125667660D01*
X131200000Y-130500000D02*
X131200000Y-129050000D01*
X131200000Y-129050000D02*
X130550000Y-128400000D01*
X129367540Y-125667660D02*
X129367540Y-128317540D01*
X129367540Y-128317540D02*
X129450000Y-128400000D01*
X128800000Y-130500000D02*
X128800000Y-129050000D01*
X128800000Y-129050000D02*
X129450000Y-128400000D01*
X118050000Y-112650000D02*
X118050000Y-112425000D01*
X118050000Y-112425000D02*
X116900000Y-111275000D01*
X116900000Y-111275000D02*
X116900000Y-110700000D01*
X118050000Y-112650000D02*
X118225000Y-112650000D01*
X118225000Y-112650000D02*
X120450000Y-114875000D01*
X120450000Y-114875000D02*
X122250000Y-114875000D01*
X122250000Y-114875000D02*
X122375000Y-114750000D01*
X122375000Y-114750000D02*
X122375000Y-113725000D01*
X113363000Y-111575000D02*
X113363000Y-111487000D01*
X113363000Y-111487000D02*
X114150000Y-110700000D01*
X114150000Y-110700000D02*
X116900000Y-110700000D01*
X109500000Y-113000260D02*
X110699740Y-113000260D01*
X112125000Y-111575000D02*
X113363000Y-111575000D01*
X110699740Y-113000260D02*
X112125000Y-111575000D01*
X114887000Y-111575000D02*
X114887000Y-113775000D01*
X116950000Y-112650000D02*
X116950000Y-112725000D01*
X116950000Y-112725000D02*
X118025000Y-113800000D01*
X122875000Y-115100000D02*
X122875000Y-113725000D01*
X122525000Y-115450000D02*
X122875000Y-115100000D01*
X120125000Y-115450000D02*
X122525000Y-115450000D01*
X118475000Y-113800000D02*
X120125000Y-115450000D01*
X118025000Y-113800000D02*
X118475000Y-113800000D01*
X115825000Y-113775000D02*
X115875000Y-113775000D01*
X115875000Y-113775000D02*
X116950000Y-114850000D01*
X114887000Y-113775000D02*
X115825000Y-113775000D01*
X115825000Y-113775000D02*
X116950000Y-112650000D01*
X150350000Y-128200000D02*
X150350000Y-125750120D01*
X150350000Y-125750120D02*
X150432460Y-125667660D01*
X151000000Y-130100000D02*
X151000000Y-128850000D01*
X151000000Y-128850000D02*
X150350000Y-128200000D01*
X149250000Y-128200000D02*
X149250000Y-125750120D01*
X149250000Y-125750120D02*
X149167540Y-125667660D01*
X148750000Y-130150000D02*
X148750000Y-128700000D01*
X148750000Y-128700000D02*
X149250000Y-128200000D01*
X133950000Y-139000000D02*
X133950000Y-135450000D01*
X133950000Y-135450000D02*
X131200000Y-132700000D01*
X126050000Y-139000000D02*
X126050000Y-135450000D01*
X126050000Y-135450000D02*
X128800000Y-132700000D01*
X153950000Y-139000000D02*
X153950000Y-135250000D01*
X153950000Y-135250000D02*
X151000000Y-132300000D01*
X146050000Y-139000000D02*
X146050000Y-135050000D01*
X146050000Y-135050000D02*
X148750000Y-132350000D01*
X115273220Y-123225000D02*
X109500000Y-128998220D01*
X118825000Y-123225000D02*
X115273220Y-123225000D01*
X119900000Y-122150000D02*
X118825000Y-123225000D01*
X121425000Y-110075000D02*
X122363000Y-110075000D01*
X122363000Y-110075000D02*
X122550000Y-110262000D01*
X121375000Y-110125000D02*
X121375000Y-113725000D01*
X121425000Y-110075000D02*
X121375000Y-110125000D01*
X122550000Y-110262000D02*
X122550000Y-110500000D01*
X114818000Y-134864000D02*
X114818000Y-134880000D01*
X114818000Y-134880000D02*
X113260000Y-134880000D01*
X109500000Y-130999740D02*
X112450260Y-130999740D01*
X120387500Y-111537500D02*
X120300000Y-111537500D01*
X120237500Y-111537500D02*
X120387500Y-111537500D01*
X119300000Y-112475000D02*
X120237500Y-111537500D01*
X112450260Y-130999740D02*
X117175000Y-126275000D01*
X120300000Y-110312000D02*
X120300000Y-111425000D01*
X120300000Y-111425000D02*
X120300000Y-111537500D01*
X120300000Y-111537500D02*
X120300000Y-111450000D01*
X120875000Y-112025000D02*
X120875000Y-113725000D01*
X120300000Y-111450000D02*
X120875000Y-112025000D01*
X113450000Y-104770000D02*
X113450000Y-104925000D01*
X113450000Y-104925000D02*
X117875000Y-109350000D01*
X119338000Y-109350000D02*
X120300000Y-110312000D01*
X117875000Y-109350000D02*
X119338000Y-109350000D01*
X113450000Y-104770000D02*
X113610000Y-104770000D01*
X113890000Y-136960000D02*
X113880000Y-136960000D01*
X112110000Y-133609740D02*
X109500000Y-130999740D01*
X112110000Y-135190000D02*
X112110000Y-133609740D01*
X113880000Y-136960000D02*
X112110000Y-135190000D01*
X114838000Y-136960000D02*
X113890000Y-136960000D01*
X112020000Y-140479740D02*
X109500000Y-142999740D01*
X112020000Y-138830000D02*
X112020000Y-140479740D01*
X113890000Y-136960000D02*
X112020000Y-138830000D01*
X109500000Y-142999740D02*
X109860260Y-142999740D01*
X129367540Y-112550000D02*
X129500000Y-112550000D01*
X149167540Y-118167540D02*
X149167540Y-119932340D01*
X148350000Y-117350000D02*
X149167540Y-118167540D01*
X135800000Y-117350000D02*
X148350000Y-117350000D01*
X135650000Y-117200000D02*
X135800000Y-117350000D01*
X129500000Y-112550000D02*
X130300000Y-113350000D01*
X133770000Y-104770000D02*
X133770000Y-108130000D01*
X129367540Y-112532460D02*
X129367540Y-112550000D01*
X129367540Y-112550000D02*
X129367540Y-119932340D01*
X133770000Y-108130000D02*
X129367540Y-112532460D01*
X129300000Y-119864800D02*
X129367540Y-119932340D01*
X136310000Y-113925000D02*
X136350000Y-113925000D01*
X151702460Y-117302460D02*
X151702460Y-119932340D01*
X149225000Y-114825000D02*
X151702460Y-117302460D01*
X137225000Y-114800000D02*
X146050000Y-114800000D01*
X136350000Y-113925000D02*
X137225000Y-114800000D01*
X136310000Y-104770000D02*
X136310000Y-113925000D01*
X136310000Y-113925000D02*
X136310000Y-113940000D01*
X131902460Y-118347540D02*
X131902460Y-119932340D01*
X136310000Y-113940000D02*
X131902460Y-118347540D01*
X136310000Y-102230000D02*
X136310000Y-102490000D01*
X136310000Y-102490000D02*
X135050000Y-103750000D01*
X130632460Y-115067540D02*
X130632460Y-119932340D01*
X135050000Y-110650000D02*
X130632460Y-115067540D01*
X135050000Y-103750000D02*
X135050000Y-110650000D01*
X136310000Y-102230000D02*
X136070000Y-102230000D01*
X136310000Y-102230000D02*
X136310000Y-102510000D01*
X138850000Y-102230000D02*
X138850000Y-102300000D01*
X138850000Y-102300000D02*
X140150000Y-103600000D01*
X150432460Y-117682460D02*
X150432460Y-119932340D01*
X140150000Y-107400000D02*
X150432460Y-117682460D01*
X140150000Y-103600000D02*
X140150000Y-107400000D01*
X138850000Y-102230000D02*
X139030000Y-102230000D01*
X138850000Y-102230000D02*
X138850000Y-102450000D01*
X138850000Y-102230000D02*
X138930000Y-102230000D01*
X109500000Y-118999740D02*
X110474740Y-118999740D01*
X112000000Y-120525000D02*
X113363000Y-120525000D01*
X110474740Y-118999740D02*
X112000000Y-120525000D01*
X109500000Y-115001780D02*
X110823220Y-115001780D01*
X112050000Y-113775000D02*
X113363000Y-113775000D01*
X110823220Y-115001780D02*
X112050000Y-113775000D01*
D27*
G36*
X159726485Y-100840727D02*
X158843826Y-101721847D01*
X158365546Y-102873674D01*
X158364457Y-104120854D01*
X158840727Y-105273515D01*
X159721847Y-106156174D01*
X160873674Y-106634454D01*
X162120854Y-106635543D01*
X163273515Y-106159273D01*
X164156174Y-105278153D01*
X164290000Y-104955864D01*
X164290000Y-151042868D01*
X164159273Y-150726485D01*
X163278153Y-149843826D01*
X162126326Y-149365546D01*
X160879146Y-149364457D01*
X159726485Y-149840727D01*
X158843826Y-150721847D01*
X158365546Y-151873674D01*
X158364457Y-153120854D01*
X158840727Y-154273515D01*
X159721847Y-155156174D01*
X160044136Y-155290000D01*
X104957132Y-155290000D01*
X105273515Y-155159273D01*
X106156174Y-154278153D01*
X106634454Y-153126326D01*
X106635543Y-151879146D01*
X106159273Y-150726485D01*
X105278153Y-149843826D01*
X104770926Y-149633207D01*
X128064665Y-149633207D01*
X128358630Y-150344658D01*
X128902479Y-150889457D01*
X129613416Y-151184663D01*
X130383207Y-151185335D01*
X131094658Y-150891370D01*
X131639457Y-150347521D01*
X131934663Y-149636584D01*
X131934665Y-149633207D01*
X148064665Y-149633207D01*
X148358630Y-150344658D01*
X148902479Y-150889457D01*
X149613416Y-151184663D01*
X150383207Y-151185335D01*
X151094658Y-150891370D01*
X151639457Y-150347521D01*
X151934663Y-149636584D01*
X151935335Y-148866793D01*
X151641370Y-148155342D01*
X151097521Y-147610543D01*
X150386584Y-147315337D01*
X149616793Y-147314665D01*
X148905342Y-147608630D01*
X148360543Y-148152479D01*
X148065337Y-148863416D01*
X148064665Y-149633207D01*
X131934665Y-149633207D01*
X131935335Y-148866793D01*
X131641370Y-148155342D01*
X131097521Y-147610543D01*
X130386584Y-147315337D01*
X129616793Y-147314665D01*
X128905342Y-147608630D01*
X128360543Y-148152479D01*
X128065337Y-148863416D01*
X128064665Y-149633207D01*
X104770926Y-149633207D01*
X104126326Y-149365546D01*
X102879146Y-149364457D01*
X101726485Y-149840727D01*
X100843826Y-150721847D01*
X100710000Y-151044136D01*
X100710000Y-110650000D01*
X105815000Y-110650000D01*
X105815000Y-124126780D01*
X105839110Y-124247988D01*
X105839110Y-136150890D01*
X105900768Y-136460864D01*
X105937275Y-136515500D01*
X106076354Y-136723646D01*
X108230108Y-138877401D01*
X108229780Y-139253290D01*
X108422718Y-139720238D01*
X108702167Y-140000175D01*
X108423974Y-140277883D01*
X108230221Y-140744493D01*
X108229780Y-141249730D01*
X108422718Y-141716678D01*
X108530957Y-141825106D01*
X108413559Y-141900650D01*
X108268569Y-142112850D01*
X108217560Y-142364740D01*
X108217560Y-143634740D01*
X108261838Y-143870057D01*
X108400910Y-144086181D01*
X108613110Y-144231171D01*
X108865000Y-144282180D01*
X110135000Y-144282180D01*
X110370317Y-144237902D01*
X110586441Y-144098830D01*
X110731431Y-143886630D01*
X110782440Y-143634740D01*
X110782440Y-142792102D01*
X112557401Y-141017141D01*
X112722148Y-140770580D01*
X112780000Y-140479740D01*
X112780000Y-139144802D01*
X114012255Y-137912547D01*
X114141610Y-138000931D01*
X114393500Y-138051940D01*
X115282500Y-138051940D01*
X115517817Y-138007662D01*
X115599003Y-137955420D01*
X115665610Y-138000931D01*
X115917500Y-138051940D01*
X116806500Y-138051940D01*
X117041817Y-138007662D01*
X117257941Y-137868590D01*
X117402931Y-137656390D01*
X117453940Y-137404500D01*
X117453940Y-136515500D01*
X117409662Y-136280183D01*
X117270590Y-136064059D01*
X117147000Y-135979614D01*
X117147000Y-135847109D01*
X117237941Y-135788590D01*
X117382931Y-135576390D01*
X117433940Y-135324500D01*
X117433940Y-134435500D01*
X117392879Y-134217279D01*
X125656748Y-125953410D01*
X127063760Y-125953410D01*
X127063760Y-126893790D01*
X127160433Y-127127179D01*
X127339062Y-127305807D01*
X127572451Y-127402480D01*
X127811790Y-127402480D01*
X127970540Y-127243730D01*
X127970540Y-125794660D01*
X127222510Y-125794660D01*
X127063760Y-125953410D01*
X125656748Y-125953410D01*
X126215079Y-125395079D01*
X126385245Y-125140407D01*
X126445000Y-124840000D01*
X126445000Y-123195157D01*
X127309209Y-124059366D01*
X127160433Y-124208141D01*
X127063760Y-124441530D01*
X127063760Y-125381910D01*
X127222510Y-125540660D01*
X127970540Y-125540660D01*
X127970540Y-125520660D01*
X128224540Y-125520660D01*
X128224540Y-125540660D01*
X128244540Y-125540660D01*
X128244540Y-125794660D01*
X128224540Y-125794660D01*
X128224540Y-127243730D01*
X128383290Y-127402480D01*
X128607540Y-127402480D01*
X128607540Y-127819121D01*
X128553569Y-127898110D01*
X128502560Y-128150000D01*
X128502560Y-128272638D01*
X128262599Y-128512599D01*
X128097852Y-128759161D01*
X128040000Y-129050000D01*
X128040000Y-129841934D01*
X127904059Y-129929410D01*
X127759069Y-130141610D01*
X127708060Y-130393500D01*
X127708060Y-131282500D01*
X127752338Y-131517817D01*
X127804580Y-131599003D01*
X127759069Y-131665610D01*
X127708060Y-131917500D01*
X127708060Y-132717138D01*
X125512599Y-134912599D01*
X125347852Y-135159161D01*
X125290000Y-135450000D01*
X125290000Y-137328552D01*
X125011914Y-137443455D01*
X124495270Y-137959199D01*
X124215319Y-138633395D01*
X124214682Y-139363403D01*
X124493455Y-140038086D01*
X125009199Y-140554730D01*
X125683395Y-140834681D01*
X126413403Y-140835318D01*
X127088086Y-140556545D01*
X127604730Y-140040801D01*
X127884681Y-139366605D01*
X127885318Y-138636597D01*
X127606545Y-137961914D01*
X127090801Y-137445270D01*
X126810000Y-137328671D01*
X126810000Y-135764802D01*
X129120862Y-133453940D01*
X129244500Y-133453940D01*
X129479817Y-133409662D01*
X129695941Y-133270590D01*
X129840931Y-133058390D01*
X129891940Y-132806500D01*
X129891940Y-131917500D01*
X129847662Y-131682183D01*
X129795420Y-131600997D01*
X129840931Y-131534390D01*
X129891940Y-131282500D01*
X129891940Y-130393500D01*
X129847662Y-130158183D01*
X129708590Y-129942059D01*
X129560000Y-129840532D01*
X129560000Y-129364802D01*
X129627362Y-129297440D01*
X129750000Y-129297440D01*
X129985317Y-129253162D01*
X129996979Y-129245658D01*
X129998110Y-129246431D01*
X130250000Y-129297440D01*
X130372638Y-129297440D01*
X130440000Y-129364802D01*
X130440000Y-129841934D01*
X130304059Y-129929410D01*
X130159069Y-130141610D01*
X130108060Y-130393500D01*
X130108060Y-131282500D01*
X130152338Y-131517817D01*
X130204580Y-131599003D01*
X130159069Y-131665610D01*
X130108060Y-131917500D01*
X130108060Y-132806500D01*
X130152338Y-133041817D01*
X130291410Y-133257941D01*
X130503610Y-133402931D01*
X130755500Y-133453940D01*
X130879138Y-133453940D01*
X133190000Y-135764802D01*
X133190000Y-137328552D01*
X132911914Y-137443455D01*
X132395270Y-137959199D01*
X132115319Y-138633395D01*
X132114682Y-139363403D01*
X132393455Y-140038086D01*
X132909199Y-140554730D01*
X133583395Y-140834681D01*
X134313403Y-140835318D01*
X134988086Y-140556545D01*
X135504730Y-140040801D01*
X135784681Y-139366605D01*
X135785318Y-138636597D01*
X135506545Y-137961914D01*
X134990801Y-137445270D01*
X134710000Y-137328671D01*
X134710000Y-135450000D01*
X134703516Y-135417401D01*
X134652148Y-135159160D01*
X134487401Y-134912599D01*
X132291940Y-132717138D01*
X132291940Y-131917500D01*
X132247662Y-131682183D01*
X132195420Y-131600997D01*
X132240931Y-131534390D01*
X132291940Y-131282500D01*
X132291940Y-130393500D01*
X132247662Y-130158183D01*
X132108590Y-129942059D01*
X131960000Y-129840532D01*
X131960000Y-129050000D01*
X131902148Y-128759161D01*
X131737401Y-128512599D01*
X131497440Y-128272638D01*
X131497440Y-128150000D01*
X131453162Y-127914683D01*
X131314090Y-127698559D01*
X131310000Y-127695764D01*
X131310000Y-127375699D01*
X131503680Y-127414920D01*
X132301240Y-127414920D01*
X132536557Y-127370642D01*
X132752681Y-127231570D01*
X132897671Y-127019370D01*
X132948680Y-126767480D01*
X132948680Y-125766952D01*
X133160200Y-125555432D01*
X133211673Y-125679698D01*
X133390301Y-125858327D01*
X133623690Y-125955000D01*
X133716250Y-125955000D01*
X133875000Y-125796250D01*
X133875000Y-125147000D01*
X134125000Y-125147000D01*
X134125000Y-125796250D01*
X134283750Y-125955000D01*
X134376310Y-125955000D01*
X134380148Y-125953410D01*
X146863760Y-125953410D01*
X146863760Y-126893790D01*
X146960433Y-127127179D01*
X147139062Y-127305807D01*
X147372451Y-127402480D01*
X147611790Y-127402480D01*
X147770540Y-127243730D01*
X147770540Y-125794660D01*
X147022510Y-125794660D01*
X146863760Y-125953410D01*
X134380148Y-125953410D01*
X134609699Y-125858327D01*
X134788327Y-125679698D01*
X134885000Y-125446309D01*
X134885000Y-125305750D01*
X134726250Y-125147000D01*
X134125000Y-125147000D01*
X133875000Y-125147000D01*
X133853000Y-125147000D01*
X133853000Y-124893000D01*
X133875000Y-124893000D01*
X133875000Y-124873000D01*
X134125000Y-124873000D01*
X134125000Y-124893000D01*
X134726250Y-124893000D01*
X134885000Y-124734250D01*
X134885000Y-124730000D01*
X146863760Y-124730000D01*
X146863760Y-125381910D01*
X147022510Y-125540660D01*
X147770540Y-125540660D01*
X147770540Y-125520660D01*
X148024540Y-125520660D01*
X148024540Y-125540660D01*
X148044540Y-125540660D01*
X148044540Y-125794660D01*
X148024540Y-125794660D01*
X148024540Y-127243730D01*
X148183290Y-127402480D01*
X148422629Y-127402480D01*
X148490000Y-127374574D01*
X148490000Y-127498437D01*
X148353569Y-127698110D01*
X148302560Y-127950000D01*
X148302560Y-128072638D01*
X148212599Y-128162599D01*
X148047852Y-128409161D01*
X147990000Y-128700000D01*
X147990000Y-129491934D01*
X147854059Y-129579410D01*
X147709069Y-129791610D01*
X147658060Y-130043500D01*
X147658060Y-130932500D01*
X147702338Y-131167817D01*
X147754580Y-131249003D01*
X147709069Y-131315610D01*
X147658060Y-131567500D01*
X147658060Y-132367138D01*
X145512599Y-134512599D01*
X145347852Y-134759161D01*
X145290000Y-135050000D01*
X145290000Y-137328552D01*
X145011914Y-137443455D01*
X144495270Y-137959199D01*
X144215319Y-138633395D01*
X144214682Y-139363403D01*
X144493455Y-140038086D01*
X145009199Y-140554730D01*
X145683395Y-140834681D01*
X146413403Y-140835318D01*
X147088086Y-140556545D01*
X147604730Y-140040801D01*
X147884681Y-139366605D01*
X147885318Y-138636597D01*
X147606545Y-137961914D01*
X147090801Y-137445270D01*
X146810000Y-137328671D01*
X146810000Y-135364802D01*
X149070862Y-133103940D01*
X149194500Y-133103940D01*
X149429817Y-133059662D01*
X149645941Y-132920590D01*
X149790931Y-132708390D01*
X149841940Y-132456500D01*
X149841940Y-131567500D01*
X149797662Y-131332183D01*
X149745420Y-131250997D01*
X149790931Y-131184390D01*
X149841940Y-130932500D01*
X149841940Y-130043500D01*
X149797662Y-129808183D01*
X149658590Y-129592059D01*
X149510000Y-129490532D01*
X149510000Y-129097440D01*
X149550000Y-129097440D01*
X149785317Y-129053162D01*
X149796979Y-129045658D01*
X149798110Y-129046431D01*
X150050000Y-129097440D01*
X150172638Y-129097440D01*
X150240000Y-129164802D01*
X150240000Y-129441934D01*
X150104059Y-129529410D01*
X149959069Y-129741610D01*
X149908060Y-129993500D01*
X149908060Y-130882500D01*
X149952338Y-131117817D01*
X150004580Y-131199003D01*
X149959069Y-131265610D01*
X149908060Y-131517500D01*
X149908060Y-132406500D01*
X149952338Y-132641817D01*
X150091410Y-132857941D01*
X150303610Y-133002931D01*
X150555500Y-133053940D01*
X150679138Y-133053940D01*
X153190000Y-135564802D01*
X153190000Y-137328552D01*
X152911914Y-137443455D01*
X152395270Y-137959199D01*
X152115319Y-138633395D01*
X152114682Y-139363403D01*
X152393455Y-140038086D01*
X152909199Y-140554730D01*
X153583395Y-140834681D01*
X154313403Y-140835318D01*
X154988086Y-140556545D01*
X155504730Y-140040801D01*
X155784681Y-139366605D01*
X155785318Y-138636597D01*
X155506545Y-137961914D01*
X154990801Y-137445270D01*
X154710000Y-137328671D01*
X154710000Y-135250000D01*
X154652148Y-134959161D01*
X154487401Y-134712599D01*
X152091940Y-132317138D01*
X152091940Y-131517500D01*
X152047662Y-131282183D01*
X151995420Y-131200997D01*
X152040931Y-131134390D01*
X152091940Y-130882500D01*
X152091940Y-129993500D01*
X152047662Y-129758183D01*
X151908590Y-129542059D01*
X151760000Y-129440532D01*
X151760000Y-128850000D01*
X151702148Y-128559161D01*
X151537401Y-128312599D01*
X151297440Y-128072638D01*
X151297440Y-127950000D01*
X151253162Y-127714683D01*
X151114090Y-127498559D01*
X151110000Y-127495764D01*
X151110000Y-127375699D01*
X151303680Y-127414920D01*
X152101240Y-127414920D01*
X152336557Y-127370642D01*
X152552681Y-127231570D01*
X152697671Y-127019370D01*
X152748680Y-126767480D01*
X152748680Y-125766952D01*
X152838276Y-125677356D01*
X152851673Y-125709698D01*
X153030301Y-125888327D01*
X153263690Y-125985000D01*
X153356250Y-125985000D01*
X153515000Y-125826250D01*
X153515000Y-125177000D01*
X153765000Y-125177000D01*
X153765000Y-125826250D01*
X153923750Y-125985000D01*
X154016310Y-125985000D01*
X154249699Y-125888327D01*
X154428327Y-125709698D01*
X154525000Y-125476309D01*
X154525000Y-125335750D01*
X154366250Y-125177000D01*
X153765000Y-125177000D01*
X153515000Y-125177000D01*
X153493000Y-125177000D01*
X153493000Y-125022633D01*
X153612633Y-124903000D01*
X153765000Y-124903000D01*
X153765000Y-124923000D01*
X154366250Y-124923000D01*
X154525000Y-124764250D01*
X154525000Y-124623691D01*
X154479033Y-124512717D01*
X154486431Y-124501890D01*
X154537440Y-124250000D01*
X154537440Y-123650000D01*
X154493162Y-123414683D01*
X154354090Y-123198559D01*
X154141890Y-123053569D01*
X153890000Y-123002560D01*
X153390000Y-123002560D01*
X153154683Y-123046838D01*
X153056526Y-123110000D01*
X134628386Y-123110000D01*
X134501890Y-123023569D01*
X134250000Y-122972560D01*
X133750000Y-122972560D01*
X133514683Y-123016838D01*
X133331054Y-123135000D01*
X128605157Y-123135000D01*
X126445000Y-120974842D01*
X126445000Y-114790000D01*
X126385245Y-114489594D01*
X126215079Y-114234921D01*
X124739092Y-112758934D01*
X124888327Y-112609699D01*
X124985000Y-112376310D01*
X124985000Y-112283750D01*
X124826250Y-112125000D01*
X124177000Y-112125000D01*
X124177000Y-112147000D01*
X124127158Y-112147000D01*
X123903000Y-111922842D01*
X123903000Y-111907158D01*
X123957158Y-111853000D01*
X124177000Y-111853000D01*
X124177000Y-111875000D01*
X124826250Y-111875000D01*
X124985000Y-111716250D01*
X124985000Y-111623690D01*
X124888327Y-111390301D01*
X124709698Y-111211673D01*
X124598317Y-111165537D01*
X124675245Y-111050406D01*
X124735001Y-110750000D01*
X124735000Y-110749995D01*
X124735000Y-110138000D01*
X124695615Y-109940000D01*
X124675245Y-109837593D01*
X124505079Y-109582921D01*
X124445158Y-109523000D01*
X126612000Y-109523000D01*
X126912407Y-109463245D01*
X127167079Y-109293079D01*
X129245079Y-107215079D01*
X129415245Y-106960406D01*
X129475000Y-106660000D01*
X129475000Y-106026250D01*
X129740054Y-105849147D01*
X129960000Y-105519974D01*
X130179946Y-105849147D01*
X130661715Y-106171054D01*
X131230000Y-106284093D01*
X131798285Y-106171054D01*
X132280054Y-105849147D01*
X132500000Y-105519974D01*
X132719946Y-105849147D01*
X133010000Y-106042954D01*
X133010000Y-107815198D01*
X128830139Y-111995059D01*
X128665392Y-112241621D01*
X128607540Y-112532460D01*
X128607540Y-118207603D01*
X128496320Y-118185080D01*
X127698760Y-118185080D01*
X127463443Y-118229358D01*
X127247319Y-118368430D01*
X127102329Y-118580630D01*
X127051320Y-118832520D01*
X127051320Y-121032160D01*
X127095598Y-121267477D01*
X127234670Y-121483601D01*
X127446870Y-121628591D01*
X127698760Y-121679600D01*
X128496320Y-121679600D01*
X128731637Y-121635322D01*
X128736059Y-121632477D01*
X128968760Y-121679600D01*
X129766320Y-121679600D01*
X130001637Y-121635322D01*
X130004843Y-121633259D01*
X130233680Y-121679600D01*
X131031240Y-121679600D01*
X131266557Y-121635322D01*
X131270979Y-121632477D01*
X131503680Y-121679600D01*
X132301240Y-121679600D01*
X132536557Y-121635322D01*
X132752681Y-121496250D01*
X132897671Y-121284050D01*
X132948680Y-121032160D01*
X132948680Y-118832520D01*
X132904402Y-118597203D01*
X132835177Y-118489625D01*
X136337500Y-114987302D01*
X136687599Y-115337401D01*
X136934161Y-115502148D01*
X137225000Y-115560000D01*
X145572527Y-115560000D01*
X145873190Y-115684846D01*
X146225265Y-115685153D01*
X146550657Y-115550704D01*
X146799829Y-115301967D01*
X146851860Y-115176662D01*
X148265198Y-116590000D01*
X136362201Y-116590000D01*
X136180327Y-116407808D01*
X135836799Y-116265162D01*
X135464833Y-116264838D01*
X135121057Y-116406883D01*
X134857808Y-116669673D01*
X134715162Y-117013201D01*
X134714838Y-117385167D01*
X134856883Y-117728943D01*
X135119673Y-117992192D01*
X135463201Y-118134838D01*
X135835167Y-118135162D01*
X135896064Y-118110000D01*
X148035198Y-118110000D01*
X148110278Y-118185080D01*
X147498760Y-118185080D01*
X147263443Y-118229358D01*
X147047319Y-118368430D01*
X146902329Y-118580630D01*
X146851320Y-118832520D01*
X146851320Y-121032160D01*
X146895598Y-121267477D01*
X147034670Y-121483601D01*
X147246870Y-121628591D01*
X147498760Y-121679600D01*
X148296320Y-121679600D01*
X148531637Y-121635322D01*
X148536059Y-121632477D01*
X148768760Y-121679600D01*
X149566320Y-121679600D01*
X149801637Y-121635322D01*
X149804843Y-121633259D01*
X150033680Y-121679600D01*
X150831240Y-121679600D01*
X151066557Y-121635322D01*
X151070979Y-121632477D01*
X151303680Y-121679600D01*
X152101240Y-121679600D01*
X152336557Y-121635322D01*
X152552681Y-121496250D01*
X152697671Y-121284050D01*
X152748680Y-121032160D01*
X152748680Y-118832520D01*
X152704402Y-118597203D01*
X152565330Y-118381079D01*
X152462460Y-118310791D01*
X152462460Y-117302460D01*
X152404608Y-117011621D01*
X152239861Y-116765059D01*
X150100025Y-114625223D01*
X149975704Y-114324343D01*
X149726967Y-114075171D01*
X149401810Y-113940154D01*
X149049735Y-113939847D01*
X148724343Y-114074296D01*
X148475171Y-114323033D01*
X148379129Y-114554327D01*
X140910000Y-107085198D01*
X140910000Y-106188615D01*
X141390000Y-106284093D01*
X141958285Y-106171054D01*
X142440054Y-105849147D01*
X142660000Y-105519974D01*
X142879946Y-105849147D01*
X143361715Y-106171054D01*
X143930000Y-106284093D01*
X144498285Y-106171054D01*
X144980054Y-105849147D01*
X145200000Y-105519974D01*
X145419946Y-105849147D01*
X145901715Y-106171054D01*
X146470000Y-106284093D01*
X147038285Y-106171054D01*
X147520054Y-105849147D01*
X147740000Y-105519974D01*
X147959946Y-105849147D01*
X148441715Y-106171054D01*
X149010000Y-106284093D01*
X149578285Y-106171054D01*
X150060054Y-105849147D01*
X150280000Y-105519974D01*
X150499946Y-105849147D01*
X150981715Y-106171054D01*
X151550000Y-106284093D01*
X152118285Y-106171054D01*
X152600054Y-105849147D01*
X152820000Y-105519974D01*
X153039946Y-105849147D01*
X153521715Y-106171054D01*
X154090000Y-106284093D01*
X154658285Y-106171054D01*
X155140054Y-105849147D01*
X155367702Y-105508447D01*
X155434817Y-105651358D01*
X155863076Y-106041645D01*
X156273110Y-106211476D01*
X156503000Y-106090155D01*
X156503000Y-104897000D01*
X156757000Y-104897000D01*
X156757000Y-106090155D01*
X156986890Y-106211476D01*
X157396924Y-106041645D01*
X157825183Y-105651358D01*
X158071486Y-105126892D01*
X157950819Y-104897000D01*
X156757000Y-104897000D01*
X156503000Y-104897000D01*
X156483000Y-104897000D01*
X156483000Y-104643000D01*
X156503000Y-104643000D01*
X156503000Y-104623000D01*
X156757000Y-104623000D01*
X156757000Y-104643000D01*
X157950819Y-104643000D01*
X158071486Y-104413108D01*
X157825183Y-103888642D01*
X157396924Y-103498355D01*
X157396899Y-103498345D01*
X157680054Y-103309147D01*
X158001961Y-102827378D01*
X158115000Y-102259093D01*
X158115000Y-102200907D01*
X158001961Y-101632622D01*
X157680054Y-101150853D01*
X157198285Y-100828946D01*
X156630000Y-100715907D01*
X156061715Y-100828946D01*
X155579946Y-101150853D01*
X155360000Y-101480026D01*
X155140054Y-101150853D01*
X154658285Y-100828946D01*
X154090000Y-100715907D01*
X153521715Y-100828946D01*
X153039946Y-101150853D01*
X152820000Y-101480026D01*
X152600054Y-101150853D01*
X152118285Y-100828946D01*
X151550000Y-100715907D01*
X150981715Y-100828946D01*
X150499946Y-101150853D01*
X150272298Y-101491553D01*
X150205183Y-101348642D01*
X149776924Y-100958355D01*
X149366890Y-100788524D01*
X149137000Y-100909845D01*
X149137000Y-102103000D01*
X149157000Y-102103000D01*
X149157000Y-102357000D01*
X149137000Y-102357000D01*
X149137000Y-102377000D01*
X148883000Y-102377000D01*
X148883000Y-102357000D01*
X148863000Y-102357000D01*
X148863000Y-102103000D01*
X148883000Y-102103000D01*
X148883000Y-100909845D01*
X148653110Y-100788524D01*
X148243076Y-100958355D01*
X147814817Y-101348642D01*
X147747702Y-101491553D01*
X147520054Y-101150853D01*
X147038285Y-100828946D01*
X146470000Y-100715907D01*
X145901715Y-100828946D01*
X145419946Y-101150853D01*
X145192298Y-101491553D01*
X145125183Y-101348642D01*
X144696924Y-100958355D01*
X144286890Y-100788524D01*
X144057000Y-100909845D01*
X144057000Y-102103000D01*
X144077000Y-102103000D01*
X144077000Y-102357000D01*
X144057000Y-102357000D01*
X144057000Y-102377000D01*
X143803000Y-102377000D01*
X143803000Y-102357000D01*
X143783000Y-102357000D01*
X143783000Y-102103000D01*
X143803000Y-102103000D01*
X143803000Y-100909845D01*
X143573110Y-100788524D01*
X143163076Y-100958355D01*
X142734817Y-101348642D01*
X142667702Y-101491553D01*
X142440054Y-101150853D01*
X141958285Y-100828946D01*
X141390000Y-100715907D01*
X140821715Y-100828946D01*
X140339946Y-101150853D01*
X140120000Y-101480026D01*
X139900054Y-101150853D01*
X139418285Y-100828946D01*
X138850000Y-100715907D01*
X138281715Y-100828946D01*
X137799946Y-101150853D01*
X137580000Y-101480026D01*
X137360054Y-101150853D01*
X136878285Y-100828946D01*
X136310000Y-100715907D01*
X135741715Y-100828946D01*
X135259946Y-101150853D01*
X135040000Y-101480026D01*
X134820054Y-101150853D01*
X134338285Y-100828946D01*
X133770000Y-100715907D01*
X133201715Y-100828946D01*
X132719946Y-101150853D01*
X132492298Y-101491553D01*
X132425183Y-101348642D01*
X131996924Y-100958355D01*
X131586890Y-100788524D01*
X131357000Y-100909845D01*
X131357000Y-102103000D01*
X131377000Y-102103000D01*
X131377000Y-102357000D01*
X131357000Y-102357000D01*
X131357000Y-102377000D01*
X131103000Y-102377000D01*
X131103000Y-102357000D01*
X131083000Y-102357000D01*
X131083000Y-102103000D01*
X131103000Y-102103000D01*
X131103000Y-100909845D01*
X130873110Y-100788524D01*
X130463076Y-100958355D01*
X130034817Y-101348642D01*
X129967702Y-101491553D01*
X129740054Y-101150853D01*
X129258285Y-100828946D01*
X128690000Y-100715907D01*
X128121715Y-100828946D01*
X127639946Y-101150853D01*
X127420000Y-101480026D01*
X127200054Y-101150853D01*
X126718285Y-100828946D01*
X126150000Y-100715907D01*
X125581715Y-100828946D01*
X125099946Y-101150853D01*
X124872298Y-101491553D01*
X124805183Y-101348642D01*
X124376924Y-100958355D01*
X123966890Y-100788524D01*
X123737000Y-100909845D01*
X123737000Y-102103000D01*
X123757000Y-102103000D01*
X123757000Y-102357000D01*
X123737000Y-102357000D01*
X123737000Y-102377000D01*
X123483000Y-102377000D01*
X123483000Y-102357000D01*
X123463000Y-102357000D01*
X123463000Y-102103000D01*
X123483000Y-102103000D01*
X123483000Y-100909845D01*
X123253110Y-100788524D01*
X122843076Y-100958355D01*
X122414817Y-101348642D01*
X122347702Y-101491553D01*
X122120054Y-101150853D01*
X121638285Y-100828946D01*
X121070000Y-100715907D01*
X120501715Y-100828946D01*
X120019946Y-101150853D01*
X119800000Y-101480026D01*
X119580054Y-101150853D01*
X119098285Y-100828946D01*
X118530000Y-100715907D01*
X117961715Y-100828946D01*
X117479946Y-101150853D01*
X117260000Y-101480026D01*
X117040054Y-101150853D01*
X116558285Y-100828946D01*
X115990000Y-100715907D01*
X115421715Y-100828946D01*
X114939946Y-101150853D01*
X114712298Y-101491553D01*
X114645183Y-101348642D01*
X114216924Y-100958355D01*
X113806890Y-100788524D01*
X113577000Y-100909845D01*
X113577000Y-102103000D01*
X113597000Y-102103000D01*
X113597000Y-102357000D01*
X113577000Y-102357000D01*
X113577000Y-102377000D01*
X113323000Y-102377000D01*
X113323000Y-102357000D01*
X113303000Y-102357000D01*
X113303000Y-102103000D01*
X113323000Y-102103000D01*
X113323000Y-100909845D01*
X113093110Y-100788524D01*
X112683076Y-100958355D01*
X112254817Y-101348642D01*
X112187702Y-101491553D01*
X111960054Y-101150853D01*
X111478285Y-100828946D01*
X110910000Y-100715907D01*
X110341715Y-100828946D01*
X109859946Y-101150853D01*
X109640000Y-101480026D01*
X109420054Y-101150853D01*
X108938285Y-100828946D01*
X108370000Y-100715907D01*
X107801715Y-100828946D01*
X107319946Y-101150853D01*
X106998039Y-101632622D01*
X106885000Y-102200907D01*
X106885000Y-102259093D01*
X106998039Y-102827378D01*
X107319946Y-103309147D01*
X107321179Y-103309971D01*
X107284683Y-103316838D01*
X107068559Y-103455910D01*
X106923569Y-103668110D01*
X106872560Y-103920000D01*
X106872560Y-105620000D01*
X106916838Y-105855317D01*
X107055910Y-106071441D01*
X107268110Y-106216431D01*
X107520000Y-106267440D01*
X107560000Y-106267440D01*
X107560000Y-108569487D01*
X106052244Y-110077244D01*
X105876658Y-110340026D01*
X105815000Y-110650000D01*
X100710000Y-110650000D01*
X100710000Y-104957132D01*
X100840727Y-105273515D01*
X101721847Y-106156174D01*
X102873674Y-106634454D01*
X104120854Y-106635543D01*
X105273515Y-106159273D01*
X106156174Y-105278153D01*
X106634454Y-104126326D01*
X106635543Y-102879146D01*
X106159273Y-101726485D01*
X105278153Y-100843826D01*
X104955864Y-100710000D01*
X160042868Y-100710000D01*
X159726485Y-100840727D01*
X159726485Y-100840727D01*
G37*
X159726485Y-100840727D02*
X158843826Y-101721847D01*
X158365546Y-102873674D01*
X158364457Y-104120854D01*
X158840727Y-105273515D01*
X159721847Y-106156174D01*
X160873674Y-106634454D01*
X162120854Y-106635543D01*
X163273515Y-106159273D01*
X164156174Y-105278153D01*
X164290000Y-104955864D01*
X164290000Y-151042868D01*
X164159273Y-150726485D01*
X163278153Y-149843826D01*
X162126326Y-149365546D01*
X160879146Y-149364457D01*
X159726485Y-149840727D01*
X158843826Y-150721847D01*
X158365546Y-151873674D01*
X158364457Y-153120854D01*
X158840727Y-154273515D01*
X159721847Y-155156174D01*
X160044136Y-155290000D01*
X104957132Y-155290000D01*
X105273515Y-155159273D01*
X106156174Y-154278153D01*
X106634454Y-153126326D01*
X106635543Y-151879146D01*
X106159273Y-150726485D01*
X105278153Y-149843826D01*
X104770926Y-149633207D01*
X128064665Y-149633207D01*
X128358630Y-150344658D01*
X128902479Y-150889457D01*
X129613416Y-151184663D01*
X130383207Y-151185335D01*
X131094658Y-150891370D01*
X131639457Y-150347521D01*
X131934663Y-149636584D01*
X131934665Y-149633207D01*
X148064665Y-149633207D01*
X148358630Y-150344658D01*
X148902479Y-150889457D01*
X149613416Y-151184663D01*
X150383207Y-151185335D01*
X151094658Y-150891370D01*
X151639457Y-150347521D01*
X151934663Y-149636584D01*
X151935335Y-148866793D01*
X151641370Y-148155342D01*
X151097521Y-147610543D01*
X150386584Y-147315337D01*
X149616793Y-147314665D01*
X148905342Y-147608630D01*
X148360543Y-148152479D01*
X148065337Y-148863416D01*
X148064665Y-149633207D01*
X131934665Y-149633207D01*
X131935335Y-148866793D01*
X131641370Y-148155342D01*
X131097521Y-147610543D01*
X130386584Y-147315337D01*
X129616793Y-147314665D01*
X128905342Y-147608630D01*
X128360543Y-148152479D01*
X128065337Y-148863416D01*
X128064665Y-149633207D01*
X104770926Y-149633207D01*
X104126326Y-149365546D01*
X102879146Y-149364457D01*
X101726485Y-149840727D01*
X100843826Y-150721847D01*
X100710000Y-151044136D01*
X100710000Y-110650000D01*
X105815000Y-110650000D01*
X105815000Y-124126780D01*
X105839110Y-124247988D01*
X105839110Y-136150890D01*
X105900768Y-136460864D01*
X105937275Y-136515500D01*
X106076354Y-136723646D01*
X108230108Y-138877401D01*
X108229780Y-139253290D01*
X108422718Y-139720238D01*
X108702167Y-140000175D01*
X108423974Y-140277883D01*
X108230221Y-140744493D01*
X108229780Y-141249730D01*
X108422718Y-141716678D01*
X108530957Y-141825106D01*
X108413559Y-141900650D01*
X108268569Y-142112850D01*
X108217560Y-142364740D01*
X108217560Y-143634740D01*
X108261838Y-143870057D01*
X108400910Y-144086181D01*
X108613110Y-144231171D01*
X108865000Y-144282180D01*
X110135000Y-144282180D01*
X110370317Y-144237902D01*
X110586441Y-144098830D01*
X110731431Y-143886630D01*
X110782440Y-143634740D01*
X110782440Y-142792102D01*
X112557401Y-141017141D01*
X112722148Y-140770580D01*
X112780000Y-140479740D01*
X112780000Y-139144802D01*
X114012255Y-137912547D01*
X114141610Y-138000931D01*
X114393500Y-138051940D01*
X115282500Y-138051940D01*
X115517817Y-138007662D01*
X115599003Y-137955420D01*
X115665610Y-138000931D01*
X115917500Y-138051940D01*
X116806500Y-138051940D01*
X117041817Y-138007662D01*
X117257941Y-137868590D01*
X117402931Y-137656390D01*
X117453940Y-137404500D01*
X117453940Y-136515500D01*
X117409662Y-136280183D01*
X117270590Y-136064059D01*
X117147000Y-135979614D01*
X117147000Y-135847109D01*
X117237941Y-135788590D01*
X117382931Y-135576390D01*
X117433940Y-135324500D01*
X117433940Y-134435500D01*
X117392879Y-134217279D01*
X125656748Y-125953410D01*
X127063760Y-125953410D01*
X127063760Y-126893790D01*
X127160433Y-127127179D01*
X127339062Y-127305807D01*
X127572451Y-127402480D01*
X127811790Y-127402480D01*
X127970540Y-127243730D01*
X127970540Y-125794660D01*
X127222510Y-125794660D01*
X127063760Y-125953410D01*
X125656748Y-125953410D01*
X126215079Y-125395079D01*
X126385245Y-125140407D01*
X126445000Y-124840000D01*
X126445000Y-123195157D01*
X127309209Y-124059366D01*
X127160433Y-124208141D01*
X127063760Y-124441530D01*
X127063760Y-125381910D01*
X127222510Y-125540660D01*
X127970540Y-125540660D01*
X127970540Y-125520660D01*
X128224540Y-125520660D01*
X128224540Y-125540660D01*
X128244540Y-125540660D01*
X128244540Y-125794660D01*
X128224540Y-125794660D01*
X128224540Y-127243730D01*
X128383290Y-127402480D01*
X128607540Y-127402480D01*
X128607540Y-127819121D01*
X128553569Y-127898110D01*
X128502560Y-128150000D01*
X128502560Y-128272638D01*
X128262599Y-128512599D01*
X128097852Y-128759161D01*
X128040000Y-129050000D01*
X128040000Y-129841934D01*
X127904059Y-129929410D01*
X127759069Y-130141610D01*
X127708060Y-130393500D01*
X127708060Y-131282500D01*
X127752338Y-131517817D01*
X127804580Y-131599003D01*
X127759069Y-131665610D01*
X127708060Y-131917500D01*
X127708060Y-132717138D01*
X125512599Y-134912599D01*
X125347852Y-135159161D01*
X125290000Y-135450000D01*
X125290000Y-137328552D01*
X125011914Y-137443455D01*
X124495270Y-137959199D01*
X124215319Y-138633395D01*
X124214682Y-139363403D01*
X124493455Y-140038086D01*
X125009199Y-140554730D01*
X125683395Y-140834681D01*
X126413403Y-140835318D01*
X127088086Y-140556545D01*
X127604730Y-140040801D01*
X127884681Y-139366605D01*
X127885318Y-138636597D01*
X127606545Y-137961914D01*
X127090801Y-137445270D01*
X126810000Y-137328671D01*
X126810000Y-135764802D01*
X129120862Y-133453940D01*
X129244500Y-133453940D01*
X129479817Y-133409662D01*
X129695941Y-133270590D01*
X129840931Y-133058390D01*
X129891940Y-132806500D01*
X129891940Y-131917500D01*
X129847662Y-131682183D01*
X129795420Y-131600997D01*
X129840931Y-131534390D01*
X129891940Y-131282500D01*
X129891940Y-130393500D01*
X129847662Y-130158183D01*
X129708590Y-129942059D01*
X129560000Y-129840532D01*
X129560000Y-129364802D01*
X129627362Y-129297440D01*
X129750000Y-129297440D01*
X129985317Y-129253162D01*
X129996979Y-129245658D01*
X129998110Y-129246431D01*
X130250000Y-129297440D01*
X130372638Y-129297440D01*
X130440000Y-129364802D01*
X130440000Y-129841934D01*
X130304059Y-129929410D01*
X130159069Y-130141610D01*
X130108060Y-130393500D01*
X130108060Y-131282500D01*
X130152338Y-131517817D01*
X130204580Y-131599003D01*
X130159069Y-131665610D01*
X130108060Y-131917500D01*
X130108060Y-132806500D01*
X130152338Y-133041817D01*
X130291410Y-133257941D01*
X130503610Y-133402931D01*
X130755500Y-133453940D01*
X130879138Y-133453940D01*
X133190000Y-135764802D01*
X133190000Y-137328552D01*
X132911914Y-137443455D01*
X132395270Y-137959199D01*
X132115319Y-138633395D01*
X132114682Y-139363403D01*
X132393455Y-140038086D01*
X132909199Y-140554730D01*
X133583395Y-140834681D01*
X134313403Y-140835318D01*
X134988086Y-140556545D01*
X135504730Y-140040801D01*
X135784681Y-139366605D01*
X135785318Y-138636597D01*
X135506545Y-137961914D01*
X134990801Y-137445270D01*
X134710000Y-137328671D01*
X134710000Y-135450000D01*
X134703516Y-135417401D01*
X134652148Y-135159160D01*
X134487401Y-134912599D01*
X132291940Y-132717138D01*
X132291940Y-131917500D01*
X132247662Y-131682183D01*
X132195420Y-131600997D01*
X132240931Y-131534390D01*
X132291940Y-131282500D01*
X132291940Y-130393500D01*
X132247662Y-130158183D01*
X132108590Y-129942059D01*
X131960000Y-129840532D01*
X131960000Y-129050000D01*
X131902148Y-128759161D01*
X131737401Y-128512599D01*
X131497440Y-128272638D01*
X131497440Y-128150000D01*
X131453162Y-127914683D01*
X131314090Y-127698559D01*
X131310000Y-127695764D01*
X131310000Y-127375699D01*
X131503680Y-127414920D01*
X132301240Y-127414920D01*
X132536557Y-127370642D01*
X132752681Y-127231570D01*
X132897671Y-127019370D01*
X132948680Y-126767480D01*
X132948680Y-125766952D01*
X133160200Y-125555432D01*
X133211673Y-125679698D01*
X133390301Y-125858327D01*
X133623690Y-125955000D01*
X133716250Y-125955000D01*
X133875000Y-125796250D01*
X133875000Y-125147000D01*
X134125000Y-125147000D01*
X134125000Y-125796250D01*
X134283750Y-125955000D01*
X134376310Y-125955000D01*
X134380148Y-125953410D01*
X146863760Y-125953410D01*
X146863760Y-126893790D01*
X146960433Y-127127179D01*
X147139062Y-127305807D01*
X147372451Y-127402480D01*
X147611790Y-127402480D01*
X147770540Y-127243730D01*
X147770540Y-125794660D01*
X147022510Y-125794660D01*
X146863760Y-125953410D01*
X134380148Y-125953410D01*
X134609699Y-125858327D01*
X134788327Y-125679698D01*
X134885000Y-125446309D01*
X134885000Y-125305750D01*
X134726250Y-125147000D01*
X134125000Y-125147000D01*
X133875000Y-125147000D01*
X133853000Y-125147000D01*
X133853000Y-124893000D01*
X133875000Y-124893000D01*
X133875000Y-124873000D01*
X134125000Y-124873000D01*
X134125000Y-124893000D01*
X134726250Y-124893000D01*
X134885000Y-124734250D01*
X134885000Y-124730000D01*
X146863760Y-124730000D01*
X146863760Y-125381910D01*
X147022510Y-125540660D01*
X147770540Y-125540660D01*
X147770540Y-125520660D01*
X148024540Y-125520660D01*
X148024540Y-125540660D01*
X148044540Y-125540660D01*
X148044540Y-125794660D01*
X148024540Y-125794660D01*
X148024540Y-127243730D01*
X148183290Y-127402480D01*
X148422629Y-127402480D01*
X148490000Y-127374574D01*
X148490000Y-127498437D01*
X148353569Y-127698110D01*
X148302560Y-127950000D01*
X148302560Y-128072638D01*
X148212599Y-128162599D01*
X148047852Y-128409161D01*
X147990000Y-128700000D01*
X147990000Y-129491934D01*
X147854059Y-129579410D01*
X147709069Y-129791610D01*
X147658060Y-130043500D01*
X147658060Y-130932500D01*
X147702338Y-131167817D01*
X147754580Y-131249003D01*
X147709069Y-131315610D01*
X147658060Y-131567500D01*
X147658060Y-132367138D01*
X145512599Y-134512599D01*
X145347852Y-134759161D01*
X145290000Y-135050000D01*
X145290000Y-137328552D01*
X145011914Y-137443455D01*
X144495270Y-137959199D01*
X144215319Y-138633395D01*
X144214682Y-139363403D01*
X144493455Y-140038086D01*
X145009199Y-140554730D01*
X145683395Y-140834681D01*
X146413403Y-140835318D01*
X147088086Y-140556545D01*
X147604730Y-140040801D01*
X147884681Y-139366605D01*
X147885318Y-138636597D01*
X147606545Y-137961914D01*
X147090801Y-137445270D01*
X146810000Y-137328671D01*
X146810000Y-135364802D01*
X149070862Y-133103940D01*
X149194500Y-133103940D01*
X149429817Y-133059662D01*
X149645941Y-132920590D01*
X149790931Y-132708390D01*
X149841940Y-132456500D01*
X149841940Y-131567500D01*
X149797662Y-131332183D01*
X149745420Y-131250997D01*
X149790931Y-131184390D01*
X149841940Y-130932500D01*
X149841940Y-130043500D01*
X149797662Y-129808183D01*
X149658590Y-129592059D01*
X149510000Y-129490532D01*
X149510000Y-129097440D01*
X149550000Y-129097440D01*
X149785317Y-129053162D01*
X149796979Y-129045658D01*
X149798110Y-129046431D01*
X150050000Y-129097440D01*
X150172638Y-129097440D01*
X150240000Y-129164802D01*
X150240000Y-129441934D01*
X150104059Y-129529410D01*
X149959069Y-129741610D01*
X149908060Y-129993500D01*
X149908060Y-130882500D01*
X149952338Y-131117817D01*
X150004580Y-131199003D01*
X149959069Y-131265610D01*
X149908060Y-131517500D01*
X149908060Y-132406500D01*
X149952338Y-132641817D01*
X150091410Y-132857941D01*
X150303610Y-133002931D01*
X150555500Y-133053940D01*
X150679138Y-133053940D01*
X153190000Y-135564802D01*
X153190000Y-137328552D01*
X152911914Y-137443455D01*
X152395270Y-137959199D01*
X152115319Y-138633395D01*
X152114682Y-139363403D01*
X152393455Y-140038086D01*
X152909199Y-140554730D01*
X153583395Y-140834681D01*
X154313403Y-140835318D01*
X154988086Y-140556545D01*
X155504730Y-140040801D01*
X155784681Y-139366605D01*
X155785318Y-138636597D01*
X155506545Y-137961914D01*
X154990801Y-137445270D01*
X154710000Y-137328671D01*
X154710000Y-135250000D01*
X154652148Y-134959161D01*
X154487401Y-134712599D01*
X152091940Y-132317138D01*
X152091940Y-131517500D01*
X152047662Y-131282183D01*
X151995420Y-131200997D01*
X152040931Y-131134390D01*
X152091940Y-130882500D01*
X152091940Y-129993500D01*
X152047662Y-129758183D01*
X151908590Y-129542059D01*
X151760000Y-129440532D01*
X151760000Y-128850000D01*
X151702148Y-128559161D01*
X151537401Y-128312599D01*
X151297440Y-128072638D01*
X151297440Y-127950000D01*
X151253162Y-127714683D01*
X151114090Y-127498559D01*
X151110000Y-127495764D01*
X151110000Y-127375699D01*
X151303680Y-127414920D01*
X152101240Y-127414920D01*
X152336557Y-127370642D01*
X152552681Y-127231570D01*
X152697671Y-127019370D01*
X152748680Y-126767480D01*
X152748680Y-125766952D01*
X152838276Y-125677356D01*
X152851673Y-125709698D01*
X153030301Y-125888327D01*
X153263690Y-125985000D01*
X153356250Y-125985000D01*
X153515000Y-125826250D01*
X153515000Y-125177000D01*
X153765000Y-125177000D01*
X153765000Y-125826250D01*
X153923750Y-125985000D01*
X154016310Y-125985000D01*
X154249699Y-125888327D01*
X154428327Y-125709698D01*
X154525000Y-125476309D01*
X154525000Y-125335750D01*
X154366250Y-125177000D01*
X153765000Y-125177000D01*
X153515000Y-125177000D01*
X153493000Y-125177000D01*
X153493000Y-125022633D01*
X153612633Y-124903000D01*
X153765000Y-124903000D01*
X153765000Y-124923000D01*
X154366250Y-124923000D01*
X154525000Y-124764250D01*
X154525000Y-124623691D01*
X154479033Y-124512717D01*
X154486431Y-124501890D01*
X154537440Y-124250000D01*
X154537440Y-123650000D01*
X154493162Y-123414683D01*
X154354090Y-123198559D01*
X154141890Y-123053569D01*
X153890000Y-123002560D01*
X153390000Y-123002560D01*
X153154683Y-123046838D01*
X153056526Y-123110000D01*
X134628386Y-123110000D01*
X134501890Y-123023569D01*
X134250000Y-122972560D01*
X133750000Y-122972560D01*
X133514683Y-123016838D01*
X133331054Y-123135000D01*
X128605157Y-123135000D01*
X126445000Y-120974842D01*
X126445000Y-114790000D01*
X126385245Y-114489594D01*
X126215079Y-114234921D01*
X124739092Y-112758934D01*
X124888327Y-112609699D01*
X124985000Y-112376310D01*
X124985000Y-112283750D01*
X124826250Y-112125000D01*
X124177000Y-112125000D01*
X124177000Y-112147000D01*
X124127158Y-112147000D01*
X123903000Y-111922842D01*
X123903000Y-111907158D01*
X123957158Y-111853000D01*
X124177000Y-111853000D01*
X124177000Y-111875000D01*
X124826250Y-111875000D01*
X124985000Y-111716250D01*
X124985000Y-111623690D01*
X124888327Y-111390301D01*
X124709698Y-111211673D01*
X124598317Y-111165537D01*
X124675245Y-111050406D01*
X124735001Y-110750000D01*
X124735000Y-110749995D01*
X124735000Y-110138000D01*
X124695615Y-109940000D01*
X124675245Y-109837593D01*
X124505079Y-109582921D01*
X124445158Y-109523000D01*
X126612000Y-109523000D01*
X126912407Y-109463245D01*
X127167079Y-109293079D01*
X129245079Y-107215079D01*
X129415245Y-106960406D01*
X129475000Y-106660000D01*
X129475000Y-106026250D01*
X129740054Y-105849147D01*
X129960000Y-105519974D01*
X130179946Y-105849147D01*
X130661715Y-106171054D01*
X131230000Y-106284093D01*
X131798285Y-106171054D01*
X132280054Y-105849147D01*
X132500000Y-105519974D01*
X132719946Y-105849147D01*
X133010000Y-106042954D01*
X133010000Y-107815198D01*
X128830139Y-111995059D01*
X128665392Y-112241621D01*
X128607540Y-112532460D01*
X128607540Y-118207603D01*
X128496320Y-118185080D01*
X127698760Y-118185080D01*
X127463443Y-118229358D01*
X127247319Y-118368430D01*
X127102329Y-118580630D01*
X127051320Y-118832520D01*
X127051320Y-121032160D01*
X127095598Y-121267477D01*
X127234670Y-121483601D01*
X127446870Y-121628591D01*
X127698760Y-121679600D01*
X128496320Y-121679600D01*
X128731637Y-121635322D01*
X128736059Y-121632477D01*
X128968760Y-121679600D01*
X129766320Y-121679600D01*
X130001637Y-121635322D01*
X130004843Y-121633259D01*
X130233680Y-121679600D01*
X131031240Y-121679600D01*
X131266557Y-121635322D01*
X131270979Y-121632477D01*
X131503680Y-121679600D01*
X132301240Y-121679600D01*
X132536557Y-121635322D01*
X132752681Y-121496250D01*
X132897671Y-121284050D01*
X132948680Y-121032160D01*
X132948680Y-118832520D01*
X132904402Y-118597203D01*
X132835177Y-118489625D01*
X136337500Y-114987302D01*
X136687599Y-115337401D01*
X136934161Y-115502148D01*
X137225000Y-115560000D01*
X145572527Y-115560000D01*
X145873190Y-115684846D01*
X146225265Y-115685153D01*
X146550657Y-115550704D01*
X146799829Y-115301967D01*
X146851860Y-115176662D01*
X148265198Y-116590000D01*
X136362201Y-116590000D01*
X136180327Y-116407808D01*
X135836799Y-116265162D01*
X135464833Y-116264838D01*
X135121057Y-116406883D01*
X134857808Y-116669673D01*
X134715162Y-117013201D01*
X134714838Y-117385167D01*
X134856883Y-117728943D01*
X135119673Y-117992192D01*
X135463201Y-118134838D01*
X135835167Y-118135162D01*
X135896064Y-118110000D01*
X148035198Y-118110000D01*
X148110278Y-118185080D01*
X147498760Y-118185080D01*
X147263443Y-118229358D01*
X147047319Y-118368430D01*
X146902329Y-118580630D01*
X146851320Y-118832520D01*
X146851320Y-121032160D01*
X146895598Y-121267477D01*
X147034670Y-121483601D01*
X147246870Y-121628591D01*
X147498760Y-121679600D01*
X148296320Y-121679600D01*
X148531637Y-121635322D01*
X148536059Y-121632477D01*
X148768760Y-121679600D01*
X149566320Y-121679600D01*
X149801637Y-121635322D01*
X149804843Y-121633259D01*
X150033680Y-121679600D01*
X150831240Y-121679600D01*
X151066557Y-121635322D01*
X151070979Y-121632477D01*
X151303680Y-121679600D01*
X152101240Y-121679600D01*
X152336557Y-121635322D01*
X152552681Y-121496250D01*
X152697671Y-121284050D01*
X152748680Y-121032160D01*
X152748680Y-118832520D01*
X152704402Y-118597203D01*
X152565330Y-118381079D01*
X152462460Y-118310791D01*
X152462460Y-117302460D01*
X152404608Y-117011621D01*
X152239861Y-116765059D01*
X150100025Y-114625223D01*
X149975704Y-114324343D01*
X149726967Y-114075171D01*
X149401810Y-113940154D01*
X149049735Y-113939847D01*
X148724343Y-114074296D01*
X148475171Y-114323033D01*
X148379129Y-114554327D01*
X140910000Y-107085198D01*
X140910000Y-106188615D01*
X141390000Y-106284093D01*
X141958285Y-106171054D01*
X142440054Y-105849147D01*
X142660000Y-105519974D01*
X142879946Y-105849147D01*
X143361715Y-106171054D01*
X143930000Y-106284093D01*
X144498285Y-106171054D01*
X144980054Y-105849147D01*
X145200000Y-105519974D01*
X145419946Y-105849147D01*
X145901715Y-106171054D01*
X146470000Y-106284093D01*
X147038285Y-106171054D01*
X147520054Y-105849147D01*
X147740000Y-105519974D01*
X147959946Y-105849147D01*
X148441715Y-106171054D01*
X149010000Y-106284093D01*
X149578285Y-106171054D01*
X150060054Y-105849147D01*
X150280000Y-105519974D01*
X150499946Y-105849147D01*
X150981715Y-106171054D01*
X151550000Y-106284093D01*
X152118285Y-106171054D01*
X152600054Y-105849147D01*
X152820000Y-105519974D01*
X153039946Y-105849147D01*
X153521715Y-106171054D01*
X154090000Y-106284093D01*
X154658285Y-106171054D01*
X155140054Y-105849147D01*
X155367702Y-105508447D01*
X155434817Y-105651358D01*
X155863076Y-106041645D01*
X156273110Y-106211476D01*
X156503000Y-106090155D01*
X156503000Y-104897000D01*
X156757000Y-104897000D01*
X156757000Y-106090155D01*
X156986890Y-106211476D01*
X157396924Y-106041645D01*
X157825183Y-105651358D01*
X158071486Y-105126892D01*
X157950819Y-104897000D01*
X156757000Y-104897000D01*
X156503000Y-104897000D01*
X156483000Y-104897000D01*
X156483000Y-104643000D01*
X156503000Y-104643000D01*
X156503000Y-104623000D01*
X156757000Y-104623000D01*
X156757000Y-104643000D01*
X157950819Y-104643000D01*
X158071486Y-104413108D01*
X157825183Y-103888642D01*
X157396924Y-103498355D01*
X157396899Y-103498345D01*
X157680054Y-103309147D01*
X158001961Y-102827378D01*
X158115000Y-102259093D01*
X158115000Y-102200907D01*
X158001961Y-101632622D01*
X157680054Y-101150853D01*
X157198285Y-100828946D01*
X156630000Y-100715907D01*
X156061715Y-100828946D01*
X155579946Y-101150853D01*
X155360000Y-101480026D01*
X155140054Y-101150853D01*
X154658285Y-100828946D01*
X154090000Y-100715907D01*
X153521715Y-100828946D01*
X153039946Y-101150853D01*
X152820000Y-101480026D01*
X152600054Y-101150853D01*
X152118285Y-100828946D01*
X151550000Y-100715907D01*
X150981715Y-100828946D01*
X150499946Y-101150853D01*
X150272298Y-101491553D01*
X150205183Y-101348642D01*
X149776924Y-100958355D01*
X149366890Y-100788524D01*
X149137000Y-100909845D01*
X149137000Y-102103000D01*
X149157000Y-102103000D01*
X149157000Y-102357000D01*
X149137000Y-102357000D01*
X149137000Y-102377000D01*
X148883000Y-102377000D01*
X148883000Y-102357000D01*
X148863000Y-102357000D01*
X148863000Y-102103000D01*
X148883000Y-102103000D01*
X148883000Y-100909845D01*
X148653110Y-100788524D01*
X148243076Y-100958355D01*
X147814817Y-101348642D01*
X147747702Y-101491553D01*
X147520054Y-101150853D01*
X147038285Y-100828946D01*
X146470000Y-100715907D01*
X145901715Y-100828946D01*
X145419946Y-101150853D01*
X145192298Y-101491553D01*
X145125183Y-101348642D01*
X144696924Y-100958355D01*
X144286890Y-100788524D01*
X144057000Y-100909845D01*
X144057000Y-102103000D01*
X144077000Y-102103000D01*
X144077000Y-102357000D01*
X144057000Y-102357000D01*
X144057000Y-102377000D01*
X143803000Y-102377000D01*
X143803000Y-102357000D01*
X143783000Y-102357000D01*
X143783000Y-102103000D01*
X143803000Y-102103000D01*
X143803000Y-100909845D01*
X143573110Y-100788524D01*
X143163076Y-100958355D01*
X142734817Y-101348642D01*
X142667702Y-101491553D01*
X142440054Y-101150853D01*
X141958285Y-100828946D01*
X141390000Y-100715907D01*
X140821715Y-100828946D01*
X140339946Y-101150853D01*
X140120000Y-101480026D01*
X139900054Y-101150853D01*
X139418285Y-100828946D01*
X138850000Y-100715907D01*
X138281715Y-100828946D01*
X137799946Y-101150853D01*
X137580000Y-101480026D01*
X137360054Y-101150853D01*
X136878285Y-100828946D01*
X136310000Y-100715907D01*
X135741715Y-100828946D01*
X135259946Y-101150853D01*
X135040000Y-101480026D01*
X134820054Y-101150853D01*
X134338285Y-100828946D01*
X133770000Y-100715907D01*
X133201715Y-100828946D01*
X132719946Y-101150853D01*
X132492298Y-101491553D01*
X132425183Y-101348642D01*
X131996924Y-100958355D01*
X131586890Y-100788524D01*
X131357000Y-100909845D01*
X131357000Y-102103000D01*
X131377000Y-102103000D01*
X131377000Y-102357000D01*
X131357000Y-102357000D01*
X131357000Y-102377000D01*
X131103000Y-102377000D01*
X131103000Y-102357000D01*
X131083000Y-102357000D01*
X131083000Y-102103000D01*
X131103000Y-102103000D01*
X131103000Y-100909845D01*
X130873110Y-100788524D01*
X130463076Y-100958355D01*
X130034817Y-101348642D01*
X129967702Y-101491553D01*
X129740054Y-101150853D01*
X129258285Y-100828946D01*
X128690000Y-100715907D01*
X128121715Y-100828946D01*
X127639946Y-101150853D01*
X127420000Y-101480026D01*
X127200054Y-101150853D01*
X126718285Y-100828946D01*
X126150000Y-100715907D01*
X125581715Y-100828946D01*
X125099946Y-101150853D01*
X124872298Y-101491553D01*
X124805183Y-101348642D01*
X124376924Y-100958355D01*
X123966890Y-100788524D01*
X123737000Y-100909845D01*
X123737000Y-102103000D01*
X123757000Y-102103000D01*
X123757000Y-102357000D01*
X123737000Y-102357000D01*
X123737000Y-102377000D01*
X123483000Y-102377000D01*
X123483000Y-102357000D01*
X123463000Y-102357000D01*
X123463000Y-102103000D01*
X123483000Y-102103000D01*
X123483000Y-100909845D01*
X123253110Y-100788524D01*
X122843076Y-100958355D01*
X122414817Y-101348642D01*
X122347702Y-101491553D01*
X122120054Y-101150853D01*
X121638285Y-100828946D01*
X121070000Y-100715907D01*
X120501715Y-100828946D01*
X120019946Y-101150853D01*
X119800000Y-101480026D01*
X119580054Y-101150853D01*
X119098285Y-100828946D01*
X118530000Y-100715907D01*
X117961715Y-100828946D01*
X117479946Y-101150853D01*
X117260000Y-101480026D01*
X117040054Y-101150853D01*
X116558285Y-100828946D01*
X115990000Y-100715907D01*
X115421715Y-100828946D01*
X114939946Y-101150853D01*
X114712298Y-101491553D01*
X114645183Y-101348642D01*
X114216924Y-100958355D01*
X113806890Y-100788524D01*
X113577000Y-100909845D01*
X113577000Y-102103000D01*
X113597000Y-102103000D01*
X113597000Y-102357000D01*
X113577000Y-102357000D01*
X113577000Y-102377000D01*
X113323000Y-102377000D01*
X113323000Y-102357000D01*
X113303000Y-102357000D01*
X113303000Y-102103000D01*
X113323000Y-102103000D01*
X113323000Y-100909845D01*
X113093110Y-100788524D01*
X112683076Y-100958355D01*
X112254817Y-101348642D01*
X112187702Y-101491553D01*
X111960054Y-101150853D01*
X111478285Y-100828946D01*
X110910000Y-100715907D01*
X110341715Y-100828946D01*
X109859946Y-101150853D01*
X109640000Y-101480026D01*
X109420054Y-101150853D01*
X108938285Y-100828946D01*
X108370000Y-100715907D01*
X107801715Y-100828946D01*
X107319946Y-101150853D01*
X106998039Y-101632622D01*
X106885000Y-102200907D01*
X106885000Y-102259093D01*
X106998039Y-102827378D01*
X107319946Y-103309147D01*
X107321179Y-103309971D01*
X107284683Y-103316838D01*
X107068559Y-103455910D01*
X106923569Y-103668110D01*
X106872560Y-103920000D01*
X106872560Y-105620000D01*
X106916838Y-105855317D01*
X107055910Y-106071441D01*
X107268110Y-106216431D01*
X107520000Y-106267440D01*
X107560000Y-106267440D01*
X107560000Y-108569487D01*
X106052244Y-110077244D01*
X105876658Y-110340026D01*
X105815000Y-110650000D01*
X100710000Y-110650000D01*
X100710000Y-104957132D01*
X100840727Y-105273515D01*
X101721847Y-106156174D01*
X102873674Y-106634454D01*
X104120854Y-106635543D01*
X105273515Y-106159273D01*
X106156174Y-105278153D01*
X106634454Y-104126326D01*
X106635543Y-102879146D01*
X106159273Y-101726485D01*
X105278153Y-100843826D01*
X104955864Y-100710000D01*
X160042868Y-100710000D01*
X159726485Y-100840727D01*
G36*
X108230108Y-126877401D02*
X108229780Y-127253290D01*
X108422718Y-127720238D01*
X108702167Y-128000175D01*
X108423974Y-128277883D01*
X108230221Y-128744493D01*
X108229780Y-129249730D01*
X108422718Y-129716678D01*
X108530957Y-129825106D01*
X108413559Y-129900650D01*
X108268569Y-130112850D01*
X108217560Y-130364740D01*
X108217560Y-131634740D01*
X108261838Y-131870057D01*
X108400910Y-132086181D01*
X108613110Y-132231171D01*
X108865000Y-132282180D01*
X109707638Y-132282180D01*
X111350000Y-133924542D01*
X111350000Y-135190000D01*
X111407852Y-135480839D01*
X111572599Y-135727401D01*
X112810198Y-136965000D01*
X111482599Y-138292599D01*
X111317852Y-138539161D01*
X111260000Y-138830000D01*
X111260000Y-140164938D01*
X110743323Y-140681615D01*
X110577282Y-140279762D01*
X110297833Y-139999825D01*
X110576026Y-139722117D01*
X110769779Y-139255507D01*
X110770220Y-138750270D01*
X110577282Y-138283322D01*
X110220337Y-137925754D01*
X110201578Y-137917965D01*
X110208528Y-137888393D01*
X109500000Y-137179865D01*
X109485858Y-137194008D01*
X109306253Y-137014403D01*
X109320395Y-137000260D01*
X109679605Y-137000260D01*
X110388133Y-137708788D01*
X110617179Y-137654957D01*
X110782681Y-137177596D01*
X110752906Y-136673237D01*
X110617179Y-136345563D01*
X110388133Y-136291732D01*
X109679605Y-137000260D01*
X109320395Y-137000260D01*
X108611867Y-136291732D01*
X108382821Y-136345563D01*
X108281510Y-136637777D01*
X107755860Y-136112127D01*
X108791472Y-136112127D01*
X109500000Y-136820655D01*
X110208528Y-136112127D01*
X110154697Y-135883081D01*
X109677336Y-135717579D01*
X109172977Y-135747354D01*
X108845303Y-135883081D01*
X108791472Y-136112127D01*
X107755860Y-136112127D01*
X107459110Y-135815378D01*
X107459110Y-126106402D01*
X108230108Y-126877401D01*
X108230108Y-126877401D01*
G37*
X108230108Y-126877401D02*
X108229780Y-127253290D01*
X108422718Y-127720238D01*
X108702167Y-128000175D01*
X108423974Y-128277883D01*
X108230221Y-128744493D01*
X108229780Y-129249730D01*
X108422718Y-129716678D01*
X108530957Y-129825106D01*
X108413559Y-129900650D01*
X108268569Y-130112850D01*
X108217560Y-130364740D01*
X108217560Y-131634740D01*
X108261838Y-131870057D01*
X108400910Y-132086181D01*
X108613110Y-132231171D01*
X108865000Y-132282180D01*
X109707638Y-132282180D01*
X111350000Y-133924542D01*
X111350000Y-135190000D01*
X111407852Y-135480839D01*
X111572599Y-135727401D01*
X112810198Y-136965000D01*
X111482599Y-138292599D01*
X111317852Y-138539161D01*
X111260000Y-138830000D01*
X111260000Y-140164938D01*
X110743323Y-140681615D01*
X110577282Y-140279762D01*
X110297833Y-139999825D01*
X110576026Y-139722117D01*
X110769779Y-139255507D01*
X110770220Y-138750270D01*
X110577282Y-138283322D01*
X110220337Y-137925754D01*
X110201578Y-137917965D01*
X110208528Y-137888393D01*
X109500000Y-137179865D01*
X109485858Y-137194008D01*
X109306253Y-137014403D01*
X109320395Y-137000260D01*
X109679605Y-137000260D01*
X110388133Y-137708788D01*
X110617179Y-137654957D01*
X110782681Y-137177596D01*
X110752906Y-136673237D01*
X110617179Y-136345563D01*
X110388133Y-136291732D01*
X109679605Y-137000260D01*
X109320395Y-137000260D01*
X108611867Y-136291732D01*
X108382821Y-136345563D01*
X108281510Y-136637777D01*
X107755860Y-136112127D01*
X108791472Y-136112127D01*
X109500000Y-136820655D01*
X110208528Y-136112127D01*
X110154697Y-135883081D01*
X109677336Y-135717579D01*
X109172977Y-135747354D01*
X108845303Y-135883081D01*
X108791472Y-136112127D01*
X107755860Y-136112127D01*
X107459110Y-135815378D01*
X107459110Y-126106402D01*
X108230108Y-126877401D01*
G36*
X112399946Y-105849147D02*
X112881715Y-106171054D01*
X113450000Y-106284093D01*
X113687124Y-106236926D01*
X117266155Y-109815957D01*
X117200000Y-109802560D01*
X116600000Y-109802560D01*
X116364683Y-109846838D01*
X116219905Y-109940000D01*
X114150000Y-109940000D01*
X113859161Y-109997852D01*
X113612599Y-110162599D01*
X113292138Y-110483060D01*
X112918500Y-110483060D01*
X112683183Y-110527338D01*
X112467059Y-110666410D01*
X112365532Y-110815000D01*
X112125000Y-110815000D01*
X111834161Y-110872852D01*
X111587599Y-111037599D01*
X110460441Y-112164757D01*
X110220337Y-111924234D01*
X109753727Y-111730481D01*
X109248490Y-111730040D01*
X108781542Y-111922978D01*
X108423974Y-112279923D01*
X108230221Y-112746533D01*
X108229780Y-113251770D01*
X108422718Y-113718718D01*
X108704707Y-114001199D01*
X108423974Y-114281443D01*
X108230221Y-114748053D01*
X108229780Y-115253290D01*
X108422718Y-115720238D01*
X108702167Y-116000175D01*
X108423974Y-116277883D01*
X108230221Y-116744493D01*
X108229780Y-117249730D01*
X108422718Y-117716678D01*
X108530957Y-117825106D01*
X108413559Y-117900650D01*
X108268569Y-118112850D01*
X108217560Y-118364740D01*
X108217560Y-119634740D01*
X108261838Y-119870057D01*
X108400910Y-120086181D01*
X108613110Y-120231171D01*
X108865000Y-120282180D01*
X110135000Y-120282180D01*
X110370317Y-120237902D01*
X110533253Y-120133055D01*
X111462599Y-121062401D01*
X111709160Y-121227148D01*
X112000000Y-121285000D01*
X112366934Y-121285000D01*
X112454410Y-121420941D01*
X112666610Y-121565931D01*
X112918500Y-121616940D01*
X113807500Y-121616940D01*
X114042817Y-121572662D01*
X114124003Y-121520420D01*
X114190610Y-121565931D01*
X114442500Y-121616940D01*
X115331500Y-121616940D01*
X115516988Y-121582038D01*
X115734161Y-121727148D01*
X116025000Y-121785000D01*
X116146614Y-121785000D01*
X116273110Y-121871431D01*
X116525000Y-121922440D01*
X117125000Y-121922440D01*
X117360317Y-121878162D01*
X117384406Y-121862661D01*
X117498691Y-121910000D01*
X117639250Y-121910000D01*
X117798000Y-121751250D01*
X117798000Y-121150000D01*
X118052000Y-121150000D01*
X118052000Y-121751250D01*
X118210750Y-121910000D01*
X118351309Y-121910000D01*
X118584698Y-121813327D01*
X118763327Y-121634699D01*
X118860000Y-121401310D01*
X118860000Y-121308750D01*
X118701250Y-121150000D01*
X118052000Y-121150000D01*
X117798000Y-121150000D01*
X117778000Y-121150000D01*
X117778000Y-120900000D01*
X117798000Y-120900000D01*
X117798000Y-120878000D01*
X118052000Y-120878000D01*
X118052000Y-120900000D01*
X118701250Y-120900000D01*
X118860000Y-120741250D01*
X118860000Y-120648690D01*
X118763327Y-120415301D01*
X118584698Y-120236673D01*
X118351309Y-120140000D01*
X118334802Y-120140000D01*
X118462401Y-120012401D01*
X118627148Y-119765839D01*
X118638255Y-119710000D01*
X118675000Y-119710000D01*
X118965839Y-119652148D01*
X119212401Y-119487401D01*
X120115000Y-118584802D01*
X120115000Y-118701309D01*
X120211673Y-118934698D01*
X120390301Y-119113327D01*
X120623690Y-119210000D01*
X120653750Y-119210000D01*
X120812500Y-119051250D01*
X120812500Y-119035526D01*
X120890301Y-119113327D01*
X121076847Y-119190597D01*
X121096250Y-119210000D01*
X121153750Y-119210000D01*
X121173153Y-119190597D01*
X121359699Y-119113327D01*
X121375000Y-119098026D01*
X121390301Y-119113327D01*
X121576847Y-119190597D01*
X121596250Y-119210000D01*
X121653750Y-119210000D01*
X121673153Y-119190597D01*
X121859699Y-119113327D01*
X121881364Y-119091662D01*
X121998110Y-119171431D01*
X122072808Y-119186558D01*
X122096250Y-119210000D01*
X122126310Y-119210000D01*
X122146753Y-119201532D01*
X122250000Y-119222440D01*
X122500000Y-119222440D01*
X122629589Y-119198056D01*
X122750000Y-119222440D01*
X123000000Y-119222440D01*
X123235317Y-119178162D01*
X123451441Y-119039090D01*
X123596431Y-118826890D01*
X123647440Y-118575000D01*
X123647440Y-117475000D01*
X123635000Y-117408887D01*
X123635000Y-116575000D01*
X123577148Y-116284161D01*
X123412401Y-116037599D01*
X123212302Y-115837500D01*
X123412401Y-115637401D01*
X123577148Y-115390839D01*
X123635000Y-115100000D01*
X123635000Y-114336431D01*
X123647440Y-114275000D01*
X123647440Y-113887598D01*
X124875000Y-115115158D01*
X124875000Y-124514842D01*
X115786921Y-133602921D01*
X115616755Y-133857593D01*
X115616755Y-133857594D01*
X115615848Y-133862154D01*
X115580997Y-133884580D01*
X115514390Y-133839069D01*
X115262500Y-133788060D01*
X114373500Y-133788060D01*
X114138183Y-133832338D01*
X113922059Y-133971410D01*
X113821316Y-134118852D01*
X113790327Y-134087808D01*
X113446799Y-133945162D01*
X113074833Y-133944838D01*
X112870000Y-134029473D01*
X112870000Y-133609740D01*
X112812148Y-133318901D01*
X112812148Y-133318900D01*
X112647401Y-133072339D01*
X111334802Y-131759740D01*
X112450260Y-131759740D01*
X112741099Y-131701888D01*
X112987661Y-131537141D01*
X117374777Y-127150025D01*
X117675657Y-127025704D01*
X117924829Y-126776967D01*
X118059846Y-126451810D01*
X118060153Y-126099735D01*
X117925704Y-125774343D01*
X117676967Y-125525171D01*
X117351810Y-125390154D01*
X116999735Y-125389847D01*
X116674343Y-125524296D01*
X116425171Y-125773033D01*
X116299489Y-126075709D01*
X112135458Y-130239740D01*
X110758920Y-130239740D01*
X110738162Y-130129423D01*
X110599090Y-129913299D01*
X110469585Y-129824812D01*
X110576026Y-129718557D01*
X110769779Y-129251947D01*
X110770171Y-128802851D01*
X115588022Y-123985000D01*
X118825000Y-123985000D01*
X119115839Y-123927148D01*
X119362401Y-123762401D01*
X120099777Y-123025025D01*
X120400657Y-122900704D01*
X120649829Y-122651967D01*
X120784846Y-122326810D01*
X120785153Y-121974735D01*
X120650704Y-121649343D01*
X120401967Y-121400171D01*
X120076810Y-121265154D01*
X119724735Y-121264847D01*
X119399343Y-121399296D01*
X119150171Y-121648033D01*
X119024489Y-121950709D01*
X118510198Y-122465000D01*
X115273220Y-122465000D01*
X114982381Y-122522852D01*
X114735819Y-122687599D01*
X110772681Y-126650737D01*
X110658466Y-126479804D01*
X110577282Y-126283322D01*
X110220337Y-125925754D01*
X110201578Y-125917965D01*
X110208528Y-125888393D01*
X109500000Y-125179865D01*
X109485858Y-125194008D01*
X109306253Y-125014403D01*
X109320395Y-125000260D01*
X109679605Y-125000260D01*
X110388133Y-125708788D01*
X110617179Y-125654957D01*
X110782681Y-125177596D01*
X110752906Y-124673237D01*
X110617179Y-124345563D01*
X110388133Y-124291732D01*
X109679605Y-125000260D01*
X109320395Y-125000260D01*
X108611867Y-124291732D01*
X108382821Y-124345563D01*
X108281510Y-124637777D01*
X107755860Y-124112127D01*
X108791472Y-124112127D01*
X109500000Y-124820655D01*
X110208528Y-124112127D01*
X110154697Y-123883081D01*
X109677336Y-123717579D01*
X109172977Y-123747354D01*
X108845303Y-123883081D01*
X108791472Y-124112127D01*
X107755860Y-124112127D01*
X107435000Y-123791268D01*
X107435000Y-110985512D01*
X108942757Y-109477756D01*
X109118343Y-109214973D01*
X109180000Y-108905000D01*
X109180000Y-106267440D01*
X109220000Y-106267440D01*
X109455317Y-106223162D01*
X109671441Y-106084090D01*
X109816431Y-105871890D01*
X109830086Y-105804459D01*
X109859946Y-105849147D01*
X110341715Y-106171054D01*
X110910000Y-106284093D01*
X111478285Y-106171054D01*
X111960054Y-105849147D01*
X112180000Y-105519974D01*
X112399946Y-105849147D01*
X112399946Y-105849147D01*
G37*
X112399946Y-105849147D02*
X112881715Y-106171054D01*
X113450000Y-106284093D01*
X113687124Y-106236926D01*
X117266155Y-109815957D01*
X117200000Y-109802560D01*
X116600000Y-109802560D01*
X116364683Y-109846838D01*
X116219905Y-109940000D01*
X114150000Y-109940000D01*
X113859161Y-109997852D01*
X113612599Y-110162599D01*
X113292138Y-110483060D01*
X112918500Y-110483060D01*
X112683183Y-110527338D01*
X112467059Y-110666410D01*
X112365532Y-110815000D01*
X112125000Y-110815000D01*
X111834161Y-110872852D01*
X111587599Y-111037599D01*
X110460441Y-112164757D01*
X110220337Y-111924234D01*
X109753727Y-111730481D01*
X109248490Y-111730040D01*
X108781542Y-111922978D01*
X108423974Y-112279923D01*
X108230221Y-112746533D01*
X108229780Y-113251770D01*
X108422718Y-113718718D01*
X108704707Y-114001199D01*
X108423974Y-114281443D01*
X108230221Y-114748053D01*
X108229780Y-115253290D01*
X108422718Y-115720238D01*
X108702167Y-116000175D01*
X108423974Y-116277883D01*
X108230221Y-116744493D01*
X108229780Y-117249730D01*
X108422718Y-117716678D01*
X108530957Y-117825106D01*
X108413559Y-117900650D01*
X108268569Y-118112850D01*
X108217560Y-118364740D01*
X108217560Y-119634740D01*
X108261838Y-119870057D01*
X108400910Y-120086181D01*
X108613110Y-120231171D01*
X108865000Y-120282180D01*
X110135000Y-120282180D01*
X110370317Y-120237902D01*
X110533253Y-120133055D01*
X111462599Y-121062401D01*
X111709160Y-121227148D01*
X112000000Y-121285000D01*
X112366934Y-121285000D01*
X112454410Y-121420941D01*
X112666610Y-121565931D01*
X112918500Y-121616940D01*
X113807500Y-121616940D01*
X114042817Y-121572662D01*
X114124003Y-121520420D01*
X114190610Y-121565931D01*
X114442500Y-121616940D01*
X115331500Y-121616940D01*
X115516988Y-121582038D01*
X115734161Y-121727148D01*
X116025000Y-121785000D01*
X116146614Y-121785000D01*
X116273110Y-121871431D01*
X116525000Y-121922440D01*
X117125000Y-121922440D01*
X117360317Y-121878162D01*
X117384406Y-121862661D01*
X117498691Y-121910000D01*
X117639250Y-121910000D01*
X117798000Y-121751250D01*
X117798000Y-121150000D01*
X118052000Y-121150000D01*
X118052000Y-121751250D01*
X118210750Y-121910000D01*
X118351309Y-121910000D01*
X118584698Y-121813327D01*
X118763327Y-121634699D01*
X118860000Y-121401310D01*
X118860000Y-121308750D01*
X118701250Y-121150000D01*
X118052000Y-121150000D01*
X117798000Y-121150000D01*
X117778000Y-121150000D01*
X117778000Y-120900000D01*
X117798000Y-120900000D01*
X117798000Y-120878000D01*
X118052000Y-120878000D01*
X118052000Y-120900000D01*
X118701250Y-120900000D01*
X118860000Y-120741250D01*
X118860000Y-120648690D01*
X118763327Y-120415301D01*
X118584698Y-120236673D01*
X118351309Y-120140000D01*
X118334802Y-120140000D01*
X118462401Y-120012401D01*
X118627148Y-119765839D01*
X118638255Y-119710000D01*
X118675000Y-119710000D01*
X118965839Y-119652148D01*
X119212401Y-119487401D01*
X120115000Y-118584802D01*
X120115000Y-118701309D01*
X120211673Y-118934698D01*
X120390301Y-119113327D01*
X120623690Y-119210000D01*
X120653750Y-119210000D01*
X120812500Y-119051250D01*
X120812500Y-119035526D01*
X120890301Y-119113327D01*
X121076847Y-119190597D01*
X121096250Y-119210000D01*
X121153750Y-119210000D01*
X121173153Y-119190597D01*
X121359699Y-119113327D01*
X121375000Y-119098026D01*
X121390301Y-119113327D01*
X121576847Y-119190597D01*
X121596250Y-119210000D01*
X121653750Y-119210000D01*
X121673153Y-119190597D01*
X121859699Y-119113327D01*
X121881364Y-119091662D01*
X121998110Y-119171431D01*
X122072808Y-119186558D01*
X122096250Y-119210000D01*
X122126310Y-119210000D01*
X122146753Y-119201532D01*
X122250000Y-119222440D01*
X122500000Y-119222440D01*
X122629589Y-119198056D01*
X122750000Y-119222440D01*
X123000000Y-119222440D01*
X123235317Y-119178162D01*
X123451441Y-119039090D01*
X123596431Y-118826890D01*
X123647440Y-118575000D01*
X123647440Y-117475000D01*
X123635000Y-117408887D01*
X123635000Y-116575000D01*
X123577148Y-116284161D01*
X123412401Y-116037599D01*
X123212302Y-115837500D01*
X123412401Y-115637401D01*
X123577148Y-115390839D01*
X123635000Y-115100000D01*
X123635000Y-114336431D01*
X123647440Y-114275000D01*
X123647440Y-113887598D01*
X124875000Y-115115158D01*
X124875000Y-124514842D01*
X115786921Y-133602921D01*
X115616755Y-133857593D01*
X115616755Y-133857594D01*
X115615848Y-133862154D01*
X115580997Y-133884580D01*
X115514390Y-133839069D01*
X115262500Y-133788060D01*
X114373500Y-133788060D01*
X114138183Y-133832338D01*
X113922059Y-133971410D01*
X113821316Y-134118852D01*
X113790327Y-134087808D01*
X113446799Y-133945162D01*
X113074833Y-133944838D01*
X112870000Y-134029473D01*
X112870000Y-133609740D01*
X112812148Y-133318901D01*
X112812148Y-133318900D01*
X112647401Y-133072339D01*
X111334802Y-131759740D01*
X112450260Y-131759740D01*
X112741099Y-131701888D01*
X112987661Y-131537141D01*
X117374777Y-127150025D01*
X117675657Y-127025704D01*
X117924829Y-126776967D01*
X118059846Y-126451810D01*
X118060153Y-126099735D01*
X117925704Y-125774343D01*
X117676967Y-125525171D01*
X117351810Y-125390154D01*
X116999735Y-125389847D01*
X116674343Y-125524296D01*
X116425171Y-125773033D01*
X116299489Y-126075709D01*
X112135458Y-130239740D01*
X110758920Y-130239740D01*
X110738162Y-130129423D01*
X110599090Y-129913299D01*
X110469585Y-129824812D01*
X110576026Y-129718557D01*
X110769779Y-129251947D01*
X110770171Y-128802851D01*
X115588022Y-123985000D01*
X118825000Y-123985000D01*
X119115839Y-123927148D01*
X119362401Y-123762401D01*
X120099777Y-123025025D01*
X120400657Y-122900704D01*
X120649829Y-122651967D01*
X120784846Y-122326810D01*
X120785153Y-121974735D01*
X120650704Y-121649343D01*
X120401967Y-121400171D01*
X120076810Y-121265154D01*
X119724735Y-121264847D01*
X119399343Y-121399296D01*
X119150171Y-121648033D01*
X119024489Y-121950709D01*
X118510198Y-122465000D01*
X115273220Y-122465000D01*
X114982381Y-122522852D01*
X114735819Y-122687599D01*
X110772681Y-126650737D01*
X110658466Y-126479804D01*
X110577282Y-126283322D01*
X110220337Y-125925754D01*
X110201578Y-125917965D01*
X110208528Y-125888393D01*
X109500000Y-125179865D01*
X109485858Y-125194008D01*
X109306253Y-125014403D01*
X109320395Y-125000260D01*
X109679605Y-125000260D01*
X110388133Y-125708788D01*
X110617179Y-125654957D01*
X110782681Y-125177596D01*
X110752906Y-124673237D01*
X110617179Y-124345563D01*
X110388133Y-124291732D01*
X109679605Y-125000260D01*
X109320395Y-125000260D01*
X108611867Y-124291732D01*
X108382821Y-124345563D01*
X108281510Y-124637777D01*
X107755860Y-124112127D01*
X108791472Y-124112127D01*
X109500000Y-124820655D01*
X110208528Y-124112127D01*
X110154697Y-123883081D01*
X109677336Y-123717579D01*
X109172977Y-123747354D01*
X108845303Y-123883081D01*
X108791472Y-124112127D01*
X107755860Y-124112127D01*
X107435000Y-123791268D01*
X107435000Y-110985512D01*
X108942757Y-109477756D01*
X109118343Y-109214973D01*
X109180000Y-108905000D01*
X109180000Y-106267440D01*
X109220000Y-106267440D01*
X109455317Y-106223162D01*
X109671441Y-106084090D01*
X109816431Y-105871890D01*
X109830086Y-105804459D01*
X109859946Y-105849147D01*
X110341715Y-106171054D01*
X110910000Y-106284093D01*
X111478285Y-106171054D01*
X111960054Y-105849147D01*
X112180000Y-105519974D01*
X112399946Y-105849147D01*
G36*
X135550000Y-113625198D02*
X131392460Y-117782738D01*
X131392460Y-115382342D01*
X135550000Y-111224802D01*
X135550000Y-113625198D01*
X135550000Y-113625198D01*
G37*
X135550000Y-113625198D02*
X131392460Y-117782738D01*
X131392460Y-115382342D01*
X135550000Y-111224802D01*
X135550000Y-113625198D01*
G36*
X112454410Y-114670941D02*
X112666610Y-114815931D01*
X112918500Y-114866940D01*
X113807500Y-114866940D01*
X114042817Y-114822662D01*
X114124003Y-114770420D01*
X114190610Y-114815931D01*
X114442500Y-114866940D01*
X115331500Y-114866940D01*
X115566817Y-114822662D01*
X115737822Y-114712624D01*
X116002560Y-114977362D01*
X116002560Y-115100000D01*
X116046838Y-115335317D01*
X116185910Y-115551441D01*
X116398110Y-115696431D01*
X116650000Y-115747440D01*
X117250000Y-115747440D01*
X117485317Y-115703162D01*
X117509406Y-115687661D01*
X117623691Y-115735000D01*
X117764250Y-115735000D01*
X117923000Y-115576250D01*
X117923000Y-114975000D01*
X117903000Y-114975000D01*
X117903000Y-114725000D01*
X117923000Y-114725000D01*
X117923000Y-114703000D01*
X118177000Y-114703000D01*
X118177000Y-114725000D01*
X118197000Y-114725000D01*
X118197000Y-114975000D01*
X118177000Y-114975000D01*
X118177000Y-115576250D01*
X118335750Y-115735000D01*
X118476309Y-115735000D01*
X118709698Y-115638327D01*
X118888327Y-115459699D01*
X118938579Y-115338381D01*
X119500198Y-115900000D01*
X118860000Y-116540198D01*
X118860000Y-116448690D01*
X118763327Y-116215301D01*
X118584698Y-116036673D01*
X118351309Y-115940000D01*
X118210750Y-115940000D01*
X118052000Y-116098750D01*
X118052000Y-116700000D01*
X118072000Y-116700000D01*
X118072000Y-116950000D01*
X118052000Y-116950000D01*
X118052000Y-116972000D01*
X117798000Y-116972000D01*
X117798000Y-116950000D01*
X117778000Y-116950000D01*
X117778000Y-116700000D01*
X117798000Y-116700000D01*
X117798000Y-116098750D01*
X117639250Y-115940000D01*
X117498691Y-115940000D01*
X117387717Y-115985967D01*
X117376890Y-115978569D01*
X117125000Y-115927560D01*
X116525000Y-115927560D01*
X116289683Y-115971838D01*
X116073559Y-116110910D01*
X115985356Y-116240000D01*
X114350000Y-116240000D01*
X114059161Y-116297852D01*
X113812599Y-116462599D01*
X113242138Y-117033060D01*
X112893500Y-117033060D01*
X112658183Y-117077338D01*
X112442059Y-117216410D01*
X112340532Y-117365000D01*
X112039802Y-117365000D01*
X111135621Y-116460819D01*
X110889059Y-116296072D01*
X110598220Y-116238220D01*
X110535812Y-116238220D01*
X110297833Y-115999825D01*
X110536294Y-115761780D01*
X110823220Y-115761780D01*
X111114059Y-115703928D01*
X111360621Y-115539181D01*
X112364802Y-114535000D01*
X112366934Y-114535000D01*
X112454410Y-114670941D01*
X112454410Y-114670941D01*
G37*
X112454410Y-114670941D02*
X112666610Y-114815931D01*
X112918500Y-114866940D01*
X113807500Y-114866940D01*
X114042817Y-114822662D01*
X114124003Y-114770420D01*
X114190610Y-114815931D01*
X114442500Y-114866940D01*
X115331500Y-114866940D01*
X115566817Y-114822662D01*
X115737822Y-114712624D01*
X116002560Y-114977362D01*
X116002560Y-115100000D01*
X116046838Y-115335317D01*
X116185910Y-115551441D01*
X116398110Y-115696431D01*
X116650000Y-115747440D01*
X117250000Y-115747440D01*
X117485317Y-115703162D01*
X117509406Y-115687661D01*
X117623691Y-115735000D01*
X117764250Y-115735000D01*
X117923000Y-115576250D01*
X117923000Y-114975000D01*
X117903000Y-114975000D01*
X117903000Y-114725000D01*
X117923000Y-114725000D01*
X117923000Y-114703000D01*
X118177000Y-114703000D01*
X118177000Y-114725000D01*
X118197000Y-114725000D01*
X118197000Y-114975000D01*
X118177000Y-114975000D01*
X118177000Y-115576250D01*
X118335750Y-115735000D01*
X118476309Y-115735000D01*
X118709698Y-115638327D01*
X118888327Y-115459699D01*
X118938579Y-115338381D01*
X119500198Y-115900000D01*
X118860000Y-116540198D01*
X118860000Y-116448690D01*
X118763327Y-116215301D01*
X118584698Y-116036673D01*
X118351309Y-115940000D01*
X118210750Y-115940000D01*
X118052000Y-116098750D01*
X118052000Y-116700000D01*
X118072000Y-116700000D01*
X118072000Y-116950000D01*
X118052000Y-116950000D01*
X118052000Y-116972000D01*
X117798000Y-116972000D01*
X117798000Y-116950000D01*
X117778000Y-116950000D01*
X117778000Y-116700000D01*
X117798000Y-116700000D01*
X117798000Y-116098750D01*
X117639250Y-115940000D01*
X117498691Y-115940000D01*
X117387717Y-115985967D01*
X117376890Y-115978569D01*
X117125000Y-115927560D01*
X116525000Y-115927560D01*
X116289683Y-115971838D01*
X116073559Y-116110910D01*
X115985356Y-116240000D01*
X114350000Y-116240000D01*
X114059161Y-116297852D01*
X113812599Y-116462599D01*
X113242138Y-117033060D01*
X112893500Y-117033060D01*
X112658183Y-117077338D01*
X112442059Y-117216410D01*
X112340532Y-117365000D01*
X112039802Y-117365000D01*
X111135621Y-116460819D01*
X110889059Y-116296072D01*
X110598220Y-116238220D01*
X110535812Y-116238220D01*
X110297833Y-115999825D01*
X110536294Y-115761780D01*
X110823220Y-115761780D01*
X111114059Y-115703928D01*
X111360621Y-115539181D01*
X112364802Y-114535000D01*
X112366934Y-114535000D01*
X112454410Y-114670941D01*
G36*
X138977000Y-104643000D02*
X138997000Y-104643000D01*
X138997000Y-104897000D01*
X138977000Y-104897000D01*
X138977000Y-106090155D01*
X139206890Y-106211476D01*
X139390000Y-106135634D01*
X139390000Y-107400000D01*
X139447852Y-107690839D01*
X139612599Y-107937401D01*
X145673283Y-113998085D01*
X145571841Y-114040000D01*
X137539802Y-114040000D01*
X137070000Y-113570198D01*
X137070000Y-106042954D01*
X137360054Y-105849147D01*
X137587702Y-105508447D01*
X137654817Y-105651358D01*
X138083076Y-106041645D01*
X138493110Y-106211476D01*
X138723000Y-106090155D01*
X138723000Y-104897000D01*
X138703000Y-104897000D01*
X138703000Y-104643000D01*
X138723000Y-104643000D01*
X138723000Y-104623000D01*
X138977000Y-104623000D01*
X138977000Y-104643000D01*
X138977000Y-104643000D01*
G37*
X138977000Y-104643000D02*
X138997000Y-104643000D01*
X138997000Y-104897000D01*
X138977000Y-104897000D01*
X138977000Y-106090155D01*
X139206890Y-106211476D01*
X139390000Y-106135634D01*
X139390000Y-107400000D01*
X139447852Y-107690839D01*
X139612599Y-107937401D01*
X145673283Y-113998085D01*
X145571841Y-114040000D01*
X137539802Y-114040000D01*
X137070000Y-113570198D01*
X137070000Y-106042954D01*
X137360054Y-105849147D01*
X137587702Y-105508447D01*
X137654817Y-105651358D01*
X138083076Y-106041645D01*
X138493110Y-106211476D01*
X138723000Y-106090155D01*
X138723000Y-104897000D01*
X138703000Y-104897000D01*
X138703000Y-104643000D01*
X138723000Y-104643000D01*
X138723000Y-104623000D01*
X138977000Y-104623000D01*
X138977000Y-104643000D01*
G36*
X134290000Y-110335198D02*
X131234966Y-113390232D01*
X131235162Y-113164833D01*
X131093117Y-112821057D01*
X130830327Y-112557808D01*
X130538268Y-112436534D01*
X134290000Y-108684802D01*
X134290000Y-110335198D01*
X134290000Y-110335198D01*
G37*
X134290000Y-110335198D02*
X131234966Y-113390232D01*
X131235162Y-113164833D01*
X131093117Y-112821057D01*
X130830327Y-112557808D01*
X130538268Y-112436534D01*
X134290000Y-108684802D01*
X134290000Y-110335198D01*
G36*
X119208060Y-110294862D02*
X119208060Y-110756500D01*
X119252338Y-110991817D01*
X119391410Y-111207941D01*
X119451321Y-111248877D01*
X119100223Y-111599975D01*
X118799343Y-111724296D01*
X118671966Y-111851450D01*
X118601890Y-111803569D01*
X118478354Y-111778552D01*
X118127002Y-111427200D01*
X118127002Y-111426252D01*
X118285750Y-111585000D01*
X118426309Y-111585000D01*
X118659698Y-111488327D01*
X118838327Y-111309699D01*
X118935000Y-111076310D01*
X118935000Y-110983750D01*
X118776250Y-110825000D01*
X118127000Y-110825000D01*
X118127000Y-110847000D01*
X117873000Y-110847000D01*
X117873000Y-110825000D01*
X117853000Y-110825000D01*
X117853000Y-110575000D01*
X117873000Y-110575000D01*
X117873000Y-110553000D01*
X118127000Y-110553000D01*
X118127000Y-110575000D01*
X118776250Y-110575000D01*
X118935000Y-110416250D01*
X118935000Y-110323690D01*
X118846487Y-110110000D01*
X119023198Y-110110000D01*
X119208060Y-110294862D01*
X119208060Y-110294862D01*
G37*
X119208060Y-110294862D02*
X119208060Y-110756500D01*
X119252338Y-110991817D01*
X119391410Y-111207941D01*
X119451321Y-111248877D01*
X119100223Y-111599975D01*
X118799343Y-111724296D01*
X118671966Y-111851450D01*
X118601890Y-111803569D01*
X118478354Y-111778552D01*
X118127002Y-111427200D01*
X118127002Y-111426252D01*
X118285750Y-111585000D01*
X118426309Y-111585000D01*
X118659698Y-111488327D01*
X118838327Y-111309699D01*
X118935000Y-111076310D01*
X118935000Y-110983750D01*
X118776250Y-110825000D01*
X118127000Y-110825000D01*
X118127000Y-110847000D01*
X117873000Y-110847000D01*
X117873000Y-110825000D01*
X117853000Y-110825000D01*
X117853000Y-110575000D01*
X117873000Y-110575000D01*
X117873000Y-110553000D01*
X118127000Y-110553000D01*
X118127000Y-110575000D01*
X118776250Y-110575000D01*
X118935000Y-110416250D01*
X118935000Y-110323690D01*
X118846487Y-110110000D01*
X119023198Y-110110000D01*
X119208060Y-110294862D01*
G36*
X118657000Y-104643000D02*
X118677000Y-104643000D01*
X118677000Y-104897000D01*
X118657000Y-104897000D01*
X118657000Y-106090155D01*
X118886890Y-106211476D01*
X119296924Y-106041645D01*
X119725183Y-105651358D01*
X119792298Y-105508447D01*
X120019946Y-105849147D01*
X120501715Y-106171054D01*
X121070000Y-106284093D01*
X121638285Y-106171054D01*
X122120054Y-105849147D01*
X122340000Y-105519974D01*
X122559946Y-105849147D01*
X123041715Y-106171054D01*
X123610000Y-106284093D01*
X124178285Y-106171054D01*
X124660054Y-105849147D01*
X124880000Y-105519974D01*
X125099946Y-105849147D01*
X125581715Y-106171054D01*
X126150000Y-106284093D01*
X126718285Y-106171054D01*
X127200054Y-105849147D01*
X127420000Y-105519974D01*
X127639946Y-105849147D01*
X127905000Y-106026250D01*
X127905000Y-106334842D01*
X126286842Y-107953000D01*
X123529979Y-107953000D01*
X123458590Y-107842059D01*
X123246390Y-107697069D01*
X122994500Y-107646060D01*
X122105500Y-107646060D01*
X121870183Y-107690338D01*
X121654059Y-107829410D01*
X121535450Y-108003000D01*
X121279979Y-108003000D01*
X121208590Y-107892059D01*
X120996390Y-107747069D01*
X120744500Y-107696060D01*
X119855500Y-107696060D01*
X119620183Y-107740338D01*
X119404059Y-107879410D01*
X119259069Y-108091610D01*
X119208060Y-108343500D01*
X119208060Y-108590000D01*
X118189802Y-108590000D01*
X115857549Y-106257747D01*
X115990000Y-106284093D01*
X116558285Y-106171054D01*
X117040054Y-105849147D01*
X117267702Y-105508447D01*
X117334817Y-105651358D01*
X117763076Y-106041645D01*
X118173110Y-106211476D01*
X118403000Y-106090155D01*
X118403000Y-104897000D01*
X118383000Y-104897000D01*
X118383000Y-104643000D01*
X118403000Y-104643000D01*
X118403000Y-104623000D01*
X118657000Y-104623000D01*
X118657000Y-104643000D01*
X118657000Y-104643000D01*
G37*
X118657000Y-104643000D02*
X118677000Y-104643000D01*
X118677000Y-104897000D01*
X118657000Y-104897000D01*
X118657000Y-106090155D01*
X118886890Y-106211476D01*
X119296924Y-106041645D01*
X119725183Y-105651358D01*
X119792298Y-105508447D01*
X120019946Y-105849147D01*
X120501715Y-106171054D01*
X121070000Y-106284093D01*
X121638285Y-106171054D01*
X122120054Y-105849147D01*
X122340000Y-105519974D01*
X122559946Y-105849147D01*
X123041715Y-106171054D01*
X123610000Y-106284093D01*
X124178285Y-106171054D01*
X124660054Y-105849147D01*
X124880000Y-105519974D01*
X125099946Y-105849147D01*
X125581715Y-106171054D01*
X126150000Y-106284093D01*
X126718285Y-106171054D01*
X127200054Y-105849147D01*
X127420000Y-105519974D01*
X127639946Y-105849147D01*
X127905000Y-106026250D01*
X127905000Y-106334842D01*
X126286842Y-107953000D01*
X123529979Y-107953000D01*
X123458590Y-107842059D01*
X123246390Y-107697069D01*
X122994500Y-107646060D01*
X122105500Y-107646060D01*
X121870183Y-107690338D01*
X121654059Y-107829410D01*
X121535450Y-108003000D01*
X121279979Y-108003000D01*
X121208590Y-107892059D01*
X120996390Y-107747069D01*
X120744500Y-107696060D01*
X119855500Y-107696060D01*
X119620183Y-107740338D01*
X119404059Y-107879410D01*
X119259069Y-108091610D01*
X119208060Y-108343500D01*
X119208060Y-108590000D01*
X118189802Y-108590000D01*
X115857549Y-106257747D01*
X115990000Y-106284093D01*
X116558285Y-106171054D01*
X117040054Y-105849147D01*
X117267702Y-105508447D01*
X117334817Y-105651358D01*
X117763076Y-106041645D01*
X118173110Y-106211476D01*
X118403000Y-106090155D01*
X118403000Y-104897000D01*
X118383000Y-104897000D01*
X118383000Y-104643000D01*
X118403000Y-104643000D01*
X118403000Y-104623000D01*
X118657000Y-104623000D01*
X118657000Y-104643000D01*
G36*
X120019946Y-103309147D02*
X120305578Y-103500000D01*
X120019946Y-103690853D01*
X119792298Y-104031553D01*
X119725183Y-103888642D01*
X119296924Y-103498355D01*
X119296899Y-103498345D01*
X119580054Y-103309147D01*
X119800000Y-102979974D01*
X120019946Y-103309147D01*
X120019946Y-103309147D01*
G37*
X120019946Y-103309147D02*
X120305578Y-103500000D01*
X120019946Y-103690853D01*
X119792298Y-104031553D01*
X119725183Y-103888642D01*
X119296924Y-103498355D01*
X119296899Y-103498345D01*
X119580054Y-103309147D01*
X119800000Y-102979974D01*
X120019946Y-103309147D01*
G36*
X117479946Y-103309147D02*
X117763101Y-103498345D01*
X117763076Y-103498355D01*
X117334817Y-103888642D01*
X117267702Y-104031553D01*
X117040054Y-103690853D01*
X116754422Y-103500000D01*
X117040054Y-103309147D01*
X117260000Y-102979974D01*
X117479946Y-103309147D01*
X117479946Y-103309147D01*
G37*
X117479946Y-103309147D02*
X117763101Y-103498345D01*
X117763076Y-103498355D01*
X117334817Y-103888642D01*
X117267702Y-104031553D01*
X117040054Y-103690853D01*
X116754422Y-103500000D01*
X117040054Y-103309147D01*
X117260000Y-102979974D01*
X117479946Y-103309147D01*
G36*
X122414817Y-103111358D02*
X122843076Y-103501645D01*
X122843101Y-103501655D01*
X122559946Y-103690853D01*
X122340000Y-104020026D01*
X122120054Y-103690853D01*
X121834422Y-103500000D01*
X122120054Y-103309147D01*
X122347702Y-102968447D01*
X122414817Y-103111358D01*
X122414817Y-103111358D01*
G37*
X122414817Y-103111358D02*
X122843076Y-103501645D01*
X122843101Y-103501655D01*
X122559946Y-103690853D01*
X122340000Y-104020026D01*
X122120054Y-103690853D01*
X121834422Y-103500000D01*
X122120054Y-103309147D01*
X122347702Y-102968447D01*
X122414817Y-103111358D01*
G36*
X114939946Y-103309147D02*
X115225578Y-103500000D01*
X114939946Y-103690853D01*
X114720000Y-104020026D01*
X114500054Y-103690853D01*
X114216899Y-103501655D01*
X114216924Y-103501645D01*
X114645183Y-103111358D01*
X114712298Y-102968447D01*
X114939946Y-103309147D01*
X114939946Y-103309147D01*
G37*
X114939946Y-103309147D02*
X115225578Y-103500000D01*
X114939946Y-103690853D01*
X114720000Y-104020026D01*
X114500054Y-103690853D01*
X114216899Y-103501655D01*
X114216924Y-103501645D01*
X114645183Y-103111358D01*
X114712298Y-102968447D01*
X114939946Y-103309147D01*
G36*
X130034817Y-103111358D02*
X130463076Y-103501645D01*
X130463101Y-103501655D01*
X130179946Y-103690853D01*
X129960000Y-104020026D01*
X129740054Y-103690853D01*
X129454422Y-103500000D01*
X129740054Y-103309147D01*
X129967702Y-102968447D01*
X130034817Y-103111358D01*
X130034817Y-103111358D01*
G37*
X130034817Y-103111358D02*
X130463076Y-103501645D01*
X130463101Y-103501655D01*
X130179946Y-103690853D01*
X129960000Y-104020026D01*
X129740054Y-103690853D01*
X129454422Y-103500000D01*
X129740054Y-103309147D01*
X129967702Y-102968447D01*
X130034817Y-103111358D01*
M02*
