G04 #@! TF.FileFunction,Legend,Top*
%FSLAX46Y46*%
G04 Gerber Fmt 4.6, Leading zero omitted, Abs format (unit mm)*
G04 Created by KiCad (PCBNEW 4.0.6) date Mon Apr 10 22:16:24 2017*
%MOMM*%
%LPD*%
G01*
G04 APERTURE LIST*
%ADD10C,0.100000*%
%ADD11C,0.250000*%
%ADD12C,0.200000*%
%ADD13C,0.300000*%
%ADD14C,0.127000*%
%ADD15C,0.010000*%
%ADD16C,0.254000*%
%ADD17C,0.120000*%
%ADD18C,0.150000*%
%ADD19C,0.299720*%
%ADD20C,0.101600*%
G04 APERTURE END LIST*
D10*
D11*
X111409048Y-114931429D02*
X112170953Y-114931429D01*
X111790001Y-115312381D02*
X111790001Y-114550476D01*
X116631905Y-124032381D02*
X116060476Y-124032381D01*
X116346190Y-124032381D02*
X116346190Y-123032381D01*
X116250952Y-123175238D01*
X116155714Y-123270476D01*
X116060476Y-123318095D01*
X117250952Y-123032381D02*
X117346191Y-123032381D01*
X117441429Y-123080000D01*
X117489048Y-123127619D01*
X117536667Y-123222857D01*
X117584286Y-123413333D01*
X117584286Y-123651429D01*
X117536667Y-123841905D01*
X117489048Y-123937143D01*
X117441429Y-123984762D01*
X117346191Y-124032381D01*
X117250952Y-124032381D01*
X117155714Y-123984762D01*
X117108095Y-123937143D01*
X117060476Y-123841905D01*
X117012857Y-123651429D01*
X117012857Y-123413333D01*
X117060476Y-123222857D01*
X117108095Y-123127619D01*
X117155714Y-123080000D01*
X117250952Y-123032381D01*
X118203333Y-123032381D02*
X118298572Y-123032381D01*
X118393810Y-123080000D01*
X118441429Y-123127619D01*
X118489048Y-123222857D01*
X118536667Y-123413333D01*
X118536667Y-123651429D01*
X118489048Y-123841905D01*
X118441429Y-123937143D01*
X118393810Y-123984762D01*
X118298572Y-124032381D01*
X118203333Y-124032381D01*
X118108095Y-123984762D01*
X118060476Y-123937143D01*
X118012857Y-123841905D01*
X117965238Y-123651429D01*
X117965238Y-123413333D01*
X118012857Y-123222857D01*
X118060476Y-123127619D01*
X118108095Y-123080000D01*
X118203333Y-123032381D01*
X118965238Y-124032381D02*
X118965238Y-123032381D01*
X119536667Y-124032381D02*
X119108095Y-123460952D01*
X119536667Y-123032381D02*
X118965238Y-123603810D01*
X119965238Y-123651429D02*
X120727143Y-123651429D01*
X120346191Y-124032381D02*
X120346191Y-123270476D01*
X121108095Y-123032381D02*
X121727143Y-123032381D01*
X121393809Y-123413333D01*
X121536667Y-123413333D01*
X121631905Y-123460952D01*
X121679524Y-123508571D01*
X121727143Y-123603810D01*
X121727143Y-123841905D01*
X121679524Y-123937143D01*
X121631905Y-123984762D01*
X121536667Y-124032381D01*
X121250952Y-124032381D01*
X121155714Y-123984762D01*
X121108095Y-123937143D01*
X122346190Y-123032381D02*
X122441429Y-123032381D01*
X122536667Y-123080000D01*
X122584286Y-123127619D01*
X122631905Y-123222857D01*
X122679524Y-123413333D01*
X122679524Y-123651429D01*
X122631905Y-123841905D01*
X122584286Y-123937143D01*
X122536667Y-123984762D01*
X122441429Y-124032381D01*
X122346190Y-124032381D01*
X122250952Y-123984762D01*
X122203333Y-123937143D01*
X122155714Y-123841905D01*
X122108095Y-123651429D01*
X122108095Y-123413333D01*
X122155714Y-123222857D01*
X122203333Y-123127619D01*
X122250952Y-123080000D01*
X122346190Y-123032381D01*
X123108095Y-124032381D02*
X123108095Y-123032381D01*
X123679524Y-124032381D02*
X123250952Y-123460952D01*
X123679524Y-123032381D02*
X123108095Y-123603810D01*
X115131905Y-125782381D02*
X114560476Y-125782381D01*
X114846190Y-125782381D02*
X114846190Y-124782381D01*
X114750952Y-124925238D01*
X114655714Y-125020476D01*
X114560476Y-125068095D01*
X115465238Y-124782381D02*
X116084286Y-124782381D01*
X115750952Y-125163333D01*
X115893810Y-125163333D01*
X115989048Y-125210952D01*
X116036667Y-125258571D01*
X116084286Y-125353810D01*
X116084286Y-125591905D01*
X116036667Y-125687143D01*
X115989048Y-125734762D01*
X115893810Y-125782381D01*
X115608095Y-125782381D01*
X115512857Y-125734762D01*
X115465238Y-125687143D01*
X116703333Y-124782381D02*
X116798572Y-124782381D01*
X116893810Y-124830000D01*
X116941429Y-124877619D01*
X116989048Y-124972857D01*
X117036667Y-125163333D01*
X117036667Y-125401429D01*
X116989048Y-125591905D01*
X116941429Y-125687143D01*
X116893810Y-125734762D01*
X116798572Y-125782381D01*
X116703333Y-125782381D01*
X116608095Y-125734762D01*
X116560476Y-125687143D01*
X116512857Y-125591905D01*
X116465238Y-125401429D01*
X116465238Y-125163333D01*
X116512857Y-124972857D01*
X116560476Y-124877619D01*
X116608095Y-124830000D01*
X116703333Y-124782381D01*
X117465238Y-125687143D02*
X117512857Y-125734762D01*
X117465238Y-125782381D01*
X117417619Y-125734762D01*
X117465238Y-125687143D01*
X117465238Y-125782381D01*
X117465238Y-125163333D02*
X117512857Y-125210952D01*
X117465238Y-125258571D01*
X117417619Y-125210952D01*
X117465238Y-125163333D01*
X117465238Y-125258571D01*
X117846190Y-124782381D02*
X118465238Y-124782381D01*
X118131904Y-125163333D01*
X118274762Y-125163333D01*
X118370000Y-125210952D01*
X118417619Y-125258571D01*
X118465238Y-125353810D01*
X118465238Y-125591905D01*
X118417619Y-125687143D01*
X118370000Y-125734762D01*
X118274762Y-125782381D01*
X117989047Y-125782381D01*
X117893809Y-125734762D01*
X117846190Y-125687143D01*
X119084285Y-124782381D02*
X119179524Y-124782381D01*
X119274762Y-124830000D01*
X119322381Y-124877619D01*
X119370000Y-124972857D01*
X119417619Y-125163333D01*
X119417619Y-125401429D01*
X119370000Y-125591905D01*
X119322381Y-125687143D01*
X119274762Y-125734762D01*
X119179524Y-125782381D01*
X119084285Y-125782381D01*
X118989047Y-125734762D01*
X118941428Y-125687143D01*
X118893809Y-125591905D01*
X118846190Y-125401429D01*
X118846190Y-125163333D01*
X118893809Y-124972857D01*
X118941428Y-124877619D01*
X118989047Y-124830000D01*
X119084285Y-124782381D01*
X121036667Y-125782381D02*
X121036667Y-124782381D01*
X121036667Y-125734762D02*
X120941429Y-125782381D01*
X120750952Y-125782381D01*
X120655714Y-125734762D01*
X120608095Y-125687143D01*
X120560476Y-125591905D01*
X120560476Y-125306190D01*
X120608095Y-125210952D01*
X120655714Y-125163333D01*
X120750952Y-125115714D01*
X120941429Y-125115714D01*
X121036667Y-125163333D01*
X121512857Y-125782381D02*
X121512857Y-125115714D01*
X121512857Y-124782381D02*
X121465238Y-124830000D01*
X121512857Y-124877619D01*
X121560476Y-124830000D01*
X121512857Y-124782381D01*
X121512857Y-124877619D01*
X121893809Y-125115714D02*
X122131904Y-125782381D01*
X122370000Y-125115714D01*
X122750952Y-125782381D02*
X122750952Y-125115714D01*
X122750952Y-124782381D02*
X122703333Y-124830000D01*
X122750952Y-124877619D01*
X122798571Y-124830000D01*
X122750952Y-124782381D01*
X122750952Y-124877619D01*
X123655714Y-125782381D02*
X123655714Y-124782381D01*
X123655714Y-125734762D02*
X123560476Y-125782381D01*
X123369999Y-125782381D01*
X123274761Y-125734762D01*
X123227142Y-125687143D01*
X123179523Y-125591905D01*
X123179523Y-125306190D01*
X123227142Y-125210952D01*
X123274761Y-125163333D01*
X123369999Y-125115714D01*
X123560476Y-125115714D01*
X123655714Y-125163333D01*
X124512857Y-125734762D02*
X124417619Y-125782381D01*
X124227142Y-125782381D01*
X124131904Y-125734762D01*
X124084285Y-125639524D01*
X124084285Y-125258571D01*
X124131904Y-125163333D01*
X124227142Y-125115714D01*
X124417619Y-125115714D01*
X124512857Y-125163333D01*
X124560476Y-125258571D01*
X124560476Y-125353810D01*
X124084285Y-125449048D01*
X124989047Y-125782381D02*
X124989047Y-125115714D01*
X124989047Y-125306190D02*
X125036666Y-125210952D01*
X125084285Y-125163333D01*
X125179523Y-125115714D01*
X125274762Y-125115714D01*
X117465238Y-126865714D02*
X117846190Y-126865714D01*
X117608095Y-126532381D02*
X117608095Y-127389524D01*
X117655714Y-127484762D01*
X117750952Y-127532381D01*
X117846190Y-127532381D01*
X118322381Y-127532381D02*
X118227143Y-127484762D01*
X118179524Y-127437143D01*
X118131905Y-127341905D01*
X118131905Y-127056190D01*
X118179524Y-126960952D01*
X118227143Y-126913333D01*
X118322381Y-126865714D01*
X118465239Y-126865714D01*
X118560477Y-126913333D01*
X118608096Y-126960952D01*
X118655715Y-127056190D01*
X118655715Y-127341905D01*
X118608096Y-127437143D01*
X118560477Y-127484762D01*
X118465239Y-127532381D01*
X118322381Y-127532381D01*
X119750953Y-126532381D02*
X120370001Y-126532381D01*
X120036667Y-126913333D01*
X120179525Y-126913333D01*
X120274763Y-126960952D01*
X120322382Y-127008571D01*
X120370001Y-127103810D01*
X120370001Y-127341905D01*
X120322382Y-127437143D01*
X120274763Y-127484762D01*
X120179525Y-127532381D01*
X119893810Y-127532381D01*
X119798572Y-127484762D01*
X119750953Y-127437143D01*
X120655715Y-126532381D02*
X120989048Y-127532381D01*
X121322382Y-126532381D01*
X121560477Y-126532381D02*
X122179525Y-126532381D01*
X121846191Y-126913333D01*
X121989049Y-126913333D01*
X122084287Y-126960952D01*
X122131906Y-127008571D01*
X122179525Y-127103810D01*
X122179525Y-127341905D01*
X122131906Y-127437143D01*
X122084287Y-127484762D01*
X121989049Y-127532381D01*
X121703334Y-127532381D01*
X121608096Y-127484762D01*
X121560477Y-127437143D01*
D12*
X124791667Y-119194048D02*
X124791667Y-118717857D01*
X125077381Y-119289286D02*
X124077381Y-118955953D01*
X125077381Y-118622619D01*
X125077381Y-118289286D02*
X124077381Y-118289286D01*
X124077381Y-118051191D01*
X124125000Y-117908333D01*
X124220238Y-117813095D01*
X124315476Y-117765476D01*
X124505952Y-117717857D01*
X124648810Y-117717857D01*
X124839286Y-117765476D01*
X124934524Y-117813095D01*
X125029762Y-117908333D01*
X125077381Y-118051191D01*
X125077381Y-118289286D01*
X125029762Y-117336905D02*
X125077381Y-117194048D01*
X125077381Y-116955952D01*
X125029762Y-116860714D01*
X124982143Y-116813095D01*
X124886905Y-116765476D01*
X124791667Y-116765476D01*
X124696429Y-116813095D01*
X124648810Y-116860714D01*
X124601190Y-116955952D01*
X124553571Y-117146429D01*
X124505952Y-117241667D01*
X124458333Y-117289286D01*
X124363095Y-117336905D01*
X124267857Y-117336905D01*
X124172619Y-117289286D01*
X124125000Y-117241667D01*
X124077381Y-117146429D01*
X124077381Y-116908333D01*
X124125000Y-116765476D01*
X125077381Y-115813095D02*
X125077381Y-116384524D01*
X125077381Y-116098810D02*
X124077381Y-116098810D01*
X124220238Y-116194048D01*
X124315476Y-116289286D01*
X124363095Y-116384524D01*
X124077381Y-115194048D02*
X124077381Y-115098809D01*
X124125000Y-115003571D01*
X124172619Y-114955952D01*
X124267857Y-114908333D01*
X124458333Y-114860714D01*
X124696429Y-114860714D01*
X124886905Y-114908333D01*
X124982143Y-114955952D01*
X125029762Y-115003571D01*
X125077381Y-115098809D01*
X125077381Y-115194048D01*
X125029762Y-115289286D01*
X124982143Y-115336905D01*
X124886905Y-115384524D01*
X124696429Y-115432143D01*
X124458333Y-115432143D01*
X124267857Y-115384524D01*
X124172619Y-115336905D01*
X124125000Y-115289286D01*
X124077381Y-115194048D01*
X125077381Y-113908333D02*
X125077381Y-114479762D01*
X125077381Y-114194048D02*
X124077381Y-114194048D01*
X124220238Y-114289286D01*
X124315476Y-114384524D01*
X124363095Y-114479762D01*
X124077381Y-113003571D02*
X124077381Y-113479762D01*
X124553571Y-113527381D01*
X124505952Y-113479762D01*
X124458333Y-113384524D01*
X124458333Y-113146428D01*
X124505952Y-113051190D01*
X124553571Y-113003571D01*
X124648810Y-112955952D01*
X124886905Y-112955952D01*
X124982143Y-113003571D01*
X125029762Y-113051190D01*
X125077381Y-113146428D01*
X125077381Y-113384524D01*
X125029762Y-113479762D01*
X124982143Y-113527381D01*
D11*
X111848096Y-136480000D02*
X111752858Y-136432381D01*
X111610001Y-136432381D01*
X111467143Y-136480000D01*
X111371905Y-136575238D01*
X111324286Y-136670476D01*
X111276667Y-136860952D01*
X111276667Y-137003810D01*
X111324286Y-137194286D01*
X111371905Y-137289524D01*
X111467143Y-137384762D01*
X111610001Y-137432381D01*
X111705239Y-137432381D01*
X111848096Y-137384762D01*
X111895715Y-137337143D01*
X111895715Y-137003810D01*
X111705239Y-137003810D01*
X112324286Y-137432381D02*
X112324286Y-136432381D01*
X112895715Y-137432381D01*
X112895715Y-136432381D01*
X113371905Y-137432381D02*
X113371905Y-136432381D01*
X113610000Y-136432381D01*
X113752858Y-136480000D01*
X113848096Y-136575238D01*
X113895715Y-136670476D01*
X113943334Y-136860952D01*
X113943334Y-137003810D01*
X113895715Y-137194286D01*
X113848096Y-137289524D01*
X113752858Y-137384762D01*
X113610000Y-137432381D01*
X113371905Y-137432381D01*
X111296667Y-138522381D02*
X111630000Y-139522381D01*
X111963334Y-138522381D01*
X112868096Y-139427143D02*
X112820477Y-139474762D01*
X112677620Y-139522381D01*
X112582382Y-139522381D01*
X112439524Y-139474762D01*
X112344286Y-139379524D01*
X112296667Y-139284286D01*
X112249048Y-139093810D01*
X112249048Y-138950952D01*
X112296667Y-138760476D01*
X112344286Y-138665238D01*
X112439524Y-138570000D01*
X112582382Y-138522381D01*
X112677620Y-138522381D01*
X112820477Y-138570000D01*
X112868096Y-138617619D01*
X113868096Y-139427143D02*
X113820477Y-139474762D01*
X113677620Y-139522381D01*
X113582382Y-139522381D01*
X113439524Y-139474762D01*
X113344286Y-139379524D01*
X113296667Y-139284286D01*
X113249048Y-139093810D01*
X113249048Y-138950952D01*
X113296667Y-138760476D01*
X113344286Y-138665238D01*
X113439524Y-138570000D01*
X113582382Y-138522381D01*
X113677620Y-138522381D01*
X113820477Y-138570000D01*
X113868096Y-138617619D01*
X111505714Y-141524762D02*
X111648571Y-141572381D01*
X111886667Y-141572381D01*
X111981905Y-141524762D01*
X112029524Y-141477143D01*
X112077143Y-141381905D01*
X112077143Y-141286667D01*
X112029524Y-141191429D01*
X111981905Y-141143810D01*
X111886667Y-141096190D01*
X111696190Y-141048571D01*
X111600952Y-141000952D01*
X111553333Y-140953333D01*
X111505714Y-140858095D01*
X111505714Y-140762857D01*
X111553333Y-140667619D01*
X111600952Y-140620000D01*
X111696190Y-140572381D01*
X111934286Y-140572381D01*
X112077143Y-140620000D01*
X112505714Y-141572381D02*
X112505714Y-140572381D01*
X112743809Y-140572381D01*
X112886667Y-140620000D01*
X112981905Y-140715238D01*
X113029524Y-140810476D01*
X113077143Y-141000952D01*
X113077143Y-141143810D01*
X113029524Y-141334286D01*
X112981905Y-141429524D01*
X112886667Y-141524762D01*
X112743809Y-141572381D01*
X112505714Y-141572381D01*
X113458095Y-141286667D02*
X113934286Y-141286667D01*
X113362857Y-141572381D02*
X113696190Y-140572381D01*
X114029524Y-141572381D01*
X111499524Y-143784762D02*
X111642381Y-143832381D01*
X111880477Y-143832381D01*
X111975715Y-143784762D01*
X112023334Y-143737143D01*
X112070953Y-143641905D01*
X112070953Y-143546667D01*
X112023334Y-143451429D01*
X111975715Y-143403810D01*
X111880477Y-143356190D01*
X111690000Y-143308571D01*
X111594762Y-143260952D01*
X111547143Y-143213333D01*
X111499524Y-143118095D01*
X111499524Y-143022857D01*
X111547143Y-142927619D01*
X111594762Y-142880000D01*
X111690000Y-142832381D01*
X111928096Y-142832381D01*
X112070953Y-142880000D01*
X113070953Y-143737143D02*
X113023334Y-143784762D01*
X112880477Y-143832381D01*
X112785239Y-143832381D01*
X112642381Y-143784762D01*
X112547143Y-143689524D01*
X112499524Y-143594286D01*
X112451905Y-143403810D01*
X112451905Y-143260952D01*
X112499524Y-143070476D01*
X112547143Y-142975238D01*
X112642381Y-142880000D01*
X112785239Y-142832381D01*
X112880477Y-142832381D01*
X113023334Y-142880000D01*
X113070953Y-142927619D01*
X113975715Y-143832381D02*
X113499524Y-143832381D01*
X113499524Y-142832381D01*
D13*
X111585715Y-132778571D02*
X111585715Y-131278571D01*
X112228572Y-131421429D02*
X112300001Y-131350000D01*
X112442858Y-131278571D01*
X112800001Y-131278571D01*
X112942858Y-131350000D01*
X113014287Y-131421429D01*
X113085715Y-131564286D01*
X113085715Y-131707143D01*
X113014287Y-131921429D01*
X112157144Y-132778571D01*
X113085715Y-132778571D01*
X114585715Y-132635714D02*
X114514286Y-132707143D01*
X114300000Y-132778571D01*
X114157143Y-132778571D01*
X113942858Y-132707143D01*
X113800000Y-132564286D01*
X113728572Y-132421429D01*
X113657143Y-132135714D01*
X113657143Y-131921429D01*
X113728572Y-131635714D01*
X113800000Y-131492857D01*
X113942858Y-131350000D01*
X114157143Y-131278571D01*
X114300000Y-131278571D01*
X114514286Y-131350000D01*
X114585715Y-131421429D01*
D11*
X110390476Y-109342381D02*
X110723809Y-110342381D01*
X111057143Y-109342381D01*
X111342857Y-109437619D02*
X111390476Y-109390000D01*
X111485714Y-109342381D01*
X111723810Y-109342381D01*
X111819048Y-109390000D01*
X111866667Y-109437619D01*
X111914286Y-109532857D01*
X111914286Y-109628095D01*
X111866667Y-109770952D01*
X111295238Y-110342381D01*
X111914286Y-110342381D01*
X110360476Y-121442381D02*
X110693809Y-122442381D01*
X111027143Y-121442381D01*
X111884286Y-122442381D02*
X111312857Y-122442381D01*
X111598571Y-122442381D02*
X111598571Y-121442381D01*
X111503333Y-121585238D01*
X111408095Y-121680476D01*
X111312857Y-121728095D01*
D13*
X100780000Y-108448571D02*
X101280000Y-109948571D01*
X101780000Y-108448571D01*
X102494286Y-109948571D02*
X102351428Y-109877143D01*
X102280000Y-109805714D01*
X102208571Y-109662857D01*
X102208571Y-109234286D01*
X102280000Y-109091429D01*
X102351428Y-109020000D01*
X102494286Y-108948571D01*
X102708571Y-108948571D01*
X102851428Y-109020000D01*
X102922857Y-109091429D01*
X102994286Y-109234286D01*
X102994286Y-109662857D01*
X102922857Y-109805714D01*
X102851428Y-109877143D01*
X102708571Y-109948571D01*
X102494286Y-109948571D01*
X103851429Y-109948571D02*
X103708571Y-109877143D01*
X103637143Y-109734286D01*
X103637143Y-108448571D01*
X104208571Y-108948571D02*
X104780000Y-108948571D01*
X104422857Y-108448571D02*
X104422857Y-109734286D01*
X104494285Y-109877143D01*
X104637143Y-109948571D01*
X104780000Y-109948571D01*
X105922857Y-109948571D02*
X105922857Y-109162857D01*
X105851428Y-109020000D01*
X105708571Y-108948571D01*
X105422857Y-108948571D01*
X105280000Y-109020000D01*
X105922857Y-109877143D02*
X105780000Y-109948571D01*
X105422857Y-109948571D01*
X105280000Y-109877143D01*
X105208571Y-109734286D01*
X105208571Y-109591429D01*
X105280000Y-109448571D01*
X105422857Y-109377143D01*
X105780000Y-109377143D01*
X105922857Y-109305714D01*
X107280000Y-108948571D02*
X107280000Y-110162857D01*
X107208571Y-110305714D01*
X107137143Y-110377143D01*
X106994286Y-110448571D01*
X106780000Y-110448571D01*
X106637143Y-110377143D01*
X107280000Y-109877143D02*
X107137143Y-109948571D01*
X106851429Y-109948571D01*
X106708571Y-109877143D01*
X106637143Y-109805714D01*
X106565714Y-109662857D01*
X106565714Y-109234286D01*
X106637143Y-109091429D01*
X106708571Y-109020000D01*
X106851429Y-108948571D01*
X107137143Y-108948571D01*
X107280000Y-109020000D01*
X108565714Y-109877143D02*
X108422857Y-109948571D01*
X108137143Y-109948571D01*
X107994286Y-109877143D01*
X107922857Y-109734286D01*
X107922857Y-109162857D01*
X107994286Y-109020000D01*
X108137143Y-108948571D01*
X108422857Y-108948571D01*
X108565714Y-109020000D01*
X108637143Y-109162857D01*
X108637143Y-109305714D01*
X107922857Y-109448571D01*
D11*
X111409048Y-118951429D02*
X112170953Y-118951429D01*
X111790001Y-119332381D02*
X111790001Y-118570476D01*
X111349048Y-117051429D02*
X112110953Y-117051429D01*
X111409048Y-112751429D02*
X112170953Y-112751429D01*
D13*
X159332143Y-148746429D02*
X159275000Y-148689286D01*
X159217857Y-148575000D01*
X159217857Y-148289286D01*
X159275000Y-148175000D01*
X159332143Y-148117857D01*
X159446429Y-148060714D01*
X159560714Y-148060714D01*
X159732143Y-148117857D01*
X160417857Y-148803571D01*
X160417857Y-148060714D01*
X159217857Y-147317857D02*
X159217857Y-147203572D01*
X159275000Y-147089286D01*
X159332143Y-147032143D01*
X159446429Y-146975000D01*
X159675000Y-146917857D01*
X159960714Y-146917857D01*
X160189286Y-146975000D01*
X160303571Y-147032143D01*
X160360714Y-147089286D01*
X160417857Y-147203572D01*
X160417857Y-147317857D01*
X160360714Y-147432143D01*
X160303571Y-147489286D01*
X160189286Y-147546429D01*
X159960714Y-147603572D01*
X159675000Y-147603572D01*
X159446429Y-147546429D01*
X159332143Y-147489286D01*
X159275000Y-147432143D01*
X159217857Y-147317857D01*
X160417857Y-145775000D02*
X160417857Y-146460715D01*
X160417857Y-146117857D02*
X159217857Y-146117857D01*
X159389286Y-146232143D01*
X159503571Y-146346429D01*
X159560714Y-146460715D01*
X159217857Y-145375000D02*
X159217857Y-144575000D01*
X160417857Y-145089286D01*
X160417857Y-143203572D02*
X159617857Y-143203572D01*
X159846429Y-143203572D02*
X159732143Y-143146429D01*
X159675000Y-143089286D01*
X159617857Y-142975000D01*
X159617857Y-142860715D01*
X160360714Y-142003572D02*
X160417857Y-142117858D01*
X160417857Y-142346429D01*
X160360714Y-142460715D01*
X160246429Y-142517858D01*
X159789286Y-142517858D01*
X159675000Y-142460715D01*
X159617857Y-142346429D01*
X159617857Y-142117858D01*
X159675000Y-142003572D01*
X159789286Y-141946429D01*
X159903571Y-141946429D01*
X160017857Y-142517858D01*
X159617857Y-141546429D02*
X160417857Y-141260715D01*
X159617857Y-140975001D01*
X160417857Y-139889286D02*
X160417857Y-140575001D01*
X160417857Y-140232143D02*
X159217857Y-140232143D01*
X159389286Y-140346429D01*
X159503571Y-140460715D01*
X159560714Y-140575001D01*
X162403571Y-148003571D02*
X162460714Y-148060714D01*
X162517857Y-148232143D01*
X162517857Y-148346429D01*
X162460714Y-148517857D01*
X162346429Y-148632143D01*
X162232143Y-148689286D01*
X162003571Y-148746429D01*
X161832143Y-148746429D01*
X161603571Y-148689286D01*
X161489286Y-148632143D01*
X161375000Y-148517857D01*
X161317857Y-148346429D01*
X161317857Y-148232143D01*
X161375000Y-148060714D01*
X161432143Y-148003571D01*
X161889286Y-147489286D02*
X161889286Y-147089286D01*
X162517857Y-146917857D02*
X162517857Y-147489286D01*
X161317857Y-147489286D01*
X161317857Y-146917857D01*
X162517857Y-145717857D02*
X161946429Y-146117857D01*
X162517857Y-146403572D02*
X161317857Y-146403572D01*
X161317857Y-145946429D01*
X161375000Y-145832143D01*
X161432143Y-145775000D01*
X161546429Y-145717857D01*
X161717857Y-145717857D01*
X161832143Y-145775000D01*
X161889286Y-145832143D01*
X161946429Y-145946429D01*
X161946429Y-146403572D01*
X162517857Y-145203572D02*
X161317857Y-145203572D01*
X162517857Y-144517857D01*
X161317857Y-144517857D01*
X161317857Y-142803571D02*
X161317857Y-142575000D01*
X161375000Y-142460714D01*
X161489286Y-142346428D01*
X161717857Y-142289286D01*
X162117857Y-142289286D01*
X162346429Y-142346428D01*
X162460714Y-142460714D01*
X162517857Y-142575000D01*
X162517857Y-142803571D01*
X162460714Y-142917857D01*
X162346429Y-143032143D01*
X162117857Y-143089286D01*
X161717857Y-143089286D01*
X161489286Y-143032143D01*
X161375000Y-142917857D01*
X161317857Y-142803571D01*
X162517857Y-141775000D02*
X161317857Y-141775000D01*
X161889286Y-141775000D02*
X161889286Y-141089285D01*
X162517857Y-141089285D02*
X161317857Y-141089285D01*
X162517857Y-139946428D02*
X162517857Y-140517857D01*
X161317857Y-140517857D01*
X162517857Y-138003570D02*
X162517857Y-138689285D01*
X162517857Y-138346427D02*
X161317857Y-138346427D01*
X161489286Y-138460713D01*
X161603571Y-138574999D01*
X161660714Y-138689285D01*
X162403571Y-137489285D02*
X162460714Y-137432142D01*
X162517857Y-137489285D01*
X162460714Y-137546428D01*
X162403571Y-137489285D01*
X162517857Y-137489285D01*
X161432143Y-136974999D02*
X161375000Y-136917856D01*
X161317857Y-136803570D01*
X161317857Y-136517856D01*
X161375000Y-136403570D01*
X161432143Y-136346427D01*
X161546429Y-136289284D01*
X161660714Y-136289284D01*
X161832143Y-136346427D01*
X162517857Y-137032141D01*
X162517857Y-136289284D01*
X132332141Y-108782143D02*
X132998808Y-108782143D01*
X133284522Y-109829762D02*
X132332141Y-109829762D01*
X132332141Y-107829762D01*
X133284522Y-107829762D01*
X134141665Y-109829762D02*
X134141665Y-107829762D01*
X134903570Y-107829762D01*
X135094046Y-107925000D01*
X135189285Y-108020238D01*
X135284523Y-108210714D01*
X135284523Y-108496429D01*
X135189285Y-108686905D01*
X135094046Y-108782143D01*
X134903570Y-108877381D01*
X134141665Y-108877381D01*
X136141665Y-108782143D02*
X136808332Y-108782143D01*
X137094046Y-109829762D02*
X136141665Y-109829762D01*
X136141665Y-107829762D01*
X137094046Y-107829762D01*
X137855951Y-109258333D02*
X138808332Y-109258333D01*
X137665475Y-109829762D02*
X138332142Y-107829762D01*
X138998809Y-109829762D01*
X139665475Y-109829762D02*
X139665475Y-107829762D01*
X140808333Y-109829762D02*
X139951190Y-108686905D01*
X140808333Y-107829762D02*
X139665475Y-108972619D01*
X144236905Y-107925000D02*
X144046428Y-107829762D01*
X143760714Y-107829762D01*
X143475000Y-107925000D01*
X143284524Y-108115476D01*
X143189285Y-108305952D01*
X143094047Y-108686905D01*
X143094047Y-108972619D01*
X143189285Y-109353571D01*
X143284524Y-109544048D01*
X143475000Y-109734524D01*
X143760714Y-109829762D01*
X143951190Y-109829762D01*
X144236905Y-109734524D01*
X144332143Y-109639286D01*
X144332143Y-108972619D01*
X143951190Y-108972619D01*
X145951190Y-109734524D02*
X145760714Y-109829762D01*
X145379762Y-109829762D01*
X145189285Y-109734524D01*
X145094047Y-109544048D01*
X145094047Y-108782143D01*
X145189285Y-108591667D01*
X145379762Y-108496429D01*
X145760714Y-108496429D01*
X145951190Y-108591667D01*
X146046428Y-108782143D01*
X146046428Y-108972619D01*
X145094047Y-109163095D01*
X147760714Y-109829762D02*
X147760714Y-108782143D01*
X147665476Y-108591667D01*
X147475000Y-108496429D01*
X147094048Y-108496429D01*
X146903571Y-108591667D01*
X147760714Y-109734524D02*
X147570238Y-109829762D01*
X147094048Y-109829762D01*
X146903571Y-109734524D01*
X146808333Y-109544048D01*
X146808333Y-109353571D01*
X146903571Y-109163095D01*
X147094048Y-109067857D01*
X147570238Y-109067857D01*
X147760714Y-108972619D01*
X148713095Y-109829762D02*
X148713095Y-108496429D01*
X148713095Y-108877381D02*
X148808334Y-108686905D01*
X148903572Y-108591667D01*
X149094048Y-108496429D01*
X149284524Y-108496429D01*
X137570236Y-111129762D02*
X138713093Y-111129762D01*
X138141665Y-113129762D02*
X138141665Y-111129762D01*
X140141665Y-113034524D02*
X139951189Y-113129762D01*
X139570237Y-113129762D01*
X139379760Y-113034524D01*
X139284522Y-112844048D01*
X139284522Y-112082143D01*
X139379760Y-111891667D01*
X139570237Y-111796429D01*
X139951189Y-111796429D01*
X140141665Y-111891667D01*
X140236903Y-112082143D01*
X140236903Y-112272619D01*
X139284522Y-112463095D01*
X140808332Y-111129762D02*
X141474999Y-113129762D01*
X142141666Y-111129762D01*
X143094047Y-113129762D02*
X142903571Y-113034524D01*
X142808332Y-112939286D01*
X142713094Y-112748810D01*
X142713094Y-112177381D01*
X142808332Y-111986905D01*
X142903571Y-111891667D01*
X143094047Y-111796429D01*
X143379761Y-111796429D01*
X143570237Y-111891667D01*
X143665475Y-111986905D01*
X143760713Y-112177381D01*
X143760713Y-112748810D01*
X143665475Y-112939286D01*
X143570237Y-113034524D01*
X143379761Y-113129762D01*
X143094047Y-113129762D01*
X145951190Y-111129762D02*
X147284524Y-113129762D01*
X147284524Y-111129762D02*
X145951190Y-113129762D01*
X147951190Y-111320238D02*
X148046428Y-111225000D01*
X148236905Y-111129762D01*
X148713095Y-111129762D01*
X148903571Y-111225000D01*
X148998809Y-111320238D01*
X149094048Y-111510714D01*
X149094048Y-111701190D01*
X148998809Y-111986905D01*
X147855952Y-113129762D01*
X149094048Y-113129762D01*
X108135715Y-147103571D02*
X108135715Y-145603571D01*
X108778572Y-145746429D02*
X108850001Y-145675000D01*
X108992858Y-145603571D01*
X109350001Y-145603571D01*
X109492858Y-145675000D01*
X109564287Y-145746429D01*
X109635715Y-145889286D01*
X109635715Y-146032143D01*
X109564287Y-146246429D01*
X108707144Y-147103571D01*
X109635715Y-147103571D01*
X111135715Y-146960714D02*
X111064286Y-147032143D01*
X110850000Y-147103571D01*
X110707143Y-147103571D01*
X110492858Y-147032143D01*
X110350000Y-146889286D01*
X110278572Y-146746429D01*
X110207143Y-146460714D01*
X110207143Y-146246429D01*
X110278572Y-145960714D01*
X110350000Y-145817857D01*
X110492858Y-145675000D01*
X110707143Y-145603571D01*
X110850000Y-145603571D01*
X111064286Y-145675000D01*
X111135715Y-145746429D01*
X139278571Y-153892856D02*
X139278571Y-153035713D01*
X140778571Y-153464284D02*
X139278571Y-153464284D01*
X140778571Y-152535713D02*
X139278571Y-152535713D01*
X140778571Y-151892856D02*
X139992857Y-151892856D01*
X139850000Y-151964285D01*
X139778571Y-152107142D01*
X139778571Y-152321427D01*
X139850000Y-152464285D01*
X139921429Y-152535713D01*
X140707143Y-150607142D02*
X140778571Y-150749999D01*
X140778571Y-151035713D01*
X140707143Y-151178570D01*
X140564286Y-151249999D01*
X139992857Y-151249999D01*
X139850000Y-151178570D01*
X139778571Y-151035713D01*
X139778571Y-150749999D01*
X139850000Y-150607142D01*
X139992857Y-150535713D01*
X140135714Y-150535713D01*
X140278571Y-151249999D01*
X140778571Y-149892856D02*
X139778571Y-149892856D01*
X140064286Y-149892856D02*
X139921429Y-149821428D01*
X139850000Y-149749999D01*
X139778571Y-149607142D01*
X139778571Y-149464285D01*
X140778571Y-148964285D02*
X139778571Y-148964285D01*
X139921429Y-148964285D02*
X139850000Y-148892857D01*
X139778571Y-148749999D01*
X139778571Y-148535714D01*
X139850000Y-148392857D01*
X139992857Y-148321428D01*
X140778571Y-148321428D01*
X139992857Y-148321428D02*
X139850000Y-148249999D01*
X139778571Y-148107142D01*
X139778571Y-147892857D01*
X139850000Y-147749999D01*
X139992857Y-147678571D01*
X140778571Y-147678571D01*
X140778571Y-146749999D02*
X140707143Y-146892857D01*
X140635714Y-146964285D01*
X140492857Y-147035714D01*
X140064286Y-147035714D01*
X139921429Y-146964285D01*
X139850000Y-146892857D01*
X139778571Y-146749999D01*
X139778571Y-146535714D01*
X139850000Y-146392857D01*
X139921429Y-146321428D01*
X140064286Y-146249999D01*
X140492857Y-146249999D01*
X140635714Y-146321428D01*
X140707143Y-146392857D01*
X140778571Y-146535714D01*
X140778571Y-146749999D01*
X140707143Y-144964285D02*
X140778571Y-145107142D01*
X140778571Y-145392856D01*
X140707143Y-145535714D01*
X140635714Y-145607142D01*
X140492857Y-145678571D01*
X140064286Y-145678571D01*
X139921429Y-145607142D01*
X139850000Y-145535714D01*
X139778571Y-145392856D01*
X139778571Y-145107142D01*
X139850000Y-144964285D01*
X140778571Y-144107142D02*
X140707143Y-144250000D01*
X140635714Y-144321428D01*
X140492857Y-144392857D01*
X140064286Y-144392857D01*
X139921429Y-144321428D01*
X139850000Y-144250000D01*
X139778571Y-144107142D01*
X139778571Y-143892857D01*
X139850000Y-143750000D01*
X139921429Y-143678571D01*
X140064286Y-143607142D01*
X140492857Y-143607142D01*
X140635714Y-143678571D01*
X140707143Y-143750000D01*
X140778571Y-143892857D01*
X140778571Y-144107142D01*
X139778571Y-142321428D02*
X140778571Y-142321428D01*
X139778571Y-142964285D02*
X140564286Y-142964285D01*
X140707143Y-142892857D01*
X140778571Y-142749999D01*
X140778571Y-142535714D01*
X140707143Y-142392857D01*
X140635714Y-142321428D01*
X139778571Y-141607142D02*
X141278571Y-141607142D01*
X139850000Y-141607142D02*
X139778571Y-141464285D01*
X139778571Y-141178571D01*
X139850000Y-141035714D01*
X139921429Y-140964285D01*
X140064286Y-140892856D01*
X140492857Y-140892856D01*
X140635714Y-140964285D01*
X140707143Y-141035714D01*
X140778571Y-141178571D01*
X140778571Y-141464285D01*
X140707143Y-141607142D01*
X140778571Y-140035713D02*
X140707143Y-140178571D01*
X140564286Y-140249999D01*
X139278571Y-140249999D01*
X140707143Y-138892857D02*
X140778571Y-139035714D01*
X140778571Y-139321428D01*
X140707143Y-139464285D01*
X140564286Y-139535714D01*
X139992857Y-139535714D01*
X139850000Y-139464285D01*
X139778571Y-139321428D01*
X139778571Y-139035714D01*
X139850000Y-138892857D01*
X139992857Y-138821428D01*
X140135714Y-138821428D01*
X140278571Y-139535714D01*
X139421429Y-137107143D02*
X139350000Y-137035714D01*
X139278571Y-136892857D01*
X139278571Y-136535714D01*
X139350000Y-136392857D01*
X139421429Y-136321428D01*
X139564286Y-136250000D01*
X139707143Y-136250000D01*
X139921429Y-136321428D01*
X140778571Y-137178571D01*
X140778571Y-136250000D01*
X119203571Y-154242856D02*
X119203571Y-153385713D01*
X120703571Y-153814284D02*
X119203571Y-153814284D01*
X120703571Y-152885713D02*
X119203571Y-152885713D01*
X120703571Y-152242856D02*
X119917857Y-152242856D01*
X119775000Y-152314285D01*
X119703571Y-152457142D01*
X119703571Y-152671427D01*
X119775000Y-152814285D01*
X119846429Y-152885713D01*
X120632143Y-150957142D02*
X120703571Y-151099999D01*
X120703571Y-151385713D01*
X120632143Y-151528570D01*
X120489286Y-151599999D01*
X119917857Y-151599999D01*
X119775000Y-151528570D01*
X119703571Y-151385713D01*
X119703571Y-151099999D01*
X119775000Y-150957142D01*
X119917857Y-150885713D01*
X120060714Y-150885713D01*
X120203571Y-151599999D01*
X120703571Y-150242856D02*
X119703571Y-150242856D01*
X119989286Y-150242856D02*
X119846429Y-150171428D01*
X119775000Y-150099999D01*
X119703571Y-149957142D01*
X119703571Y-149814285D01*
X120703571Y-149314285D02*
X119703571Y-149314285D01*
X119846429Y-149314285D02*
X119775000Y-149242857D01*
X119703571Y-149099999D01*
X119703571Y-148885714D01*
X119775000Y-148742857D01*
X119917857Y-148671428D01*
X120703571Y-148671428D01*
X119917857Y-148671428D02*
X119775000Y-148599999D01*
X119703571Y-148457142D01*
X119703571Y-148242857D01*
X119775000Y-148099999D01*
X119917857Y-148028571D01*
X120703571Y-148028571D01*
X120703571Y-147099999D02*
X120632143Y-147242857D01*
X120560714Y-147314285D01*
X120417857Y-147385714D01*
X119989286Y-147385714D01*
X119846429Y-147314285D01*
X119775000Y-147242857D01*
X119703571Y-147099999D01*
X119703571Y-146885714D01*
X119775000Y-146742857D01*
X119846429Y-146671428D01*
X119989286Y-146599999D01*
X120417857Y-146599999D01*
X120560714Y-146671428D01*
X120632143Y-146742857D01*
X120703571Y-146885714D01*
X120703571Y-147099999D01*
X120632143Y-145314285D02*
X120703571Y-145457142D01*
X120703571Y-145742856D01*
X120632143Y-145885714D01*
X120560714Y-145957142D01*
X120417857Y-146028571D01*
X119989286Y-146028571D01*
X119846429Y-145957142D01*
X119775000Y-145885714D01*
X119703571Y-145742856D01*
X119703571Y-145457142D01*
X119775000Y-145314285D01*
X120703571Y-144457142D02*
X120632143Y-144600000D01*
X120560714Y-144671428D01*
X120417857Y-144742857D01*
X119989286Y-144742857D01*
X119846429Y-144671428D01*
X119775000Y-144600000D01*
X119703571Y-144457142D01*
X119703571Y-144242857D01*
X119775000Y-144100000D01*
X119846429Y-144028571D01*
X119989286Y-143957142D01*
X120417857Y-143957142D01*
X120560714Y-144028571D01*
X120632143Y-144100000D01*
X120703571Y-144242857D01*
X120703571Y-144457142D01*
X119703571Y-142671428D02*
X120703571Y-142671428D01*
X119703571Y-143314285D02*
X120489286Y-143314285D01*
X120632143Y-143242857D01*
X120703571Y-143099999D01*
X120703571Y-142885714D01*
X120632143Y-142742857D01*
X120560714Y-142671428D01*
X119703571Y-141957142D02*
X121203571Y-141957142D01*
X119775000Y-141957142D02*
X119703571Y-141814285D01*
X119703571Y-141528571D01*
X119775000Y-141385714D01*
X119846429Y-141314285D01*
X119989286Y-141242856D01*
X120417857Y-141242856D01*
X120560714Y-141314285D01*
X120632143Y-141385714D01*
X120703571Y-141528571D01*
X120703571Y-141814285D01*
X120632143Y-141957142D01*
X120703571Y-140385713D02*
X120632143Y-140528571D01*
X120489286Y-140599999D01*
X119203571Y-140599999D01*
X120632143Y-139242857D02*
X120703571Y-139385714D01*
X120703571Y-139671428D01*
X120632143Y-139814285D01*
X120489286Y-139885714D01*
X119917857Y-139885714D01*
X119775000Y-139814285D01*
X119703571Y-139671428D01*
X119703571Y-139385714D01*
X119775000Y-139242857D01*
X119917857Y-139171428D01*
X120060714Y-139171428D01*
X120203571Y-139885714D01*
X120703571Y-136600000D02*
X120703571Y-137457143D01*
X120703571Y-137028571D02*
X119203571Y-137028571D01*
X119417857Y-137171428D01*
X119560714Y-137314286D01*
X119632143Y-137457143D01*
D14*
X130565000Y-132997000D02*
X130565000Y-130203000D01*
X130565000Y-130203000D02*
X131835000Y-130203000D01*
X131835000Y-130203000D02*
X131835000Y-132997000D01*
X131835000Y-132997000D02*
X130565000Y-132997000D01*
D15*
G36*
X156436450Y-107757946D02*
X156452314Y-107789897D01*
X156477012Y-107839941D01*
X156509382Y-107905713D01*
X156548262Y-107984851D01*
X156592489Y-108074992D01*
X156640901Y-108173772D01*
X156669024Y-108231202D01*
X156905260Y-108713750D01*
X156984355Y-108707400D01*
X157019168Y-108705634D01*
X157074825Y-108704057D01*
X157146772Y-108702740D01*
X157230454Y-108701756D01*
X157321315Y-108701176D01*
X157387300Y-108701050D01*
X157483412Y-108701308D01*
X157578254Y-108702034D01*
X157666608Y-108703151D01*
X157743256Y-108704586D01*
X157802980Y-108706263D01*
X157829371Y-108707400D01*
X157947592Y-108713750D01*
X158193147Y-108252183D01*
X158246441Y-108152266D01*
X158296353Y-108059186D01*
X158341560Y-107975374D01*
X158380742Y-107903257D01*
X158412574Y-107845264D01*
X158435737Y-107803824D01*
X158448907Y-107781366D01*
X158451164Y-107778155D01*
X158466873Y-107778438D01*
X158506233Y-107786692D01*
X158568820Y-107802797D01*
X158654207Y-107826638D01*
X158761967Y-107858097D01*
X158891675Y-107897057D01*
X158970038Y-107920972D01*
X159078387Y-107954211D01*
X159178913Y-107985083D01*
X159269081Y-108012808D01*
X159346359Y-108036604D01*
X159408215Y-108055691D01*
X159452115Y-108069291D01*
X159475526Y-108076621D01*
X159478757Y-108077691D01*
X159478151Y-108090401D01*
X159474513Y-108125113D01*
X159468258Y-108178663D01*
X159459801Y-108247890D01*
X159449558Y-108329630D01*
X159437944Y-108420719D01*
X159425374Y-108517995D01*
X159412264Y-108618296D01*
X159399030Y-108718457D01*
X159386086Y-108815316D01*
X159373847Y-108905710D01*
X159362730Y-108986476D01*
X159353148Y-109054450D01*
X159345519Y-109106471D01*
X159340257Y-109139374D01*
X159337962Y-109149937D01*
X159343074Y-109163427D01*
X159367041Y-109181893D01*
X159383926Y-109191306D01*
X159478431Y-109243282D01*
X159586568Y-109309503D01*
X159703520Y-109386758D01*
X159824468Y-109471834D01*
X159944593Y-109561520D01*
X159976649Y-109586413D01*
X160018176Y-109618333D01*
X160052076Y-109643244D01*
X160073534Y-109657665D01*
X160078249Y-109659865D01*
X160090661Y-109653787D01*
X160122691Y-109636477D01*
X160171897Y-109609298D01*
X160235838Y-109573614D01*
X160312075Y-109530787D01*
X160398167Y-109482180D01*
X160491673Y-109429157D01*
X160509906Y-109418793D01*
X160604584Y-109365265D01*
X160692438Y-109316201D01*
X160771012Y-109272924D01*
X160837853Y-109236760D01*
X160890507Y-109209035D01*
X160926517Y-109191073D01*
X160943431Y-109184200D01*
X160944282Y-109184257D01*
X160955881Y-109195648D01*
X160981897Y-109223641D01*
X161020140Y-109265751D01*
X161068421Y-109319494D01*
X161124549Y-109382385D01*
X161186333Y-109451940D01*
X161251583Y-109525673D01*
X161318108Y-109601100D01*
X161383719Y-109675736D01*
X161446225Y-109747097D01*
X161503435Y-109812697D01*
X161553160Y-109870053D01*
X161593208Y-109916679D01*
X161621390Y-109950091D01*
X161635514Y-109967804D01*
X161636692Y-109969707D01*
X161629335Y-109982608D01*
X161604789Y-110010864D01*
X161564705Y-110052798D01*
X161510739Y-110106733D01*
X161444543Y-110170992D01*
X161367772Y-110243900D01*
X161347136Y-110263267D01*
X161272754Y-110332942D01*
X161202543Y-110398759D01*
X161139136Y-110458245D01*
X161085166Y-110508928D01*
X161043267Y-110548335D01*
X161016072Y-110573995D01*
X161009238Y-110580488D01*
X160967227Y-110620646D01*
X161055220Y-110759398D01*
X161119902Y-110866832D01*
X161184229Y-110983528D01*
X161243323Y-111100199D01*
X161292302Y-111207563D01*
X161298354Y-111222000D01*
X161320175Y-111265494D01*
X161345415Y-111302721D01*
X161360928Y-111318949D01*
X161394604Y-111346049D01*
X161927777Y-111330215D01*
X162041683Y-111327017D01*
X162147612Y-111324399D01*
X162242893Y-111322399D01*
X162324856Y-111321059D01*
X162390830Y-111320418D01*
X162438144Y-111320515D01*
X162464128Y-111321391D01*
X162468322Y-111322166D01*
X162472303Y-111335470D01*
X162481047Y-111370396D01*
X162493833Y-111423761D01*
X162509942Y-111492385D01*
X162528653Y-111573088D01*
X162549244Y-111662688D01*
X162570997Y-111758007D01*
X162593189Y-111855861D01*
X162615101Y-111953072D01*
X162636013Y-112046459D01*
X162655202Y-112132840D01*
X162671950Y-112209036D01*
X162685535Y-112271866D01*
X162695237Y-112318148D01*
X162700336Y-112344704D01*
X162700910Y-112348867D01*
X162689651Y-112358209D01*
X162655842Y-112376350D01*
X162600570Y-112402794D01*
X162524922Y-112437046D01*
X162429986Y-112478608D01*
X162316850Y-112526986D01*
X162232350Y-112562570D01*
X162128764Y-112605855D01*
X162031764Y-112646187D01*
X161944016Y-112682476D01*
X161868182Y-112713626D01*
X161806927Y-112738547D01*
X161762915Y-112756144D01*
X161738811Y-112765324D01*
X161735766Y-112766298D01*
X161727397Y-112769359D01*
X161720873Y-112775705D01*
X161715854Y-112788383D01*
X161711998Y-112810439D01*
X161708966Y-112844921D01*
X161706416Y-112894874D01*
X161704008Y-112963347D01*
X161701402Y-113053384D01*
X161700662Y-113080276D01*
X161698017Y-113168239D01*
X161695133Y-113249587D01*
X161692190Y-113320268D01*
X161689365Y-113376232D01*
X161686836Y-113413426D01*
X161685466Y-113425450D01*
X161678692Y-113463550D01*
X162161896Y-113710783D01*
X162264113Y-113763457D01*
X162358963Y-113813060D01*
X162444121Y-113858320D01*
X162517260Y-113897969D01*
X162576055Y-113930736D01*
X162618179Y-113955352D01*
X162641306Y-113970547D01*
X162645099Y-113974558D01*
X162641767Y-113989020D01*
X162632358Y-114024690D01*
X162617761Y-114078422D01*
X162598860Y-114147070D01*
X162576541Y-114227489D01*
X162551691Y-114316534D01*
X162525196Y-114411058D01*
X162497941Y-114507917D01*
X162470813Y-114603964D01*
X162444697Y-114696055D01*
X162420480Y-114781043D01*
X162399047Y-114855784D01*
X162381285Y-114917131D01*
X162368079Y-114961940D01*
X162360315Y-114987064D01*
X162358719Y-114991311D01*
X162345951Y-114990784D01*
X162310544Y-114987741D01*
X162255110Y-114982444D01*
X162182256Y-114975157D01*
X162094592Y-114966144D01*
X161994728Y-114955667D01*
X161885272Y-114943990D01*
X161819464Y-114936885D01*
X161705678Y-114924636D01*
X161599973Y-114913432D01*
X161504962Y-114903536D01*
X161423257Y-114895212D01*
X161357471Y-114888725D01*
X161310217Y-114884339D01*
X161284109Y-114882317D01*
X161279689Y-114882323D01*
X161272840Y-114894637D01*
X161257860Y-114923550D01*
X161237929Y-114962922D01*
X161237000Y-114964773D01*
X161195435Y-115043362D01*
X161143904Y-115134158D01*
X161087345Y-115228801D01*
X161030697Y-115318932D01*
X161002610Y-115361588D01*
X160974351Y-115405124D01*
X160952627Y-115441354D01*
X160940689Y-115464729D01*
X160939374Y-115469538D01*
X160946344Y-115482576D01*
X160966134Y-115514359D01*
X160997266Y-115562640D01*
X161038261Y-115625170D01*
X161087641Y-115699702D01*
X161143927Y-115783987D01*
X161205641Y-115875777D01*
X161240143Y-115926847D01*
X161540605Y-116370844D01*
X161448327Y-116466495D01*
X161415831Y-116499926D01*
X161368574Y-116548193D01*
X161309691Y-116608112D01*
X161242320Y-116676496D01*
X161169597Y-116750159D01*
X161094657Y-116825915D01*
X161070300Y-116850504D01*
X160784550Y-117138862D01*
X160448000Y-116903771D01*
X160360518Y-116842614D01*
X160274686Y-116782523D01*
X160194074Y-116726003D01*
X160122251Y-116675559D01*
X160062786Y-116633696D01*
X160019249Y-116602921D01*
X160007777Y-116594765D01*
X159904105Y-116520849D01*
X159829977Y-116570857D01*
X159764988Y-116613189D01*
X159687186Y-116661527D01*
X159603552Y-116711737D01*
X159521065Y-116759685D01*
X159446707Y-116801237D01*
X159394451Y-116828772D01*
X159349004Y-116852698D01*
X159322630Y-116870148D01*
X159311124Y-116884811D01*
X159310284Y-116900379D01*
X159310666Y-116902324D01*
X159313847Y-116924352D01*
X159318714Y-116967200D01*
X159324980Y-117027633D01*
X159332354Y-117102413D01*
X159340549Y-117188305D01*
X159349275Y-117282070D01*
X159358244Y-117380473D01*
X159367167Y-117480277D01*
X159375756Y-117578244D01*
X159383722Y-117671137D01*
X159390775Y-117755721D01*
X159396628Y-117828758D01*
X159400991Y-117887012D01*
X159403577Y-117927245D01*
X159404095Y-117946221D01*
X159403875Y-117947257D01*
X159390918Y-117951954D01*
X159356311Y-117963039D01*
X159302759Y-117979698D01*
X159232967Y-118001111D01*
X159149641Y-118026464D01*
X159055487Y-118054939D01*
X158953210Y-118085719D01*
X158845516Y-118117988D01*
X158735110Y-118150928D01*
X158624699Y-118183723D01*
X158516987Y-118215556D01*
X158446925Y-118236160D01*
X158382601Y-118255034D01*
X158142567Y-117774434D01*
X157902534Y-117293835D01*
X157844942Y-117302742D01*
X157812414Y-117305620D01*
X157758627Y-117307911D01*
X157687715Y-117309623D01*
X157603812Y-117310760D01*
X157511051Y-117311331D01*
X157413567Y-117311343D01*
X157315495Y-117310801D01*
X157220966Y-117309713D01*
X157134116Y-117308085D01*
X157059079Y-117305925D01*
X156999989Y-117303238D01*
X156973267Y-117301319D01*
X156857684Y-117290989D01*
X156606849Y-117761694D01*
X156553009Y-117862093D01*
X156502445Y-117955161D01*
X156456468Y-118038575D01*
X156416390Y-118110011D01*
X156383522Y-118167145D01*
X156359174Y-118207654D01*
X156344658Y-118229213D01*
X156341432Y-118232163D01*
X156325700Y-118228495D01*
X156289090Y-118218267D01*
X156234730Y-118202439D01*
X156165751Y-118181971D01*
X156085283Y-118157822D01*
X155996457Y-118130951D01*
X155902402Y-118102318D01*
X155806248Y-118072882D01*
X155711126Y-118043603D01*
X155620166Y-118015439D01*
X155536497Y-117989350D01*
X155463251Y-117966296D01*
X155403556Y-117947236D01*
X155360544Y-117933130D01*
X155337343Y-117924936D01*
X155334212Y-117923446D01*
X155334344Y-117910014D01*
X155337226Y-117874622D01*
X155342484Y-117820518D01*
X155349742Y-117750947D01*
X155358624Y-117669157D01*
X155368754Y-117578395D01*
X155379758Y-117481907D01*
X155391260Y-117382941D01*
X155402883Y-117284744D01*
X155414252Y-117190562D01*
X155424993Y-117103642D01*
X155434728Y-117027231D01*
X155443083Y-116964576D01*
X155449682Y-116918925D01*
X155452188Y-116903588D01*
X155454411Y-116884074D01*
X155450304Y-116868997D01*
X155435847Y-116854269D01*
X155407022Y-116835799D01*
X155359808Y-116809498D01*
X155359604Y-116809387D01*
X155226321Y-116732385D01*
X155085234Y-116643549D01*
X154946214Y-116549285D01*
X154842081Y-116473489D01*
X154698230Y-116364900D01*
X154280640Y-116607652D01*
X154185334Y-116663086D01*
X154095598Y-116715341D01*
X154014124Y-116762844D01*
X153943604Y-116804023D01*
X153886732Y-116837304D01*
X153846199Y-116861117D01*
X153824698Y-116873889D01*
X153823796Y-116874439D01*
X153784542Y-116898473D01*
X153434366Y-116501811D01*
X153359259Y-116416554D01*
X153289531Y-116337057D01*
X153226952Y-116265364D01*
X153173291Y-116203517D01*
X153130318Y-116153560D01*
X153099802Y-116117535D01*
X153083512Y-116097484D01*
X153081263Y-116094125D01*
X153088408Y-116082220D01*
X153110032Y-116052854D01*
X153144448Y-116008161D01*
X153189975Y-115950276D01*
X153244929Y-115881334D01*
X153307625Y-115803468D01*
X153376380Y-115718813D01*
X153404013Y-115684981D01*
X153729692Y-115286861D01*
X153661409Y-115181655D01*
X153617276Y-115111654D01*
X153579603Y-115046641D01*
X153544762Y-114979590D01*
X153509127Y-114903472D01*
X153469069Y-114811259D01*
X153463923Y-114799089D01*
X153405850Y-114661428D01*
X153139150Y-114665598D01*
X153035882Y-114666981D01*
X152917678Y-114668187D01*
X152795000Y-114669132D01*
X152678311Y-114669733D01*
X152599400Y-114669909D01*
X152326350Y-114670050D01*
X152210515Y-114155700D01*
X152185757Y-114045238D01*
X152162982Y-113942595D01*
X152142753Y-113850387D01*
X152125633Y-113771230D01*
X152112187Y-113707743D01*
X152102976Y-113662540D01*
X152098566Y-113638239D01*
X152098318Y-113634771D01*
X152110451Y-113628654D01*
X152143603Y-113613900D01*
X152195314Y-113591554D01*
X152263121Y-113562665D01*
X152344564Y-113528277D01*
X152437179Y-113489436D01*
X152538506Y-113447190D01*
X152590238Y-113425709D01*
X153078519Y-113223226D01*
X153080463Y-112975088D01*
X153081405Y-112905701D01*
X154181164Y-112905701D01*
X154184224Y-113182102D01*
X154210548Y-113457116D01*
X154260052Y-113729074D01*
X154332656Y-113996308D01*
X154428276Y-114257150D01*
X154546831Y-114509931D01*
X154673992Y-114730625D01*
X154811978Y-114929972D01*
X154970314Y-115124710D01*
X155144504Y-115310214D01*
X155330053Y-115481860D01*
X155522463Y-115635022D01*
X155618932Y-115702622D01*
X155837981Y-115836108D01*
X156070321Y-115953368D01*
X156311613Y-116052784D01*
X156557520Y-116132739D01*
X156803704Y-116191613D01*
X157019000Y-116224910D01*
X157076405Y-116231490D01*
X157128330Y-116237634D01*
X157166750Y-116242385D01*
X157177750Y-116243849D01*
X157213941Y-116246442D01*
X157270619Y-116247508D01*
X157342928Y-116247207D01*
X157426010Y-116245702D01*
X157515009Y-116243152D01*
X157605067Y-116239718D01*
X157691328Y-116235561D01*
X157768935Y-116230842D01*
X157833031Y-116225721D01*
X157876250Y-116220740D01*
X158163711Y-116165755D01*
X158440866Y-116087789D01*
X158707094Y-115987144D01*
X158961773Y-115864125D01*
X159204284Y-115719036D01*
X159434003Y-115552178D01*
X159650311Y-115363857D01*
X159671798Y-115343259D01*
X159873428Y-115131292D01*
X160052867Y-114907006D01*
X160209956Y-114670716D01*
X160344537Y-114422737D01*
X160456454Y-114163384D01*
X160545548Y-113892972D01*
X160611662Y-113611818D01*
X160646122Y-113393700D01*
X160653738Y-113314072D01*
X160659310Y-113216274D01*
X160662784Y-113107078D01*
X160664109Y-112993255D01*
X160663234Y-112881577D01*
X160660107Y-112778813D01*
X160654675Y-112691737D01*
X160651710Y-112661607D01*
X160606766Y-112372261D01*
X160538600Y-112093178D01*
X160447102Y-111824086D01*
X160332160Y-111564714D01*
X160193665Y-111314789D01*
X160031507Y-111074041D01*
X159980192Y-111006100D01*
X159917236Y-110929606D01*
X159839741Y-110842995D01*
X159753164Y-110751811D01*
X159662961Y-110661601D01*
X159574587Y-110577911D01*
X159493500Y-110506287D01*
X159466817Y-110484261D01*
X159233634Y-110311972D01*
X158990026Y-110162840D01*
X158735887Y-110036813D01*
X158471110Y-109933838D01*
X158195590Y-109853864D01*
X158181050Y-109850353D01*
X158051047Y-109821435D01*
X157930064Y-109799619D01*
X157809951Y-109783880D01*
X157682555Y-109773189D01*
X157539727Y-109766521D01*
X157507950Y-109765562D01*
X157301060Y-109764982D01*
X157107683Y-109775877D01*
X156918269Y-109799071D01*
X156738264Y-109832203D01*
X156468692Y-109901835D01*
X156207177Y-109994873D01*
X155955149Y-110110204D01*
X155714038Y-110246714D01*
X155485276Y-110403289D01*
X155270292Y-110578816D01*
X155070518Y-110772180D01*
X154887382Y-110982268D01*
X154722316Y-111207966D01*
X154576751Y-111448160D01*
X154517693Y-111561275D01*
X154403202Y-111819589D01*
X154312386Y-112084857D01*
X154245163Y-112355410D01*
X154201449Y-112629581D01*
X154181164Y-112905701D01*
X153081405Y-112905701D01*
X153081617Y-112890154D01*
X153083631Y-112806485D01*
X153086291Y-112730265D01*
X153089386Y-112667676D01*
X153092378Y-112628012D01*
X153102350Y-112529074D01*
X153038200Y-112493083D01*
X153012062Y-112478995D01*
X152966329Y-112454978D01*
X152904049Y-112422607D01*
X152828274Y-112383459D01*
X152742050Y-112339107D01*
X152648429Y-112291130D01*
X152559623Y-112245773D01*
X152145196Y-112034455D01*
X152291917Y-111523452D01*
X152323356Y-111414168D01*
X152352686Y-111312631D01*
X152379156Y-111221404D01*
X152402019Y-111143050D01*
X152420525Y-111080129D01*
X152433925Y-111035204D01*
X152441471Y-111010838D01*
X152442822Y-111007155D01*
X152455936Y-111007309D01*
X152491595Y-111009977D01*
X152547099Y-111014901D01*
X152619743Y-111021820D01*
X152706827Y-111030476D01*
X152805646Y-111040607D01*
X152913501Y-111051956D01*
X152951828Y-111056054D01*
X153063089Y-111067982D01*
X153167029Y-111079096D01*
X153260806Y-111089094D01*
X153341577Y-111097674D01*
X153406499Y-111104534D01*
X153452728Y-111109373D01*
X153477423Y-111111888D01*
X153480252Y-111112148D01*
X153505633Y-111104648D01*
X153514843Y-111095000D01*
X153524997Y-111076733D01*
X153544387Y-111041313D01*
X153570179Y-110993933D01*
X153598017Y-110942600D01*
X153635131Y-110876508D01*
X153680338Y-110799693D01*
X153727481Y-110722456D01*
X153764080Y-110664774D01*
X153857957Y-110520299D01*
X153823658Y-110467924D01*
X153808723Y-110445486D01*
X153781373Y-110404770D01*
X153743457Y-110348515D01*
X153696826Y-110279459D01*
X153643329Y-110200342D01*
X153584814Y-110113902D01*
X153524579Y-110025014D01*
X153464627Y-109936338D01*
X153409427Y-109854211D01*
X153360556Y-109781013D01*
X153319587Y-109719122D01*
X153288094Y-109670919D01*
X153267651Y-109638781D01*
X153259833Y-109625087D01*
X153259800Y-109624884D01*
X153268486Y-109613834D01*
X153293015Y-109587297D01*
X153331089Y-109547566D01*
X153380411Y-109496933D01*
X153438683Y-109437692D01*
X153503609Y-109372135D01*
X153572891Y-109302556D01*
X153644231Y-109231246D01*
X153715334Y-109160498D01*
X153783900Y-109092607D01*
X153847635Y-109029863D01*
X153904239Y-108974561D01*
X153951416Y-108928993D01*
X153986869Y-108895451D01*
X154008300Y-108876229D01*
X154013625Y-108872500D01*
X154026063Y-108878672D01*
X154055907Y-108897393D01*
X154103606Y-108928970D01*
X154169609Y-108973710D01*
X154254365Y-109031919D01*
X154358321Y-109103903D01*
X154481926Y-109189971D01*
X154625628Y-109290428D01*
X154665679Y-109318480D01*
X154896809Y-109480420D01*
X154929036Y-109455070D01*
X154962076Y-109431618D01*
X155012673Y-109398839D01*
X155076092Y-109359579D01*
X155147596Y-109316682D01*
X155222448Y-109272993D01*
X155295912Y-109231355D01*
X155358807Y-109196982D01*
X155411287Y-109167802D01*
X155454348Y-109141660D01*
X155483633Y-109121358D01*
X155494785Y-109109699D01*
X155494793Y-109109502D01*
X155493577Y-109094041D01*
X155490188Y-109056035D01*
X155484883Y-108998221D01*
X155477916Y-108923338D01*
X155469544Y-108834125D01*
X155460021Y-108733318D01*
X155449602Y-108623657D01*
X155444887Y-108574214D01*
X155434276Y-108462100D01*
X155424615Y-108358097D01*
X155416136Y-108264865D01*
X155409075Y-108185069D01*
X155403663Y-108121369D01*
X155400136Y-108076427D01*
X155398727Y-108052906D01*
X155398847Y-108050019D01*
X155411433Y-108045686D01*
X155445244Y-108035192D01*
X155497213Y-108019441D01*
X155564274Y-107999333D01*
X155643364Y-107975772D01*
X155731415Y-107949658D01*
X155825363Y-107921894D01*
X155922141Y-107893382D01*
X156018686Y-107865024D01*
X156111930Y-107837721D01*
X156198809Y-107812376D01*
X156276257Y-107789891D01*
X156341208Y-107771167D01*
X156390597Y-107757107D01*
X156421359Y-107748612D01*
X156430582Y-107746449D01*
X156436450Y-107757946D01*
X156436450Y-107757946D01*
G37*
X156436450Y-107757946D02*
X156452314Y-107789897D01*
X156477012Y-107839941D01*
X156509382Y-107905713D01*
X156548262Y-107984851D01*
X156592489Y-108074992D01*
X156640901Y-108173772D01*
X156669024Y-108231202D01*
X156905260Y-108713750D01*
X156984355Y-108707400D01*
X157019168Y-108705634D01*
X157074825Y-108704057D01*
X157146772Y-108702740D01*
X157230454Y-108701756D01*
X157321315Y-108701176D01*
X157387300Y-108701050D01*
X157483412Y-108701308D01*
X157578254Y-108702034D01*
X157666608Y-108703151D01*
X157743256Y-108704586D01*
X157802980Y-108706263D01*
X157829371Y-108707400D01*
X157947592Y-108713750D01*
X158193147Y-108252183D01*
X158246441Y-108152266D01*
X158296353Y-108059186D01*
X158341560Y-107975374D01*
X158380742Y-107903257D01*
X158412574Y-107845264D01*
X158435737Y-107803824D01*
X158448907Y-107781366D01*
X158451164Y-107778155D01*
X158466873Y-107778438D01*
X158506233Y-107786692D01*
X158568820Y-107802797D01*
X158654207Y-107826638D01*
X158761967Y-107858097D01*
X158891675Y-107897057D01*
X158970038Y-107920972D01*
X159078387Y-107954211D01*
X159178913Y-107985083D01*
X159269081Y-108012808D01*
X159346359Y-108036604D01*
X159408215Y-108055691D01*
X159452115Y-108069291D01*
X159475526Y-108076621D01*
X159478757Y-108077691D01*
X159478151Y-108090401D01*
X159474513Y-108125113D01*
X159468258Y-108178663D01*
X159459801Y-108247890D01*
X159449558Y-108329630D01*
X159437944Y-108420719D01*
X159425374Y-108517995D01*
X159412264Y-108618296D01*
X159399030Y-108718457D01*
X159386086Y-108815316D01*
X159373847Y-108905710D01*
X159362730Y-108986476D01*
X159353148Y-109054450D01*
X159345519Y-109106471D01*
X159340257Y-109139374D01*
X159337962Y-109149937D01*
X159343074Y-109163427D01*
X159367041Y-109181893D01*
X159383926Y-109191306D01*
X159478431Y-109243282D01*
X159586568Y-109309503D01*
X159703520Y-109386758D01*
X159824468Y-109471834D01*
X159944593Y-109561520D01*
X159976649Y-109586413D01*
X160018176Y-109618333D01*
X160052076Y-109643244D01*
X160073534Y-109657665D01*
X160078249Y-109659865D01*
X160090661Y-109653787D01*
X160122691Y-109636477D01*
X160171897Y-109609298D01*
X160235838Y-109573614D01*
X160312075Y-109530787D01*
X160398167Y-109482180D01*
X160491673Y-109429157D01*
X160509906Y-109418793D01*
X160604584Y-109365265D01*
X160692438Y-109316201D01*
X160771012Y-109272924D01*
X160837853Y-109236760D01*
X160890507Y-109209035D01*
X160926517Y-109191073D01*
X160943431Y-109184200D01*
X160944282Y-109184257D01*
X160955881Y-109195648D01*
X160981897Y-109223641D01*
X161020140Y-109265751D01*
X161068421Y-109319494D01*
X161124549Y-109382385D01*
X161186333Y-109451940D01*
X161251583Y-109525673D01*
X161318108Y-109601100D01*
X161383719Y-109675736D01*
X161446225Y-109747097D01*
X161503435Y-109812697D01*
X161553160Y-109870053D01*
X161593208Y-109916679D01*
X161621390Y-109950091D01*
X161635514Y-109967804D01*
X161636692Y-109969707D01*
X161629335Y-109982608D01*
X161604789Y-110010864D01*
X161564705Y-110052798D01*
X161510739Y-110106733D01*
X161444543Y-110170992D01*
X161367772Y-110243900D01*
X161347136Y-110263267D01*
X161272754Y-110332942D01*
X161202543Y-110398759D01*
X161139136Y-110458245D01*
X161085166Y-110508928D01*
X161043267Y-110548335D01*
X161016072Y-110573995D01*
X161009238Y-110580488D01*
X160967227Y-110620646D01*
X161055220Y-110759398D01*
X161119902Y-110866832D01*
X161184229Y-110983528D01*
X161243323Y-111100199D01*
X161292302Y-111207563D01*
X161298354Y-111222000D01*
X161320175Y-111265494D01*
X161345415Y-111302721D01*
X161360928Y-111318949D01*
X161394604Y-111346049D01*
X161927777Y-111330215D01*
X162041683Y-111327017D01*
X162147612Y-111324399D01*
X162242893Y-111322399D01*
X162324856Y-111321059D01*
X162390830Y-111320418D01*
X162438144Y-111320515D01*
X162464128Y-111321391D01*
X162468322Y-111322166D01*
X162472303Y-111335470D01*
X162481047Y-111370396D01*
X162493833Y-111423761D01*
X162509942Y-111492385D01*
X162528653Y-111573088D01*
X162549244Y-111662688D01*
X162570997Y-111758007D01*
X162593189Y-111855861D01*
X162615101Y-111953072D01*
X162636013Y-112046459D01*
X162655202Y-112132840D01*
X162671950Y-112209036D01*
X162685535Y-112271866D01*
X162695237Y-112318148D01*
X162700336Y-112344704D01*
X162700910Y-112348867D01*
X162689651Y-112358209D01*
X162655842Y-112376350D01*
X162600570Y-112402794D01*
X162524922Y-112437046D01*
X162429986Y-112478608D01*
X162316850Y-112526986D01*
X162232350Y-112562570D01*
X162128764Y-112605855D01*
X162031764Y-112646187D01*
X161944016Y-112682476D01*
X161868182Y-112713626D01*
X161806927Y-112738547D01*
X161762915Y-112756144D01*
X161738811Y-112765324D01*
X161735766Y-112766298D01*
X161727397Y-112769359D01*
X161720873Y-112775705D01*
X161715854Y-112788383D01*
X161711998Y-112810439D01*
X161708966Y-112844921D01*
X161706416Y-112894874D01*
X161704008Y-112963347D01*
X161701402Y-113053384D01*
X161700662Y-113080276D01*
X161698017Y-113168239D01*
X161695133Y-113249587D01*
X161692190Y-113320268D01*
X161689365Y-113376232D01*
X161686836Y-113413426D01*
X161685466Y-113425450D01*
X161678692Y-113463550D01*
X162161896Y-113710783D01*
X162264113Y-113763457D01*
X162358963Y-113813060D01*
X162444121Y-113858320D01*
X162517260Y-113897969D01*
X162576055Y-113930736D01*
X162618179Y-113955352D01*
X162641306Y-113970547D01*
X162645099Y-113974558D01*
X162641767Y-113989020D01*
X162632358Y-114024690D01*
X162617761Y-114078422D01*
X162598860Y-114147070D01*
X162576541Y-114227489D01*
X162551691Y-114316534D01*
X162525196Y-114411058D01*
X162497941Y-114507917D01*
X162470813Y-114603964D01*
X162444697Y-114696055D01*
X162420480Y-114781043D01*
X162399047Y-114855784D01*
X162381285Y-114917131D01*
X162368079Y-114961940D01*
X162360315Y-114987064D01*
X162358719Y-114991311D01*
X162345951Y-114990784D01*
X162310544Y-114987741D01*
X162255110Y-114982444D01*
X162182256Y-114975157D01*
X162094592Y-114966144D01*
X161994728Y-114955667D01*
X161885272Y-114943990D01*
X161819464Y-114936885D01*
X161705678Y-114924636D01*
X161599973Y-114913432D01*
X161504962Y-114903536D01*
X161423257Y-114895212D01*
X161357471Y-114888725D01*
X161310217Y-114884339D01*
X161284109Y-114882317D01*
X161279689Y-114882323D01*
X161272840Y-114894637D01*
X161257860Y-114923550D01*
X161237929Y-114962922D01*
X161237000Y-114964773D01*
X161195435Y-115043362D01*
X161143904Y-115134158D01*
X161087345Y-115228801D01*
X161030697Y-115318932D01*
X161002610Y-115361588D01*
X160974351Y-115405124D01*
X160952627Y-115441354D01*
X160940689Y-115464729D01*
X160939374Y-115469538D01*
X160946344Y-115482576D01*
X160966134Y-115514359D01*
X160997266Y-115562640D01*
X161038261Y-115625170D01*
X161087641Y-115699702D01*
X161143927Y-115783987D01*
X161205641Y-115875777D01*
X161240143Y-115926847D01*
X161540605Y-116370844D01*
X161448327Y-116466495D01*
X161415831Y-116499926D01*
X161368574Y-116548193D01*
X161309691Y-116608112D01*
X161242320Y-116676496D01*
X161169597Y-116750159D01*
X161094657Y-116825915D01*
X161070300Y-116850504D01*
X160784550Y-117138862D01*
X160448000Y-116903771D01*
X160360518Y-116842614D01*
X160274686Y-116782523D01*
X160194074Y-116726003D01*
X160122251Y-116675559D01*
X160062786Y-116633696D01*
X160019249Y-116602921D01*
X160007777Y-116594765D01*
X159904105Y-116520849D01*
X159829977Y-116570857D01*
X159764988Y-116613189D01*
X159687186Y-116661527D01*
X159603552Y-116711737D01*
X159521065Y-116759685D01*
X159446707Y-116801237D01*
X159394451Y-116828772D01*
X159349004Y-116852698D01*
X159322630Y-116870148D01*
X159311124Y-116884811D01*
X159310284Y-116900379D01*
X159310666Y-116902324D01*
X159313847Y-116924352D01*
X159318714Y-116967200D01*
X159324980Y-117027633D01*
X159332354Y-117102413D01*
X159340549Y-117188305D01*
X159349275Y-117282070D01*
X159358244Y-117380473D01*
X159367167Y-117480277D01*
X159375756Y-117578244D01*
X159383722Y-117671137D01*
X159390775Y-117755721D01*
X159396628Y-117828758D01*
X159400991Y-117887012D01*
X159403577Y-117927245D01*
X159404095Y-117946221D01*
X159403875Y-117947257D01*
X159390918Y-117951954D01*
X159356311Y-117963039D01*
X159302759Y-117979698D01*
X159232967Y-118001111D01*
X159149641Y-118026464D01*
X159055487Y-118054939D01*
X158953210Y-118085719D01*
X158845516Y-118117988D01*
X158735110Y-118150928D01*
X158624699Y-118183723D01*
X158516987Y-118215556D01*
X158446925Y-118236160D01*
X158382601Y-118255034D01*
X158142567Y-117774434D01*
X157902534Y-117293835D01*
X157844942Y-117302742D01*
X157812414Y-117305620D01*
X157758627Y-117307911D01*
X157687715Y-117309623D01*
X157603812Y-117310760D01*
X157511051Y-117311331D01*
X157413567Y-117311343D01*
X157315495Y-117310801D01*
X157220966Y-117309713D01*
X157134116Y-117308085D01*
X157059079Y-117305925D01*
X156999989Y-117303238D01*
X156973267Y-117301319D01*
X156857684Y-117290989D01*
X156606849Y-117761694D01*
X156553009Y-117862093D01*
X156502445Y-117955161D01*
X156456468Y-118038575D01*
X156416390Y-118110011D01*
X156383522Y-118167145D01*
X156359174Y-118207654D01*
X156344658Y-118229213D01*
X156341432Y-118232163D01*
X156325700Y-118228495D01*
X156289090Y-118218267D01*
X156234730Y-118202439D01*
X156165751Y-118181971D01*
X156085283Y-118157822D01*
X155996457Y-118130951D01*
X155902402Y-118102318D01*
X155806248Y-118072882D01*
X155711126Y-118043603D01*
X155620166Y-118015439D01*
X155536497Y-117989350D01*
X155463251Y-117966296D01*
X155403556Y-117947236D01*
X155360544Y-117933130D01*
X155337343Y-117924936D01*
X155334212Y-117923446D01*
X155334344Y-117910014D01*
X155337226Y-117874622D01*
X155342484Y-117820518D01*
X155349742Y-117750947D01*
X155358624Y-117669157D01*
X155368754Y-117578395D01*
X155379758Y-117481907D01*
X155391260Y-117382941D01*
X155402883Y-117284744D01*
X155414252Y-117190562D01*
X155424993Y-117103642D01*
X155434728Y-117027231D01*
X155443083Y-116964576D01*
X155449682Y-116918925D01*
X155452188Y-116903588D01*
X155454411Y-116884074D01*
X155450304Y-116868997D01*
X155435847Y-116854269D01*
X155407022Y-116835799D01*
X155359808Y-116809498D01*
X155359604Y-116809387D01*
X155226321Y-116732385D01*
X155085234Y-116643549D01*
X154946214Y-116549285D01*
X154842081Y-116473489D01*
X154698230Y-116364900D01*
X154280640Y-116607652D01*
X154185334Y-116663086D01*
X154095598Y-116715341D01*
X154014124Y-116762844D01*
X153943604Y-116804023D01*
X153886732Y-116837304D01*
X153846199Y-116861117D01*
X153824698Y-116873889D01*
X153823796Y-116874439D01*
X153784542Y-116898473D01*
X153434366Y-116501811D01*
X153359259Y-116416554D01*
X153289531Y-116337057D01*
X153226952Y-116265364D01*
X153173291Y-116203517D01*
X153130318Y-116153560D01*
X153099802Y-116117535D01*
X153083512Y-116097484D01*
X153081263Y-116094125D01*
X153088408Y-116082220D01*
X153110032Y-116052854D01*
X153144448Y-116008161D01*
X153189975Y-115950276D01*
X153244929Y-115881334D01*
X153307625Y-115803468D01*
X153376380Y-115718813D01*
X153404013Y-115684981D01*
X153729692Y-115286861D01*
X153661409Y-115181655D01*
X153617276Y-115111654D01*
X153579603Y-115046641D01*
X153544762Y-114979590D01*
X153509127Y-114903472D01*
X153469069Y-114811259D01*
X153463923Y-114799089D01*
X153405850Y-114661428D01*
X153139150Y-114665598D01*
X153035882Y-114666981D01*
X152917678Y-114668187D01*
X152795000Y-114669132D01*
X152678311Y-114669733D01*
X152599400Y-114669909D01*
X152326350Y-114670050D01*
X152210515Y-114155700D01*
X152185757Y-114045238D01*
X152162982Y-113942595D01*
X152142753Y-113850387D01*
X152125633Y-113771230D01*
X152112187Y-113707743D01*
X152102976Y-113662540D01*
X152098566Y-113638239D01*
X152098318Y-113634771D01*
X152110451Y-113628654D01*
X152143603Y-113613900D01*
X152195314Y-113591554D01*
X152263121Y-113562665D01*
X152344564Y-113528277D01*
X152437179Y-113489436D01*
X152538506Y-113447190D01*
X152590238Y-113425709D01*
X153078519Y-113223226D01*
X153080463Y-112975088D01*
X153081405Y-112905701D01*
X154181164Y-112905701D01*
X154184224Y-113182102D01*
X154210548Y-113457116D01*
X154260052Y-113729074D01*
X154332656Y-113996308D01*
X154428276Y-114257150D01*
X154546831Y-114509931D01*
X154673992Y-114730625D01*
X154811978Y-114929972D01*
X154970314Y-115124710D01*
X155144504Y-115310214D01*
X155330053Y-115481860D01*
X155522463Y-115635022D01*
X155618932Y-115702622D01*
X155837981Y-115836108D01*
X156070321Y-115953368D01*
X156311613Y-116052784D01*
X156557520Y-116132739D01*
X156803704Y-116191613D01*
X157019000Y-116224910D01*
X157076405Y-116231490D01*
X157128330Y-116237634D01*
X157166750Y-116242385D01*
X157177750Y-116243849D01*
X157213941Y-116246442D01*
X157270619Y-116247508D01*
X157342928Y-116247207D01*
X157426010Y-116245702D01*
X157515009Y-116243152D01*
X157605067Y-116239718D01*
X157691328Y-116235561D01*
X157768935Y-116230842D01*
X157833031Y-116225721D01*
X157876250Y-116220740D01*
X158163711Y-116165755D01*
X158440866Y-116087789D01*
X158707094Y-115987144D01*
X158961773Y-115864125D01*
X159204284Y-115719036D01*
X159434003Y-115552178D01*
X159650311Y-115363857D01*
X159671798Y-115343259D01*
X159873428Y-115131292D01*
X160052867Y-114907006D01*
X160209956Y-114670716D01*
X160344537Y-114422737D01*
X160456454Y-114163384D01*
X160545548Y-113892972D01*
X160611662Y-113611818D01*
X160646122Y-113393700D01*
X160653738Y-113314072D01*
X160659310Y-113216274D01*
X160662784Y-113107078D01*
X160664109Y-112993255D01*
X160663234Y-112881577D01*
X160660107Y-112778813D01*
X160654675Y-112691737D01*
X160651710Y-112661607D01*
X160606766Y-112372261D01*
X160538600Y-112093178D01*
X160447102Y-111824086D01*
X160332160Y-111564714D01*
X160193665Y-111314789D01*
X160031507Y-111074041D01*
X159980192Y-111006100D01*
X159917236Y-110929606D01*
X159839741Y-110842995D01*
X159753164Y-110751811D01*
X159662961Y-110661601D01*
X159574587Y-110577911D01*
X159493500Y-110506287D01*
X159466817Y-110484261D01*
X159233634Y-110311972D01*
X158990026Y-110162840D01*
X158735887Y-110036813D01*
X158471110Y-109933838D01*
X158195590Y-109853864D01*
X158181050Y-109850353D01*
X158051047Y-109821435D01*
X157930064Y-109799619D01*
X157809951Y-109783880D01*
X157682555Y-109773189D01*
X157539727Y-109766521D01*
X157507950Y-109765562D01*
X157301060Y-109764982D01*
X157107683Y-109775877D01*
X156918269Y-109799071D01*
X156738264Y-109832203D01*
X156468692Y-109901835D01*
X156207177Y-109994873D01*
X155955149Y-110110204D01*
X155714038Y-110246714D01*
X155485276Y-110403289D01*
X155270292Y-110578816D01*
X155070518Y-110772180D01*
X154887382Y-110982268D01*
X154722316Y-111207966D01*
X154576751Y-111448160D01*
X154517693Y-111561275D01*
X154403202Y-111819589D01*
X154312386Y-112084857D01*
X154245163Y-112355410D01*
X154201449Y-112629581D01*
X154181164Y-112905701D01*
X153081405Y-112905701D01*
X153081617Y-112890154D01*
X153083631Y-112806485D01*
X153086291Y-112730265D01*
X153089386Y-112667676D01*
X153092378Y-112628012D01*
X153102350Y-112529074D01*
X153038200Y-112493083D01*
X153012062Y-112478995D01*
X152966329Y-112454978D01*
X152904049Y-112422607D01*
X152828274Y-112383459D01*
X152742050Y-112339107D01*
X152648429Y-112291130D01*
X152559623Y-112245773D01*
X152145196Y-112034455D01*
X152291917Y-111523452D01*
X152323356Y-111414168D01*
X152352686Y-111312631D01*
X152379156Y-111221404D01*
X152402019Y-111143050D01*
X152420525Y-111080129D01*
X152433925Y-111035204D01*
X152441471Y-111010838D01*
X152442822Y-111007155D01*
X152455936Y-111007309D01*
X152491595Y-111009977D01*
X152547099Y-111014901D01*
X152619743Y-111021820D01*
X152706827Y-111030476D01*
X152805646Y-111040607D01*
X152913501Y-111051956D01*
X152951828Y-111056054D01*
X153063089Y-111067982D01*
X153167029Y-111079096D01*
X153260806Y-111089094D01*
X153341577Y-111097674D01*
X153406499Y-111104534D01*
X153452728Y-111109373D01*
X153477423Y-111111888D01*
X153480252Y-111112148D01*
X153505633Y-111104648D01*
X153514843Y-111095000D01*
X153524997Y-111076733D01*
X153544387Y-111041313D01*
X153570179Y-110993933D01*
X153598017Y-110942600D01*
X153635131Y-110876508D01*
X153680338Y-110799693D01*
X153727481Y-110722456D01*
X153764080Y-110664774D01*
X153857957Y-110520299D01*
X153823658Y-110467924D01*
X153808723Y-110445486D01*
X153781373Y-110404770D01*
X153743457Y-110348515D01*
X153696826Y-110279459D01*
X153643329Y-110200342D01*
X153584814Y-110113902D01*
X153524579Y-110025014D01*
X153464627Y-109936338D01*
X153409427Y-109854211D01*
X153360556Y-109781013D01*
X153319587Y-109719122D01*
X153288094Y-109670919D01*
X153267651Y-109638781D01*
X153259833Y-109625087D01*
X153259800Y-109624884D01*
X153268486Y-109613834D01*
X153293015Y-109587297D01*
X153331089Y-109547566D01*
X153380411Y-109496933D01*
X153438683Y-109437692D01*
X153503609Y-109372135D01*
X153572891Y-109302556D01*
X153644231Y-109231246D01*
X153715334Y-109160498D01*
X153783900Y-109092607D01*
X153847635Y-109029863D01*
X153904239Y-108974561D01*
X153951416Y-108928993D01*
X153986869Y-108895451D01*
X154008300Y-108876229D01*
X154013625Y-108872500D01*
X154026063Y-108878672D01*
X154055907Y-108897393D01*
X154103606Y-108928970D01*
X154169609Y-108973710D01*
X154254365Y-109031919D01*
X154358321Y-109103903D01*
X154481926Y-109189971D01*
X154625628Y-109290428D01*
X154665679Y-109318480D01*
X154896809Y-109480420D01*
X154929036Y-109455070D01*
X154962076Y-109431618D01*
X155012673Y-109398839D01*
X155076092Y-109359579D01*
X155147596Y-109316682D01*
X155222448Y-109272993D01*
X155295912Y-109231355D01*
X155358807Y-109196982D01*
X155411287Y-109167802D01*
X155454348Y-109141660D01*
X155483633Y-109121358D01*
X155494785Y-109109699D01*
X155494793Y-109109502D01*
X155493577Y-109094041D01*
X155490188Y-109056035D01*
X155484883Y-108998221D01*
X155477916Y-108923338D01*
X155469544Y-108834125D01*
X155460021Y-108733318D01*
X155449602Y-108623657D01*
X155444887Y-108574214D01*
X155434276Y-108462100D01*
X155424615Y-108358097D01*
X155416136Y-108264865D01*
X155409075Y-108185069D01*
X155403663Y-108121369D01*
X155400136Y-108076427D01*
X155398727Y-108052906D01*
X155398847Y-108050019D01*
X155411433Y-108045686D01*
X155445244Y-108035192D01*
X155497213Y-108019441D01*
X155564274Y-107999333D01*
X155643364Y-107975772D01*
X155731415Y-107949658D01*
X155825363Y-107921894D01*
X155922141Y-107893382D01*
X156018686Y-107865024D01*
X156111930Y-107837721D01*
X156198809Y-107812376D01*
X156276257Y-107789891D01*
X156341208Y-107771167D01*
X156390597Y-107757107D01*
X156421359Y-107748612D01*
X156430582Y-107746449D01*
X156436450Y-107757946D01*
G36*
X158008237Y-110680580D02*
X158254769Y-110705530D01*
X158495399Y-110748794D01*
X158736681Y-110811529D01*
X158964273Y-110887219D01*
X159017884Y-110907498D01*
X159063727Y-110926200D01*
X159095698Y-110940761D01*
X159106183Y-110946817D01*
X159110408Y-110953558D01*
X159110762Y-110966207D01*
X159106412Y-110987123D01*
X159096527Y-111018663D01*
X159080274Y-111063186D01*
X159056822Y-111123050D01*
X159025339Y-111200611D01*
X158984992Y-111298230D01*
X158966565Y-111342511D01*
X158928080Y-111434652D01*
X158892644Y-111519078D01*
X158861450Y-111592983D01*
X158835689Y-111653561D01*
X158816552Y-111698003D01*
X158805230Y-111723505D01*
X158802670Y-111728562D01*
X158789638Y-111725941D01*
X158759095Y-111714563D01*
X158716484Y-111696542D01*
X158693292Y-111686128D01*
X158556946Y-111630366D01*
X158405952Y-111580048D01*
X158250980Y-111538576D01*
X158185289Y-111524212D01*
X158132470Y-111514156D01*
X158083663Y-111506675D01*
X158033618Y-111501409D01*
X157977085Y-111497998D01*
X157908814Y-111496082D01*
X157823554Y-111495304D01*
X157761950Y-111495233D01*
X157666864Y-111495548D01*
X157592628Y-111496576D01*
X157534693Y-111498652D01*
X157488511Y-111502108D01*
X157449536Y-111507280D01*
X157413218Y-111514500D01*
X157377319Y-111523487D01*
X157233536Y-111567947D01*
X157108179Y-111621003D01*
X156994752Y-111686340D01*
X156886763Y-111767641D01*
X156789365Y-111857000D01*
X156672046Y-111986387D01*
X156573815Y-112124792D01*
X156494101Y-112273905D01*
X156432333Y-112435421D01*
X156387941Y-112611033D01*
X156360351Y-112802432D01*
X156348994Y-113011313D01*
X156350089Y-113158750D01*
X156360138Y-113348303D01*
X156379116Y-113517603D01*
X156407806Y-113670455D01*
X156446994Y-113810665D01*
X156497464Y-113942040D01*
X156522922Y-113996950D01*
X156607204Y-114145467D01*
X156705099Y-114272712D01*
X156817355Y-114379314D01*
X156944722Y-114465900D01*
X157087947Y-114533100D01*
X157206657Y-114571272D01*
X157253210Y-114583103D01*
X157294641Y-114591759D01*
X157336431Y-114597747D01*
X157384059Y-114601574D01*
X157443005Y-114603748D01*
X157518750Y-114604775D01*
X157571450Y-114605042D01*
X157717250Y-114603365D01*
X157845170Y-114596861D01*
X157962372Y-114584939D01*
X158076020Y-114567011D01*
X158108025Y-114560865D01*
X158174700Y-114547599D01*
X158174700Y-113584200D01*
X157298400Y-113584200D01*
X157298400Y-112771400D01*
X159140029Y-112771400D01*
X159136789Y-113967906D01*
X159133550Y-115164412D01*
X159019250Y-115200050D01*
X158777748Y-115267501D01*
X158518271Y-115325279D01*
X158246801Y-115372143D01*
X158079450Y-115394653D01*
X158027026Y-115399664D01*
X157957011Y-115404470D01*
X157873686Y-115408948D01*
X157781334Y-115412977D01*
X157684240Y-115416438D01*
X157586685Y-115419207D01*
X157492953Y-115421165D01*
X157407327Y-115422190D01*
X157334090Y-115422161D01*
X157277525Y-115420957D01*
X157241915Y-115418456D01*
X157241250Y-115418365D01*
X157211821Y-115414543D01*
X157165173Y-115408828D01*
X157109323Y-115402193D01*
X157082500Y-115399072D01*
X156986849Y-115384570D01*
X156878227Y-115362497D01*
X156766498Y-115335236D01*
X156661524Y-115305171D01*
X156582189Y-115278144D01*
X156385411Y-115191027D01*
X156204973Y-115084541D01*
X156041019Y-114958883D01*
X155893688Y-114814247D01*
X155763123Y-114650830D01*
X155649465Y-114468826D01*
X155552856Y-114268431D01*
X155473436Y-114049841D01*
X155411349Y-113813250D01*
X155374018Y-113609600D01*
X155365008Y-113533694D01*
X155357439Y-113438048D01*
X155351433Y-113328288D01*
X155347108Y-113210040D01*
X155344585Y-113088928D01*
X155343983Y-112970578D01*
X155345422Y-112860617D01*
X155349022Y-112764669D01*
X155354492Y-112692192D01*
X155391755Y-112439149D01*
X155448814Y-112201351D01*
X155525423Y-111979137D01*
X155621334Y-111772843D01*
X155736298Y-111582809D01*
X155870069Y-111409371D01*
X156022399Y-111252867D01*
X156193040Y-111113636D01*
X156381745Y-110992015D01*
X156588265Y-110888342D01*
X156714200Y-110837282D01*
X156887861Y-110779581D01*
X157065935Y-110735043D01*
X157252767Y-110702979D01*
X157452699Y-110682698D01*
X157670078Y-110673509D01*
X157749250Y-110672788D01*
X158008237Y-110680580D01*
X158008237Y-110680580D01*
G37*
X158008237Y-110680580D02*
X158254769Y-110705530D01*
X158495399Y-110748794D01*
X158736681Y-110811529D01*
X158964273Y-110887219D01*
X159017884Y-110907498D01*
X159063727Y-110926200D01*
X159095698Y-110940761D01*
X159106183Y-110946817D01*
X159110408Y-110953558D01*
X159110762Y-110966207D01*
X159106412Y-110987123D01*
X159096527Y-111018663D01*
X159080274Y-111063186D01*
X159056822Y-111123050D01*
X159025339Y-111200611D01*
X158984992Y-111298230D01*
X158966565Y-111342511D01*
X158928080Y-111434652D01*
X158892644Y-111519078D01*
X158861450Y-111592983D01*
X158835689Y-111653561D01*
X158816552Y-111698003D01*
X158805230Y-111723505D01*
X158802670Y-111728562D01*
X158789638Y-111725941D01*
X158759095Y-111714563D01*
X158716484Y-111696542D01*
X158693292Y-111686128D01*
X158556946Y-111630366D01*
X158405952Y-111580048D01*
X158250980Y-111538576D01*
X158185289Y-111524212D01*
X158132470Y-111514156D01*
X158083663Y-111506675D01*
X158033618Y-111501409D01*
X157977085Y-111497998D01*
X157908814Y-111496082D01*
X157823554Y-111495304D01*
X157761950Y-111495233D01*
X157666864Y-111495548D01*
X157592628Y-111496576D01*
X157534693Y-111498652D01*
X157488511Y-111502108D01*
X157449536Y-111507280D01*
X157413218Y-111514500D01*
X157377319Y-111523487D01*
X157233536Y-111567947D01*
X157108179Y-111621003D01*
X156994752Y-111686340D01*
X156886763Y-111767641D01*
X156789365Y-111857000D01*
X156672046Y-111986387D01*
X156573815Y-112124792D01*
X156494101Y-112273905D01*
X156432333Y-112435421D01*
X156387941Y-112611033D01*
X156360351Y-112802432D01*
X156348994Y-113011313D01*
X156350089Y-113158750D01*
X156360138Y-113348303D01*
X156379116Y-113517603D01*
X156407806Y-113670455D01*
X156446994Y-113810665D01*
X156497464Y-113942040D01*
X156522922Y-113996950D01*
X156607204Y-114145467D01*
X156705099Y-114272712D01*
X156817355Y-114379314D01*
X156944722Y-114465900D01*
X157087947Y-114533100D01*
X157206657Y-114571272D01*
X157253210Y-114583103D01*
X157294641Y-114591759D01*
X157336431Y-114597747D01*
X157384059Y-114601574D01*
X157443005Y-114603748D01*
X157518750Y-114604775D01*
X157571450Y-114605042D01*
X157717250Y-114603365D01*
X157845170Y-114596861D01*
X157962372Y-114584939D01*
X158076020Y-114567011D01*
X158108025Y-114560865D01*
X158174700Y-114547599D01*
X158174700Y-113584200D01*
X157298400Y-113584200D01*
X157298400Y-112771400D01*
X159140029Y-112771400D01*
X159136789Y-113967906D01*
X159133550Y-115164412D01*
X159019250Y-115200050D01*
X158777748Y-115267501D01*
X158518271Y-115325279D01*
X158246801Y-115372143D01*
X158079450Y-115394653D01*
X158027026Y-115399664D01*
X157957011Y-115404470D01*
X157873686Y-115408948D01*
X157781334Y-115412977D01*
X157684240Y-115416438D01*
X157586685Y-115419207D01*
X157492953Y-115421165D01*
X157407327Y-115422190D01*
X157334090Y-115422161D01*
X157277525Y-115420957D01*
X157241915Y-115418456D01*
X157241250Y-115418365D01*
X157211821Y-115414543D01*
X157165173Y-115408828D01*
X157109323Y-115402193D01*
X157082500Y-115399072D01*
X156986849Y-115384570D01*
X156878227Y-115362497D01*
X156766498Y-115335236D01*
X156661524Y-115305171D01*
X156582189Y-115278144D01*
X156385411Y-115191027D01*
X156204973Y-115084541D01*
X156041019Y-114958883D01*
X155893688Y-114814247D01*
X155763123Y-114650830D01*
X155649465Y-114468826D01*
X155552856Y-114268431D01*
X155473436Y-114049841D01*
X155411349Y-113813250D01*
X155374018Y-113609600D01*
X155365008Y-113533694D01*
X155357439Y-113438048D01*
X155351433Y-113328288D01*
X155347108Y-113210040D01*
X155344585Y-113088928D01*
X155343983Y-112970578D01*
X155345422Y-112860617D01*
X155349022Y-112764669D01*
X155354492Y-112692192D01*
X155391755Y-112439149D01*
X155448814Y-112201351D01*
X155525423Y-111979137D01*
X155621334Y-111772843D01*
X155736298Y-111582809D01*
X155870069Y-111409371D01*
X156022399Y-111252867D01*
X156193040Y-111113636D01*
X156381745Y-110992015D01*
X156588265Y-110888342D01*
X156714200Y-110837282D01*
X156887861Y-110779581D01*
X157065935Y-110735043D01*
X157252767Y-110702979D01*
X157452699Y-110682698D01*
X157670078Y-110673509D01*
X157749250Y-110672788D01*
X158008237Y-110680580D01*
D14*
X108501780Y-144998720D02*
X110498220Y-144998720D01*
D16*
X101100220Y-144998720D02*
X107902340Y-144998720D01*
X107902340Y-144998720D02*
X110998600Y-144998720D01*
X107902340Y-135001280D02*
X110998600Y-135001280D01*
X107902340Y-135001280D02*
X101100220Y-135001280D01*
X110998600Y-144998720D02*
X110998600Y-135001280D01*
X101001160Y-144998720D02*
X101001160Y-135001280D01*
X101001160Y-135001280D02*
X110899540Y-135001280D01*
X110899540Y-135001280D02*
X110899540Y-144998720D01*
X110899540Y-144998720D02*
X101001160Y-144998720D01*
X107902340Y-144998720D02*
X107902340Y-135001280D01*
X101100220Y-144998720D02*
X101100220Y-142799080D01*
X101100220Y-142799080D02*
X102100980Y-142799080D01*
X102100980Y-142799080D02*
X102100980Y-137200920D01*
X102100980Y-137200920D02*
X101100220Y-137200920D01*
X101100220Y-137200920D02*
X101100220Y-135001280D01*
D14*
X108501780Y-132998720D02*
X110498220Y-132998720D01*
D16*
X101100220Y-132998720D02*
X107902340Y-132998720D01*
X107902340Y-132998720D02*
X110998600Y-132998720D01*
X107902340Y-123001280D02*
X110998600Y-123001280D01*
X107902340Y-123001280D02*
X101100220Y-123001280D01*
X110998600Y-132998720D02*
X110998600Y-123001280D01*
X101001160Y-132998720D02*
X101001160Y-123001280D01*
X101001160Y-123001280D02*
X110899540Y-123001280D01*
X110899540Y-123001280D02*
X110899540Y-132998720D01*
X110899540Y-132998720D02*
X101001160Y-132998720D01*
X107902340Y-132998720D02*
X107902340Y-123001280D01*
X101100220Y-132998720D02*
X101100220Y-130799080D01*
X101100220Y-130799080D02*
X102100980Y-130799080D01*
X102100980Y-130799080D02*
X102100980Y-125200920D01*
X102100980Y-125200920D02*
X101100220Y-125200920D01*
X101100220Y-125200920D02*
X101100220Y-123001280D01*
D14*
X108501780Y-120998720D02*
X110498220Y-120998720D01*
D16*
X101100220Y-120998720D02*
X107902340Y-120998720D01*
X107902340Y-120998720D02*
X110998600Y-120998720D01*
X107902340Y-111001280D02*
X110998600Y-111001280D01*
X107902340Y-111001280D02*
X101100220Y-111001280D01*
X110998600Y-120998720D02*
X110998600Y-111001280D01*
X101001160Y-120998720D02*
X101001160Y-111001280D01*
X101001160Y-111001280D02*
X110899540Y-111001280D01*
X110899540Y-111001280D02*
X110899540Y-120998720D01*
X110899540Y-120998720D02*
X101001160Y-120998720D01*
X107902340Y-120998720D02*
X107902340Y-111001280D01*
X101100220Y-120998720D02*
X101100220Y-118799080D01*
X101100220Y-118799080D02*
X102100980Y-118799080D01*
X102100980Y-118799080D02*
X102100980Y-113200920D01*
X102100980Y-113200920D02*
X101100220Y-113200920D01*
X101100220Y-113200920D02*
X101100220Y-111001280D01*
D17*
X134470000Y-124720000D02*
X134470000Y-124220000D01*
X133530000Y-124220000D02*
X133530000Y-124720000D01*
X117125000Y-121495000D02*
X117625000Y-121495000D01*
X117625000Y-120555000D02*
X117125000Y-120555000D01*
X117125000Y-119420000D02*
X117625000Y-119420000D01*
X117625000Y-118480000D02*
X117125000Y-118480000D01*
X117625000Y-116355000D02*
X117125000Y-116355000D01*
X117125000Y-117295000D02*
X117625000Y-117295000D01*
X129750000Y-128870000D02*
X130250000Y-128870000D01*
X130250000Y-127930000D02*
X129750000Y-127930000D01*
X123750000Y-111530000D02*
X123250000Y-111530000D01*
X123250000Y-112470000D02*
X123750000Y-112470000D01*
X117200000Y-111170000D02*
X117700000Y-111170000D01*
X117700000Y-110230000D02*
X117200000Y-110230000D01*
X117250000Y-113120000D02*
X117750000Y-113120000D01*
X117750000Y-112180000D02*
X117250000Y-112180000D01*
X117750000Y-114380000D02*
X117250000Y-114380000D01*
X117250000Y-115320000D02*
X117750000Y-115320000D01*
X154110000Y-124750000D02*
X154110000Y-124250000D01*
X153170000Y-124250000D02*
X153170000Y-124750000D01*
X149550000Y-128670000D02*
X150050000Y-128670000D01*
X150050000Y-127730000D02*
X149550000Y-127730000D01*
D18*
X152950000Y-152000000D02*
X154950000Y-152000000D01*
X153950000Y-151000000D02*
X153950000Y-153000000D01*
X155920406Y-152000000D02*
G75*
G03X155920406Y-152000000I-1970406J0D01*
G01*
X141700000Y-155300000D02*
X141700000Y-134800000D01*
X141700000Y-134800000D02*
X158300000Y-134800000D01*
X158300000Y-134800000D02*
X158300000Y-155300000D01*
X158300000Y-155300000D02*
X141700000Y-155300000D01*
D14*
X114183000Y-134245000D02*
X116977000Y-134245000D01*
X116977000Y-134245000D02*
X116977000Y-135515000D01*
X116977000Y-135515000D02*
X114183000Y-135515000D01*
X114183000Y-135515000D02*
X114183000Y-134245000D01*
X114203000Y-136325000D02*
X116997000Y-136325000D01*
X116997000Y-136325000D02*
X116997000Y-137595000D01*
X116997000Y-137595000D02*
X114203000Y-137595000D01*
X114203000Y-137595000D02*
X114203000Y-136325000D01*
X112703000Y-117490000D02*
X115497000Y-117490000D01*
X115497000Y-117490000D02*
X115497000Y-118760000D01*
X115497000Y-118760000D02*
X112703000Y-118760000D01*
X112703000Y-118760000D02*
X112703000Y-117490000D01*
X115522000Y-121160000D02*
X112728000Y-121160000D01*
X112728000Y-121160000D02*
X112728000Y-119890000D01*
X112728000Y-119890000D02*
X115522000Y-119890000D01*
X115522000Y-119890000D02*
X115522000Y-121160000D01*
X119665000Y-110947000D02*
X119665000Y-108153000D01*
X119665000Y-108153000D02*
X120935000Y-108153000D01*
X120935000Y-108153000D02*
X120935000Y-110947000D01*
X120935000Y-110947000D02*
X119665000Y-110947000D01*
X121915000Y-110897000D02*
X121915000Y-108103000D01*
X121915000Y-108103000D02*
X123185000Y-108103000D01*
X123185000Y-108103000D02*
X123185000Y-110897000D01*
X123185000Y-110897000D02*
X121915000Y-110897000D01*
X115522000Y-112210000D02*
X112728000Y-112210000D01*
X112728000Y-112210000D02*
X112728000Y-110940000D01*
X112728000Y-110940000D02*
X115522000Y-110940000D01*
X115522000Y-110940000D02*
X115522000Y-112210000D01*
X115522000Y-114410000D02*
X112728000Y-114410000D01*
X112728000Y-114410000D02*
X112728000Y-113140000D01*
X112728000Y-113140000D02*
X115522000Y-113140000D01*
X115522000Y-113140000D02*
X115522000Y-114410000D01*
D18*
X132950000Y-152000000D02*
X134950000Y-152000000D01*
X133950000Y-151000000D02*
X133950000Y-153000000D01*
X135920406Y-152000000D02*
G75*
G03X135920406Y-152000000I-1970406J0D01*
G01*
X121700000Y-155300000D02*
X121700000Y-134800000D01*
X121700000Y-134800000D02*
X138300000Y-134800000D01*
X138300000Y-134800000D02*
X138300000Y-155300000D01*
X138300000Y-155300000D02*
X121700000Y-155300000D01*
D19*
X152248560Y-121182020D02*
X152248560Y-124417980D01*
X147351440Y-121182020D02*
X147351440Y-124417980D01*
X147351440Y-123849020D02*
X147920400Y-124417980D01*
X132448560Y-121182020D02*
X132448560Y-124417980D01*
X127551440Y-121182020D02*
X127551440Y-124417980D01*
X127551440Y-123849020D02*
X128120400Y-124417980D01*
D18*
X120250000Y-117500000D02*
X120425000Y-117500000D01*
X120250000Y-114250000D02*
X120525000Y-114250000D01*
X123500000Y-114250000D02*
X123225000Y-114250000D01*
X123500000Y-117500000D02*
X123225000Y-117500000D01*
X120250000Y-117500000D02*
X120250000Y-114250000D01*
X123500000Y-117500000D02*
X123500000Y-114250000D01*
X120425000Y-117500000D02*
X120425000Y-118575000D01*
D14*
X150365000Y-132597000D02*
X150365000Y-129803000D01*
X150365000Y-129803000D02*
X151635000Y-129803000D01*
X151635000Y-129803000D02*
X151635000Y-132597000D01*
X151635000Y-132597000D02*
X150365000Y-132597000D01*
X148115000Y-132647000D02*
X148115000Y-129853000D01*
X148115000Y-129853000D02*
X149385000Y-129853000D01*
X149385000Y-129853000D02*
X149385000Y-132647000D01*
X149385000Y-132647000D02*
X148115000Y-132647000D01*
X128165000Y-132997000D02*
X128165000Y-130203000D01*
X128165000Y-130203000D02*
X129435000Y-130203000D01*
X129435000Y-130203000D02*
X129435000Y-132997000D01*
X129435000Y-132997000D02*
X128165000Y-132997000D01*
D18*
X132578571Y-132108333D02*
X132578571Y-132441667D01*
X133102381Y-132441667D02*
X132102381Y-132441667D01*
X132102381Y-131965476D01*
X132578571Y-131251190D02*
X132626190Y-131108333D01*
X132673810Y-131060714D01*
X132769048Y-131013095D01*
X132911905Y-131013095D01*
X133007143Y-131060714D01*
X133054762Y-131108333D01*
X133102381Y-131203571D01*
X133102381Y-131584524D01*
X132102381Y-131584524D01*
X132102381Y-131251190D01*
X132150000Y-131155952D01*
X132197619Y-131108333D01*
X132292857Y-131060714D01*
X132388095Y-131060714D01*
X132483333Y-131108333D01*
X132530952Y-131155952D01*
X132578571Y-131251190D01*
X132578571Y-131584524D01*
X133102381Y-130060714D02*
X133102381Y-130632143D01*
X133102381Y-130346429D02*
X132102381Y-130346429D01*
X132245238Y-130441667D01*
X132340476Y-130536905D01*
X132388095Y-130632143D01*
D20*
X133811500Y-133666666D02*
X133811500Y-133962999D01*
X134277167Y-133962999D02*
X133388167Y-133962999D01*
X133388167Y-133539666D01*
X133811500Y-133200999D02*
X133811500Y-132904666D01*
X134277167Y-132777666D02*
X134277167Y-133200999D01*
X133388167Y-133200999D01*
X133388167Y-132777666D01*
X134277167Y-131888666D02*
X133853833Y-132185000D01*
X134277167Y-132396666D02*
X133388167Y-132396666D01*
X133388167Y-132058000D01*
X133430500Y-131973333D01*
X133472833Y-131931000D01*
X133557500Y-131888666D01*
X133684500Y-131888666D01*
X133769167Y-131931000D01*
X133811500Y-131973333D01*
X133853833Y-132058000D01*
X133853833Y-132396666D01*
X134277167Y-130999666D02*
X133853833Y-131296000D01*
X134277167Y-131507666D02*
X133388167Y-131507666D01*
X133388167Y-131169000D01*
X133430500Y-131084333D01*
X133472833Y-131042000D01*
X133557500Y-130999666D01*
X133684500Y-130999666D01*
X133769167Y-131042000D01*
X133811500Y-131084333D01*
X133853833Y-131169000D01*
X133853833Y-131507666D01*
X134277167Y-130618666D02*
X133388167Y-130618666D01*
X133388167Y-130322333D02*
X133388167Y-129814333D01*
X134277167Y-130068333D02*
X133388167Y-130068333D01*
X133811500Y-129518000D02*
X133811500Y-129221667D01*
X134277167Y-129094667D02*
X134277167Y-129518000D01*
X133388167Y-129518000D01*
X133388167Y-129094667D01*
X101073167Y-146286333D02*
X101708167Y-146286333D01*
X101835167Y-146328667D01*
X101919833Y-146413333D01*
X101962167Y-146540333D01*
X101962167Y-146625000D01*
X101962167Y-145397334D02*
X101962167Y-145905334D01*
X101962167Y-145651334D02*
X101073167Y-145651334D01*
X101200167Y-145736000D01*
X101284833Y-145820667D01*
X101327167Y-145905334D01*
X101043167Y-134266333D02*
X101678167Y-134266333D01*
X101805167Y-134308667D01*
X101889833Y-134393333D01*
X101932167Y-134520333D01*
X101932167Y-134605000D01*
X101127833Y-133885334D02*
X101085500Y-133843000D01*
X101043167Y-133758334D01*
X101043167Y-133546667D01*
X101085500Y-133462000D01*
X101127833Y-133419667D01*
X101212500Y-133377334D01*
X101297167Y-133377334D01*
X101424167Y-133419667D01*
X101932167Y-133927667D01*
X101932167Y-133377334D01*
X101013167Y-122336333D02*
X101648167Y-122336333D01*
X101775167Y-122378667D01*
X101859833Y-122463333D01*
X101902167Y-122590333D01*
X101902167Y-122675000D01*
X101013167Y-121997667D02*
X101013167Y-121447334D01*
X101351833Y-121743667D01*
X101351833Y-121616667D01*
X101394167Y-121532000D01*
X101436500Y-121489667D01*
X101521167Y-121447334D01*
X101732833Y-121447334D01*
X101817500Y-121489667D01*
X101859833Y-121532000D01*
X101902167Y-121616667D01*
X101902167Y-121870667D01*
X101859833Y-121955334D01*
X101817500Y-121997667D01*
D18*
X135627143Y-124636666D02*
X135674762Y-124684285D01*
X135722381Y-124827142D01*
X135722381Y-124922380D01*
X135674762Y-125065238D01*
X135579524Y-125160476D01*
X135484286Y-125208095D01*
X135293810Y-125255714D01*
X135150952Y-125255714D01*
X134960476Y-125208095D01*
X134865238Y-125160476D01*
X134770000Y-125065238D01*
X134722381Y-124922380D01*
X134722381Y-124827142D01*
X134770000Y-124684285D01*
X134817619Y-124636666D01*
X135722381Y-123684285D02*
X135722381Y-124255714D01*
X135722381Y-123970000D02*
X134722381Y-123970000D01*
X134865238Y-124065238D01*
X134960476Y-124160476D01*
X135008095Y-124255714D01*
X119557143Y-121266666D02*
X119604762Y-121314285D01*
X119652381Y-121457142D01*
X119652381Y-121552380D01*
X119604762Y-121695238D01*
X119509524Y-121790476D01*
X119414286Y-121838095D01*
X119223810Y-121885714D01*
X119080952Y-121885714D01*
X118890476Y-121838095D01*
X118795238Y-121790476D01*
X118700000Y-121695238D01*
X118652381Y-121552380D01*
X118652381Y-121457142D01*
X118700000Y-121314285D01*
X118747619Y-121266666D01*
X118747619Y-120885714D02*
X118700000Y-120838095D01*
X118652381Y-120742857D01*
X118652381Y-120504761D01*
X118700000Y-120409523D01*
X118747619Y-120361904D01*
X118842857Y-120314285D01*
X118938095Y-120314285D01*
X119080952Y-120361904D01*
X119652381Y-120933333D01*
X119652381Y-120314285D01*
X119572143Y-119186666D02*
X119619762Y-119234285D01*
X119667381Y-119377142D01*
X119667381Y-119472380D01*
X119619762Y-119615238D01*
X119524524Y-119710476D01*
X119429286Y-119758095D01*
X119238810Y-119805714D01*
X119095952Y-119805714D01*
X118905476Y-119758095D01*
X118810238Y-119710476D01*
X118715000Y-119615238D01*
X118667381Y-119472380D01*
X118667381Y-119377142D01*
X118715000Y-119234285D01*
X118762619Y-119186666D01*
X118667381Y-118853333D02*
X118667381Y-118234285D01*
X119048333Y-118567619D01*
X119048333Y-118424761D01*
X119095952Y-118329523D01*
X119143571Y-118281904D01*
X119238810Y-118234285D01*
X119476905Y-118234285D01*
X119572143Y-118281904D01*
X119619762Y-118329523D01*
X119667381Y-118424761D01*
X119667381Y-118710476D01*
X119619762Y-118805714D01*
X119572143Y-118853333D01*
X119582143Y-117126666D02*
X119629762Y-117174285D01*
X119677381Y-117317142D01*
X119677381Y-117412380D01*
X119629762Y-117555238D01*
X119534524Y-117650476D01*
X119439286Y-117698095D01*
X119248810Y-117745714D01*
X119105952Y-117745714D01*
X118915476Y-117698095D01*
X118820238Y-117650476D01*
X118725000Y-117555238D01*
X118677381Y-117412380D01*
X118677381Y-117317142D01*
X118725000Y-117174285D01*
X118772619Y-117126666D01*
X119010714Y-116269523D02*
X119677381Y-116269523D01*
X118629762Y-116507619D02*
X119344048Y-116745714D01*
X119344048Y-116126666D01*
X132213334Y-128797143D02*
X132165715Y-128844762D01*
X132022858Y-128892381D01*
X131927620Y-128892381D01*
X131784762Y-128844762D01*
X131689524Y-128749524D01*
X131641905Y-128654286D01*
X131594286Y-128463810D01*
X131594286Y-128320952D01*
X131641905Y-128130476D01*
X131689524Y-128035238D01*
X131784762Y-127940000D01*
X131927620Y-127892381D01*
X132022858Y-127892381D01*
X132165715Y-127940000D01*
X132213334Y-127987619D01*
X133118096Y-127892381D02*
X132641905Y-127892381D01*
X132594286Y-128368571D01*
X132641905Y-128320952D01*
X132737143Y-128273333D01*
X132975239Y-128273333D01*
X133070477Y-128320952D01*
X133118096Y-128368571D01*
X133165715Y-128463810D01*
X133165715Y-128701905D01*
X133118096Y-128797143D01*
X133070477Y-128844762D01*
X132975239Y-128892381D01*
X132737143Y-128892381D01*
X132641905Y-128844762D01*
X132594286Y-128797143D01*
X124583334Y-111157143D02*
X124535715Y-111204762D01*
X124392858Y-111252381D01*
X124297620Y-111252381D01*
X124154762Y-111204762D01*
X124059524Y-111109524D01*
X124011905Y-111014286D01*
X123964286Y-110823810D01*
X123964286Y-110680952D01*
X124011905Y-110490476D01*
X124059524Y-110395238D01*
X124154762Y-110300000D01*
X124297620Y-110252381D01*
X124392858Y-110252381D01*
X124535715Y-110300000D01*
X124583334Y-110347619D01*
X125440477Y-110252381D02*
X125250000Y-110252381D01*
X125154762Y-110300000D01*
X125107143Y-110347619D01*
X125011905Y-110490476D01*
X124964286Y-110680952D01*
X124964286Y-111061905D01*
X125011905Y-111157143D01*
X125059524Y-111204762D01*
X125154762Y-111252381D01*
X125345239Y-111252381D01*
X125440477Y-111204762D01*
X125488096Y-111157143D01*
X125535715Y-111061905D01*
X125535715Y-110823810D01*
X125488096Y-110728571D01*
X125440477Y-110680952D01*
X125345239Y-110633333D01*
X125154762Y-110633333D01*
X125059524Y-110680952D01*
X125011905Y-110728571D01*
X124964286Y-110823810D01*
X119482143Y-110891666D02*
X119529762Y-110939285D01*
X119577381Y-111082142D01*
X119577381Y-111177380D01*
X119529762Y-111320238D01*
X119434524Y-111415476D01*
X119339286Y-111463095D01*
X119148810Y-111510714D01*
X119005952Y-111510714D01*
X118815476Y-111463095D01*
X118720238Y-111415476D01*
X118625000Y-111320238D01*
X118577381Y-111177380D01*
X118577381Y-111082142D01*
X118625000Y-110939285D01*
X118672619Y-110891666D01*
X118577381Y-110558333D02*
X118577381Y-109891666D01*
X119577381Y-110320238D01*
X119557143Y-112791666D02*
X119604762Y-112839285D01*
X119652381Y-112982142D01*
X119652381Y-113077380D01*
X119604762Y-113220238D01*
X119509524Y-113315476D01*
X119414286Y-113363095D01*
X119223810Y-113410714D01*
X119080952Y-113410714D01*
X118890476Y-113363095D01*
X118795238Y-113315476D01*
X118700000Y-113220238D01*
X118652381Y-113077380D01*
X118652381Y-112982142D01*
X118700000Y-112839285D01*
X118747619Y-112791666D01*
X119080952Y-112220238D02*
X119033333Y-112315476D01*
X118985714Y-112363095D01*
X118890476Y-112410714D01*
X118842857Y-112410714D01*
X118747619Y-112363095D01*
X118700000Y-112315476D01*
X118652381Y-112220238D01*
X118652381Y-112029761D01*
X118700000Y-111934523D01*
X118747619Y-111886904D01*
X118842857Y-111839285D01*
X118890476Y-111839285D01*
X118985714Y-111886904D01*
X119033333Y-111934523D01*
X119080952Y-112029761D01*
X119080952Y-112220238D01*
X119128571Y-112315476D01*
X119176190Y-112363095D01*
X119271429Y-112410714D01*
X119461905Y-112410714D01*
X119557143Y-112363095D01*
X119604762Y-112315476D01*
X119652381Y-112220238D01*
X119652381Y-112029761D01*
X119604762Y-111934523D01*
X119557143Y-111886904D01*
X119461905Y-111839285D01*
X119271429Y-111839285D01*
X119176190Y-111886904D01*
X119128571Y-111934523D01*
X119080952Y-112029761D01*
X119582143Y-115041666D02*
X119629762Y-115089285D01*
X119677381Y-115232142D01*
X119677381Y-115327380D01*
X119629762Y-115470238D01*
X119534524Y-115565476D01*
X119439286Y-115613095D01*
X119248810Y-115660714D01*
X119105952Y-115660714D01*
X118915476Y-115613095D01*
X118820238Y-115565476D01*
X118725000Y-115470238D01*
X118677381Y-115327380D01*
X118677381Y-115232142D01*
X118725000Y-115089285D01*
X118772619Y-115041666D01*
X119677381Y-114565476D02*
X119677381Y-114375000D01*
X119629762Y-114279761D01*
X119582143Y-114232142D01*
X119439286Y-114136904D01*
X119248810Y-114089285D01*
X118867857Y-114089285D01*
X118772619Y-114136904D01*
X118725000Y-114184523D01*
X118677381Y-114279761D01*
X118677381Y-114470238D01*
X118725000Y-114565476D01*
X118772619Y-114613095D01*
X118867857Y-114660714D01*
X119105952Y-114660714D01*
X119201190Y-114613095D01*
X119248810Y-114565476D01*
X119296429Y-114470238D01*
X119296429Y-114279761D01*
X119248810Y-114184523D01*
X119201190Y-114136904D01*
X119105952Y-114089285D01*
X155267143Y-125142857D02*
X155314762Y-125190476D01*
X155362381Y-125333333D01*
X155362381Y-125428571D01*
X155314762Y-125571429D01*
X155219524Y-125666667D01*
X155124286Y-125714286D01*
X154933810Y-125761905D01*
X154790952Y-125761905D01*
X154600476Y-125714286D01*
X154505238Y-125666667D01*
X154410000Y-125571429D01*
X154362381Y-125428571D01*
X154362381Y-125333333D01*
X154410000Y-125190476D01*
X154457619Y-125142857D01*
X155362381Y-124190476D02*
X155362381Y-124761905D01*
X155362381Y-124476191D02*
X154362381Y-124476191D01*
X154505238Y-124571429D01*
X154600476Y-124666667D01*
X154648095Y-124761905D01*
X154362381Y-123571429D02*
X154362381Y-123476190D01*
X154410000Y-123380952D01*
X154457619Y-123333333D01*
X154552857Y-123285714D01*
X154743333Y-123238095D01*
X154981429Y-123238095D01*
X155171905Y-123285714D01*
X155267143Y-123333333D01*
X155314762Y-123380952D01*
X155362381Y-123476190D01*
X155362381Y-123571429D01*
X155314762Y-123666667D01*
X155267143Y-123714286D01*
X155171905Y-123761905D01*
X154981429Y-123809524D01*
X154743333Y-123809524D01*
X154552857Y-123761905D01*
X154457619Y-123714286D01*
X154410000Y-123666667D01*
X154362381Y-123571429D01*
X151857143Y-128597143D02*
X151809524Y-128644762D01*
X151666667Y-128692381D01*
X151571429Y-128692381D01*
X151428571Y-128644762D01*
X151333333Y-128549524D01*
X151285714Y-128454286D01*
X151238095Y-128263810D01*
X151238095Y-128120952D01*
X151285714Y-127930476D01*
X151333333Y-127835238D01*
X151428571Y-127740000D01*
X151571429Y-127692381D01*
X151666667Y-127692381D01*
X151809524Y-127740000D01*
X151857143Y-127787619D01*
X152809524Y-128692381D02*
X152238095Y-128692381D01*
X152523809Y-128692381D02*
X152523809Y-127692381D01*
X152428571Y-127835238D01*
X152333333Y-127930476D01*
X152238095Y-127978095D01*
X153761905Y-128692381D02*
X153190476Y-128692381D01*
X153476190Y-128692381D02*
X153476190Y-127692381D01*
X153380952Y-127835238D01*
X153285714Y-127930476D01*
X153190476Y-127978095D01*
X156761905Y-134312381D02*
X156761905Y-133312381D01*
X157142858Y-133312381D01*
X157238096Y-133360000D01*
X157285715Y-133407619D01*
X157333334Y-133502857D01*
X157333334Y-133645714D01*
X157285715Y-133740952D01*
X157238096Y-133788571D01*
X157142858Y-133836190D01*
X156761905Y-133836190D01*
X157666667Y-133312381D02*
X158285715Y-133312381D01*
X157952381Y-133693333D01*
X158095239Y-133693333D01*
X158190477Y-133740952D01*
X158238096Y-133788571D01*
X158285715Y-133883810D01*
X158285715Y-134121905D01*
X158238096Y-134217143D01*
X158190477Y-134264762D01*
X158095239Y-134312381D01*
X157809524Y-134312381D01*
X157714286Y-134264762D01*
X157666667Y-134217143D01*
D20*
X116173334Y-133972381D02*
X115840000Y-133496190D01*
X115601905Y-133972381D02*
X115601905Y-132972381D01*
X115982858Y-132972381D01*
X116078096Y-133020000D01*
X116125715Y-133067619D01*
X116173334Y-133162857D01*
X116173334Y-133305714D01*
X116125715Y-133400952D01*
X116078096Y-133448571D01*
X115982858Y-133496190D01*
X115601905Y-133496190D01*
X117125715Y-133972381D02*
X116554286Y-133972381D01*
X116840000Y-133972381D02*
X116840000Y-132972381D01*
X116744762Y-133115238D01*
X116649524Y-133210476D01*
X116554286Y-133258095D01*
X116163334Y-138952381D02*
X115830000Y-138476190D01*
X115591905Y-138952381D02*
X115591905Y-137952381D01*
X115972858Y-137952381D01*
X116068096Y-138000000D01*
X116115715Y-138047619D01*
X116163334Y-138142857D01*
X116163334Y-138285714D01*
X116115715Y-138380952D01*
X116068096Y-138428571D01*
X115972858Y-138476190D01*
X115591905Y-138476190D01*
X116544286Y-138047619D02*
X116591905Y-138000000D01*
X116687143Y-137952381D01*
X116925239Y-137952381D01*
X117020477Y-138000000D01*
X117068096Y-138047619D01*
X117115715Y-138142857D01*
X117115715Y-138238095D01*
X117068096Y-138380952D01*
X116496667Y-138952381D01*
X117115715Y-138952381D01*
D18*
X114828334Y-117267381D02*
X114495000Y-116791190D01*
X114256905Y-117267381D02*
X114256905Y-116267381D01*
X114637858Y-116267381D01*
X114733096Y-116315000D01*
X114780715Y-116362619D01*
X114828334Y-116457857D01*
X114828334Y-116600714D01*
X114780715Y-116695952D01*
X114733096Y-116743571D01*
X114637858Y-116791190D01*
X114256905Y-116791190D01*
X115161667Y-116267381D02*
X115780715Y-116267381D01*
X115447381Y-116648333D01*
X115590239Y-116648333D01*
X115685477Y-116695952D01*
X115733096Y-116743571D01*
X115780715Y-116838810D01*
X115780715Y-117076905D01*
X115733096Y-117172143D01*
X115685477Y-117219762D01*
X115590239Y-117267381D01*
X115304524Y-117267381D01*
X115209286Y-117219762D01*
X115161667Y-117172143D01*
X114908334Y-122427381D02*
X114575000Y-121951190D01*
X114336905Y-122427381D02*
X114336905Y-121427381D01*
X114717858Y-121427381D01*
X114813096Y-121475000D01*
X114860715Y-121522619D01*
X114908334Y-121617857D01*
X114908334Y-121760714D01*
X114860715Y-121855952D01*
X114813096Y-121903571D01*
X114717858Y-121951190D01*
X114336905Y-121951190D01*
X115765477Y-121760714D02*
X115765477Y-122427381D01*
X115527381Y-121379762D02*
X115289286Y-122094048D01*
X115908334Y-122094048D01*
X119427381Y-108841666D02*
X118951190Y-109175000D01*
X119427381Y-109413095D02*
X118427381Y-109413095D01*
X118427381Y-109032142D01*
X118475000Y-108936904D01*
X118522619Y-108889285D01*
X118617857Y-108841666D01*
X118760714Y-108841666D01*
X118855952Y-108889285D01*
X118903571Y-108936904D01*
X118951190Y-109032142D01*
X118951190Y-109413095D01*
X118427381Y-107936904D02*
X118427381Y-108413095D01*
X118903571Y-108460714D01*
X118855952Y-108413095D01*
X118808333Y-108317857D01*
X118808333Y-108079761D01*
X118855952Y-107984523D01*
X118903571Y-107936904D01*
X118998810Y-107889285D01*
X119236905Y-107889285D01*
X119332143Y-107936904D01*
X119379762Y-107984523D01*
X119427381Y-108079761D01*
X119427381Y-108317857D01*
X119379762Y-108413095D01*
X119332143Y-108460714D01*
X124477381Y-109066666D02*
X124001190Y-109400000D01*
X124477381Y-109638095D02*
X123477381Y-109638095D01*
X123477381Y-109257142D01*
X123525000Y-109161904D01*
X123572619Y-109114285D01*
X123667857Y-109066666D01*
X123810714Y-109066666D01*
X123905952Y-109114285D01*
X123953571Y-109161904D01*
X124001190Y-109257142D01*
X124001190Y-109638095D01*
X123477381Y-108209523D02*
X123477381Y-108400000D01*
X123525000Y-108495238D01*
X123572619Y-108542857D01*
X123715476Y-108638095D01*
X123905952Y-108685714D01*
X124286905Y-108685714D01*
X124382143Y-108638095D01*
X124429762Y-108590476D01*
X124477381Y-108495238D01*
X124477381Y-108304761D01*
X124429762Y-108209523D01*
X124382143Y-108161904D01*
X124286905Y-108114285D01*
X124048810Y-108114285D01*
X123953571Y-108161904D01*
X123905952Y-108209523D01*
X123858333Y-108304761D01*
X123858333Y-108495238D01*
X123905952Y-108590476D01*
X123953571Y-108638095D01*
X124048810Y-108685714D01*
X114743334Y-110717381D02*
X114410000Y-110241190D01*
X114171905Y-110717381D02*
X114171905Y-109717381D01*
X114552858Y-109717381D01*
X114648096Y-109765000D01*
X114695715Y-109812619D01*
X114743334Y-109907857D01*
X114743334Y-110050714D01*
X114695715Y-110145952D01*
X114648096Y-110193571D01*
X114552858Y-110241190D01*
X114171905Y-110241190D01*
X115076667Y-109717381D02*
X115743334Y-109717381D01*
X115314762Y-110717381D01*
X114773334Y-115757381D02*
X114440000Y-115281190D01*
X114201905Y-115757381D02*
X114201905Y-114757381D01*
X114582858Y-114757381D01*
X114678096Y-114805000D01*
X114725715Y-114852619D01*
X114773334Y-114947857D01*
X114773334Y-115090714D01*
X114725715Y-115185952D01*
X114678096Y-115233571D01*
X114582858Y-115281190D01*
X114201905Y-115281190D01*
X115344762Y-115185952D02*
X115249524Y-115138333D01*
X115201905Y-115090714D01*
X115154286Y-114995476D01*
X115154286Y-114947857D01*
X115201905Y-114852619D01*
X115249524Y-114805000D01*
X115344762Y-114757381D01*
X115535239Y-114757381D01*
X115630477Y-114805000D01*
X115678096Y-114852619D01*
X115725715Y-114947857D01*
X115725715Y-114995476D01*
X115678096Y-115090714D01*
X115630477Y-115138333D01*
X115535239Y-115185952D01*
X115344762Y-115185952D01*
X115249524Y-115233571D01*
X115201905Y-115281190D01*
X115154286Y-115376429D01*
X115154286Y-115566905D01*
X115201905Y-115662143D01*
X115249524Y-115709762D01*
X115344762Y-115757381D01*
X115535239Y-115757381D01*
X115630477Y-115709762D01*
X115678096Y-115662143D01*
X115725715Y-115566905D01*
X115725715Y-115376429D01*
X115678096Y-115281190D01*
X115630477Y-115233571D01*
X115535239Y-115185952D01*
X136811905Y-134342381D02*
X136811905Y-133342381D01*
X137192858Y-133342381D01*
X137288096Y-133390000D01*
X137335715Y-133437619D01*
X137383334Y-133532857D01*
X137383334Y-133675714D01*
X137335715Y-133770952D01*
X137288096Y-133818571D01*
X137192858Y-133866190D01*
X136811905Y-133866190D01*
X137764286Y-133437619D02*
X137811905Y-133390000D01*
X137907143Y-133342381D01*
X138145239Y-133342381D01*
X138240477Y-133390000D01*
X138288096Y-133437619D01*
X138335715Y-133532857D01*
X138335715Y-133628095D01*
X138288096Y-133770952D01*
X137716667Y-134342381D01*
X138335715Y-134342381D01*
X150114095Y-117054381D02*
X150114095Y-117863905D01*
X150161714Y-117959143D01*
X150209333Y-118006762D01*
X150304571Y-118054381D01*
X150495048Y-118054381D01*
X150590286Y-118006762D01*
X150637905Y-117959143D01*
X150685524Y-117863905D01*
X150685524Y-117054381D01*
X151066476Y-117054381D02*
X151685524Y-117054381D01*
X151352190Y-117435333D01*
X151495048Y-117435333D01*
X151590286Y-117482952D01*
X151637905Y-117530571D01*
X151685524Y-117625810D01*
X151685524Y-117863905D01*
X151637905Y-117959143D01*
X151590286Y-118006762D01*
X151495048Y-118054381D01*
X151209333Y-118054381D01*
X151114095Y-118006762D01*
X151066476Y-117959143D01*
D12*
X146756381Y-128896381D02*
X145756381Y-128896381D01*
X146470667Y-128563047D01*
X145756381Y-128229714D01*
X146756381Y-128229714D01*
X146470667Y-127801143D02*
X146470667Y-127324952D01*
X146756381Y-127896381D02*
X145756381Y-127563048D01*
X146756381Y-127229714D01*
X145756381Y-126991619D02*
X146756381Y-126324952D01*
X145756381Y-126324952D02*
X146756381Y-126991619D01*
X145756381Y-126039238D02*
X145756381Y-125420190D01*
X146137333Y-125753524D01*
X146137333Y-125610666D01*
X146184952Y-125515428D01*
X146232571Y-125467809D01*
X146327810Y-125420190D01*
X146565905Y-125420190D01*
X146661143Y-125467809D01*
X146708762Y-125515428D01*
X146756381Y-125610666D01*
X146756381Y-125896381D01*
X146708762Y-125991619D01*
X146661143Y-126039238D01*
X146756381Y-124467809D02*
X146756381Y-125039238D01*
X146756381Y-124753524D02*
X145756381Y-124753524D01*
X145899238Y-124848762D01*
X145994476Y-124944000D01*
X146042095Y-125039238D01*
X146184952Y-123896381D02*
X146137333Y-123991619D01*
X146089714Y-124039238D01*
X145994476Y-124086857D01*
X145946857Y-124086857D01*
X145851619Y-124039238D01*
X145804000Y-123991619D01*
X145756381Y-123896381D01*
X145756381Y-123705904D01*
X145804000Y-123610666D01*
X145851619Y-123563047D01*
X145946857Y-123515428D01*
X145994476Y-123515428D01*
X146089714Y-123563047D01*
X146137333Y-123610666D01*
X146184952Y-123705904D01*
X146184952Y-123896381D01*
X146232571Y-123991619D01*
X146280190Y-124039238D01*
X146375429Y-124086857D01*
X146565905Y-124086857D01*
X146661143Y-124039238D01*
X146708762Y-123991619D01*
X146756381Y-123896381D01*
X146756381Y-123705904D01*
X146708762Y-123610666D01*
X146661143Y-123563047D01*
X146565905Y-123515428D01*
X146375429Y-123515428D01*
X146280190Y-123563047D01*
X146232571Y-123610666D01*
X146184952Y-123705904D01*
X145756381Y-122610666D02*
X145756381Y-123086857D01*
X146232571Y-123134476D01*
X146184952Y-123086857D01*
X146137333Y-122991619D01*
X146137333Y-122753523D01*
X146184952Y-122658285D01*
X146232571Y-122610666D01*
X146327810Y-122563047D01*
X146565905Y-122563047D01*
X146661143Y-122610666D01*
X146708762Y-122658285D01*
X146756381Y-122753523D01*
X146756381Y-122991619D01*
X146708762Y-123086857D01*
X146661143Y-123134476D01*
X145756381Y-121658285D02*
X145756381Y-122134476D01*
X146232571Y-122182095D01*
X146184952Y-122134476D01*
X146137333Y-122039238D01*
X146137333Y-121801142D01*
X146184952Y-121705904D01*
X146232571Y-121658285D01*
X146327810Y-121610666D01*
X146565905Y-121610666D01*
X146661143Y-121658285D01*
X146708762Y-121705904D01*
X146756381Y-121801142D01*
X146756381Y-122039238D01*
X146708762Y-122134476D01*
X146661143Y-122182095D01*
X146756381Y-121182095D02*
X145756381Y-121182095D01*
X146756381Y-120610666D02*
X146184952Y-121039238D01*
X145756381Y-120610666D02*
X146327810Y-121182095D01*
X146470667Y-120229714D02*
X146470667Y-119753523D01*
X146756381Y-120324952D02*
X145756381Y-119991619D01*
X146756381Y-119658285D01*
X146708762Y-119372571D02*
X146756381Y-119229714D01*
X146756381Y-118991618D01*
X146708762Y-118896380D01*
X146661143Y-118848761D01*
X146565905Y-118801142D01*
X146470667Y-118801142D01*
X146375429Y-118848761D01*
X146327810Y-118896380D01*
X146280190Y-118991618D01*
X146232571Y-119182095D01*
X146184952Y-119277333D01*
X146137333Y-119324952D01*
X146042095Y-119372571D01*
X145946857Y-119372571D01*
X145851619Y-119324952D01*
X145804000Y-119277333D01*
X145756381Y-119182095D01*
X145756381Y-118943999D01*
X145804000Y-118801142D01*
X146470667Y-118420190D02*
X146470667Y-117943999D01*
X146756381Y-118515428D02*
X145756381Y-118182095D01*
X146756381Y-117848761D01*
D18*
X130556095Y-117054381D02*
X130556095Y-117863905D01*
X130603714Y-117959143D01*
X130651333Y-118006762D01*
X130746571Y-118054381D01*
X130937048Y-118054381D01*
X131032286Y-118006762D01*
X131079905Y-117959143D01*
X131127524Y-117863905D01*
X131127524Y-117054381D01*
X132127524Y-118054381D02*
X131556095Y-118054381D01*
X131841809Y-118054381D02*
X131841809Y-117054381D01*
X131746571Y-117197238D01*
X131651333Y-117292476D01*
X131556095Y-117340095D01*
D12*
X127198381Y-129658381D02*
X126198381Y-129658381D01*
X126912667Y-129325047D01*
X126198381Y-128991714D01*
X127198381Y-128991714D01*
X126912667Y-128563143D02*
X126912667Y-128086952D01*
X127198381Y-128658381D02*
X126198381Y-128325048D01*
X127198381Y-127991714D01*
X126198381Y-127753619D02*
X127198381Y-127086952D01*
X126198381Y-127086952D02*
X127198381Y-127753619D01*
X126198381Y-126801238D02*
X126198381Y-126182190D01*
X126579333Y-126515524D01*
X126579333Y-126372666D01*
X126626952Y-126277428D01*
X126674571Y-126229809D01*
X126769810Y-126182190D01*
X127007905Y-126182190D01*
X127103143Y-126229809D01*
X127150762Y-126277428D01*
X127198381Y-126372666D01*
X127198381Y-126658381D01*
X127150762Y-126753619D01*
X127103143Y-126801238D01*
X127198381Y-125229809D02*
X127198381Y-125801238D01*
X127198381Y-125515524D02*
X126198381Y-125515524D01*
X126341238Y-125610762D01*
X126436476Y-125706000D01*
X126484095Y-125801238D01*
X126626952Y-124658381D02*
X126579333Y-124753619D01*
X126531714Y-124801238D01*
X126436476Y-124848857D01*
X126388857Y-124848857D01*
X126293619Y-124801238D01*
X126246000Y-124753619D01*
X126198381Y-124658381D01*
X126198381Y-124467904D01*
X126246000Y-124372666D01*
X126293619Y-124325047D01*
X126388857Y-124277428D01*
X126436476Y-124277428D01*
X126531714Y-124325047D01*
X126579333Y-124372666D01*
X126626952Y-124467904D01*
X126626952Y-124658381D01*
X126674571Y-124753619D01*
X126722190Y-124801238D01*
X126817429Y-124848857D01*
X127007905Y-124848857D01*
X127103143Y-124801238D01*
X127150762Y-124753619D01*
X127198381Y-124658381D01*
X127198381Y-124467904D01*
X127150762Y-124372666D01*
X127103143Y-124325047D01*
X127007905Y-124277428D01*
X126817429Y-124277428D01*
X126722190Y-124325047D01*
X126674571Y-124372666D01*
X126626952Y-124467904D01*
X126198381Y-123372666D02*
X126198381Y-123848857D01*
X126674571Y-123896476D01*
X126626952Y-123848857D01*
X126579333Y-123753619D01*
X126579333Y-123515523D01*
X126626952Y-123420285D01*
X126674571Y-123372666D01*
X126769810Y-123325047D01*
X127007905Y-123325047D01*
X127103143Y-123372666D01*
X127150762Y-123420285D01*
X127198381Y-123515523D01*
X127198381Y-123753619D01*
X127150762Y-123848857D01*
X127103143Y-123896476D01*
X126198381Y-122420285D02*
X126198381Y-122896476D01*
X126674571Y-122944095D01*
X126626952Y-122896476D01*
X126579333Y-122801238D01*
X126579333Y-122563142D01*
X126626952Y-122467904D01*
X126674571Y-122420285D01*
X126769810Y-122372666D01*
X127007905Y-122372666D01*
X127103143Y-122420285D01*
X127150762Y-122467904D01*
X127198381Y-122563142D01*
X127198381Y-122801238D01*
X127150762Y-122896476D01*
X127103143Y-122944095D01*
X127198381Y-121944095D02*
X126198381Y-121944095D01*
X127198381Y-121372666D02*
X126626952Y-121801238D01*
X126198381Y-121372666D02*
X126769810Y-121944095D01*
X126912667Y-120991714D02*
X126912667Y-120515523D01*
X127198381Y-121086952D02*
X126198381Y-120753619D01*
X127198381Y-120420285D01*
X127150762Y-120134571D02*
X127198381Y-119991714D01*
X127198381Y-119753618D01*
X127150762Y-119658380D01*
X127103143Y-119610761D01*
X127007905Y-119563142D01*
X126912667Y-119563142D01*
X126817429Y-119610761D01*
X126769810Y-119658380D01*
X126722190Y-119753618D01*
X126674571Y-119944095D01*
X126626952Y-120039333D01*
X126579333Y-120086952D01*
X126484095Y-120134571D01*
X126388857Y-120134571D01*
X126293619Y-120086952D01*
X126246000Y-120039333D01*
X126198381Y-119944095D01*
X126198381Y-119705999D01*
X126246000Y-119563142D01*
X126912667Y-119182190D02*
X126912667Y-118705999D01*
X127198381Y-119277428D02*
X126198381Y-118944095D01*
X127198381Y-118610761D01*
D18*
X122038095Y-119102381D02*
X122038095Y-119911905D01*
X122085714Y-120007143D01*
X122133333Y-120054762D01*
X122228571Y-120102381D01*
X122419048Y-120102381D01*
X122514286Y-120054762D01*
X122561905Y-120007143D01*
X122609524Y-119911905D01*
X122609524Y-119102381D01*
X123038095Y-119197619D02*
X123085714Y-119150000D01*
X123180952Y-119102381D01*
X123419048Y-119102381D01*
X123514286Y-119150000D01*
X123561905Y-119197619D01*
X123609524Y-119292857D01*
X123609524Y-119388095D01*
X123561905Y-119530952D01*
X122990476Y-120102381D01*
X123609524Y-120102381D01*
X152453571Y-131708333D02*
X152453571Y-132041667D01*
X152977381Y-132041667D02*
X151977381Y-132041667D01*
X151977381Y-131565476D01*
X152453571Y-130851190D02*
X152501190Y-130708333D01*
X152548810Y-130660714D01*
X152644048Y-130613095D01*
X152786905Y-130613095D01*
X152882143Y-130660714D01*
X152929762Y-130708333D01*
X152977381Y-130803571D01*
X152977381Y-131184524D01*
X151977381Y-131184524D01*
X151977381Y-130851190D01*
X152025000Y-130755952D01*
X152072619Y-130708333D01*
X152167857Y-130660714D01*
X152263095Y-130660714D01*
X152358333Y-130708333D01*
X152405952Y-130755952D01*
X152453571Y-130851190D01*
X152453571Y-131184524D01*
X151977381Y-130279762D02*
X151977381Y-129660714D01*
X152358333Y-129994048D01*
X152358333Y-129851190D01*
X152405952Y-129755952D01*
X152453571Y-129708333D01*
X152548810Y-129660714D01*
X152786905Y-129660714D01*
X152882143Y-129708333D01*
X152929762Y-129755952D01*
X152977381Y-129851190D01*
X152977381Y-130136905D01*
X152929762Y-130232143D01*
X152882143Y-130279762D01*
D20*
X153736500Y-133641666D02*
X153736500Y-133937999D01*
X154202167Y-133937999D02*
X153313167Y-133937999D01*
X153313167Y-133514666D01*
X153736500Y-133175999D02*
X153736500Y-132879666D01*
X154202167Y-132752666D02*
X154202167Y-133175999D01*
X153313167Y-133175999D01*
X153313167Y-132752666D01*
X154202167Y-131863666D02*
X153778833Y-132160000D01*
X154202167Y-132371666D02*
X153313167Y-132371666D01*
X153313167Y-132033000D01*
X153355500Y-131948333D01*
X153397833Y-131906000D01*
X153482500Y-131863666D01*
X153609500Y-131863666D01*
X153694167Y-131906000D01*
X153736500Y-131948333D01*
X153778833Y-132033000D01*
X153778833Y-132371666D01*
X154202167Y-130974666D02*
X153778833Y-131271000D01*
X154202167Y-131482666D02*
X153313167Y-131482666D01*
X153313167Y-131144000D01*
X153355500Y-131059333D01*
X153397833Y-131017000D01*
X153482500Y-130974666D01*
X153609500Y-130974666D01*
X153694167Y-131017000D01*
X153736500Y-131059333D01*
X153778833Y-131144000D01*
X153778833Y-131482666D01*
X154202167Y-130593666D02*
X153313167Y-130593666D01*
X153313167Y-130297333D02*
X153313167Y-129789333D01*
X154202167Y-130043333D02*
X153313167Y-130043333D01*
X153736500Y-129493000D02*
X153736500Y-129196667D01*
X154202167Y-129069667D02*
X154202167Y-129493000D01*
X153313167Y-129493000D01*
X153313167Y-129069667D01*
D18*
X147345071Y-131765833D02*
X147345071Y-132099167D01*
X147868881Y-132099167D02*
X146868881Y-132099167D01*
X146868881Y-131622976D01*
X147345071Y-130908690D02*
X147392690Y-130765833D01*
X147440310Y-130718214D01*
X147535548Y-130670595D01*
X147678405Y-130670595D01*
X147773643Y-130718214D01*
X147821262Y-130765833D01*
X147868881Y-130861071D01*
X147868881Y-131242024D01*
X146868881Y-131242024D01*
X146868881Y-130908690D01*
X146916500Y-130813452D01*
X146964119Y-130765833D01*
X147059357Y-130718214D01*
X147154595Y-130718214D01*
X147249833Y-130765833D01*
X147297452Y-130813452D01*
X147345071Y-130908690D01*
X147345071Y-131242024D01*
X147202214Y-129813452D02*
X147868881Y-129813452D01*
X146821262Y-130051548D02*
X147535548Y-130289643D01*
X147535548Y-129670595D01*
X127395071Y-132115833D02*
X127395071Y-132449167D01*
X127918881Y-132449167D02*
X126918881Y-132449167D01*
X126918881Y-131972976D01*
X127395071Y-131258690D02*
X127442690Y-131115833D01*
X127490310Y-131068214D01*
X127585548Y-131020595D01*
X127728405Y-131020595D01*
X127823643Y-131068214D01*
X127871262Y-131115833D01*
X127918881Y-131211071D01*
X127918881Y-131592024D01*
X126918881Y-131592024D01*
X126918881Y-131258690D01*
X126966500Y-131163452D01*
X127014119Y-131115833D01*
X127109357Y-131068214D01*
X127204595Y-131068214D01*
X127299833Y-131115833D01*
X127347452Y-131163452D01*
X127395071Y-131258690D01*
X127395071Y-131592024D01*
X127014119Y-130639643D02*
X126966500Y-130592024D01*
X126918881Y-130496786D01*
X126918881Y-130258690D01*
X126966500Y-130163452D01*
X127014119Y-130115833D01*
X127109357Y-130068214D01*
X127204595Y-130068214D01*
X127347452Y-130115833D01*
X127918881Y-130687262D01*
X127918881Y-130068214D01*
M02*
